standard-graf_regular.sfdir

StartChar: exclam
Encoding: 33 33 2
Width: 501
Flags: W
LayerCount: 2
Fore
SplineSet
401 149 m 0,0,1
 401 117 401 117 375 99 c 0,2,3
 366 93 366 93 350.5 80.5 c 128,-1,4
 335 68 335 68 317 56 c 128,-1,5
 299 44 299 44 281 34.5 c 128,-1,6
 263 25 263 25 250 25 c 0,7,8
 240 25 240 25 232.5 28.5 c 128,-1,9
 225 32 225 32 217 37 c 0,10,11
 203 46 203 46 183 57 c 128,-1,12
 163 68 163 68 144.5 81.5 c 128,-1,13
 126 95 126 95 113 111.5 c 128,-1,14
 100 128 100 128 100 149 c 0,15,16
 100 164 100 164 107.5 177.5 c 128,-1,17
 115 191 115 191 127 199 c 0,18,19
 136 205 136 205 151.5 217.5 c 128,-1,20
 167 230 167 230 184.5 242 c 128,-1,21
 202 254 202 254 219 263 c 128,-1,22
 236 272 236 272 250 272 c 0,23,24
 269 272 269 272 286 261 c 1,25,-1
 285 261 l 1,26,27
 298 252 298 252 318 241 c 128,-1,28
 338 230 338 230 356.5 216.5 c 128,-1,29
 375 203 375 203 388 186.5 c 128,-1,30
 401 170 401 170 401 149 c 0,0,1
285 1562 m 0,31,32
 310 1562 310 1562 328 1544.5 c 128,-1,33
 346 1527 346 1527 346 1502 c 2,34,-1
 346 570 l 2,35,36
 346 537 346 537 317 519 c 0,37,38
 308 513 308 513 293 502.5 c 128,-1,39
 278 492 278 492 261.5 481.5 c 128,-1,40
 245 471 245 471 229 463.5 c 128,-1,41
 213 456 213 456 201 456 c 0,42,43
 175 456 175 456 157.5 473.5 c 128,-1,44
 140 491 140 491 140 517 c 2,45,-1
 140 1450 l 2,46,47
 140 1471 140 1471 152.5 1486.5 c 128,-1,48
 165 1502 165 1502 182.5 1513.5 c 128,-1,49
 200 1525 200 1525 219.5 1534 c 128,-1,50
 239 1543 239 1543 253 1552 c 0,51,52
 260 1556 260 1556 268.5 1559 c 128,-1,53
 277 1562 277 1562 285 1562 c 0,31,32
EndSplineSet
EndChar

StartChar: quotedbl
Encoding: 34 34 3
Width: 795
Flags: W
LayerCount: 2
Fore
SplineSet
634 1562 m 0,0,1
 660 1562 660 1562 677.5 1545 c 128,-1,2
 695 1528 695 1528 695 1502 c 2,3,-1
 695 1288 l 2,4,5
 695 1270 695 1270 688.5 1258.5 c 128,-1,6
 682 1247 682 1247 667 1237 c 0,7,8
 658 1231 658 1231 643 1220.5 c 128,-1,9
 628 1210 628 1210 611.5 1199.5 c 128,-1,10
 595 1189 595 1189 579 1181.5 c 128,-1,11
 563 1174 563 1174 550 1174 c 0,12,13
 524 1174 524 1174 507 1191.5 c 128,-1,14
 490 1209 490 1209 490 1235 c 2,15,-1
 490 1450 l 2,16,17
 490 1471 490 1471 502 1486.5 c 128,-1,18
 514 1502 514 1502 531.5 1513.5 c 128,-1,19
 549 1525 549 1525 568.5 1534 c 128,-1,20
 588 1543 588 1543 602 1552 c 0,21,22
 608 1556 608 1556 617 1559 c 128,-1,23
 626 1562 626 1562 634 1562 c 0,0,1
245 1562 m 0,24,25
 270 1562 270 1562 287.5 1544.5 c 128,-1,26
 305 1527 305 1527 305 1502 c 2,27,-1
 305 1288 l 2,28,29
 305 1270 305 1270 298.5 1258.5 c 128,-1,30
 292 1247 292 1247 277 1237 c 0,31,32
 268 1231 268 1231 253 1220.5 c 128,-1,33
 238 1210 238 1210 221.5 1199.5 c 128,-1,34
 205 1189 205 1189 189 1181.5 c 128,-1,35
 173 1174 173 1174 161 1174 c 0,36,37
 135 1174 135 1174 117.5 1191.5 c 128,-1,38
 100 1209 100 1209 100 1235 c 2,39,-1
 100 1450 l 2,40,41
 100 1471 100 1471 112 1486.5 c 128,-1,42
 124 1502 124 1502 141.5 1513.5 c 128,-1,43
 159 1525 159 1525 178.5 1534 c 128,-1,44
 198 1543 198 1543 212 1552 c 0,45,46
 218 1556 218 1556 227.5 1559 c 128,-1,47
 237 1562 237 1562 245 1562 c 0,24,25
EndSplineSet
EndChar

StartChar: numbersign
Encoding: 35 35 4
Width: 1268
Flags: W
LayerCount: 2
Fore
SplineSet
985 920 m 1,0,-1
 937 674 l 1,1,-1
 1108 674 l 2,2,3
 1135 674 1135 674 1151 655 c 128,-1,4
 1167 636 1167 636 1167 610 c 0,5,6
 1167 579 1167 579 1139 562 c 1,7,-1
 1139 563 l 1,8,9
 1102 540 1102 540 1079.5 524.5 c 128,-1,10
 1057 509 1057 509 1041.5 498.5 c 128,-1,11
 1026 488 1026 488 1014.5 482.5 c 128,-1,12
 1003 477 1003 477 988.5 474 c 128,-1,13
 974 471 974 471 952.5 470.5 c 128,-1,14
 931 470 931 470 896 470 c 1,15,-1
 876 370 l 1,16,-1
 877 371 l 1,17,18
 873 356 873 356 854 338 c 128,-1,19
 835 320 835 320 811.5 302.5 c 128,-1,20
 788 285 788 285 765.5 270 c 128,-1,21
 743 255 743 255 733 247 c 0,22,23
 725 241 725 241 716.5 236.5 c 128,-1,24
 708 232 708 232 698 232 c 0,25,26
 687 232 687 232 676 236.5 c 128,-1,27
 665 241 665 241 656 249 c 128,-1,28
 647 257 647 257 641.5 267 c 128,-1,29
 636 277 636 277 636 289 c 0,30,31
 636 308 636 308 640 331.5 c 128,-1,32
 644 355 644 355 649.5 379.5 c 128,-1,33
 655 404 655 404 661 427 c 128,-1,34
 667 450 667 450 671 470 c 1,35,-1
 473 470 l 1,36,-1
 453 370 l 1,37,-1
 454 371 l 1,38,39
 449 356 449 356 430 338 c 128,-1,40
 411 320 411 320 388 302.5 c 128,-1,41
 365 285 365 285 343 270.5 c 128,-1,42
 321 256 321 256 310 247 c 0,43,44
 302 241 302 241 293.5 236.5 c 128,-1,45
 285 232 285 232 274 232 c 0,46,47
 252 232 252 232 232.5 249 c 128,-1,48
 213 266 213 266 213 289 c 0,49,50
 213 308 213 308 217 331.5 c 128,-1,51
 221 355 221 355 226.5 379.5 c 128,-1,52
 232 404 232 404 238 427 c 128,-1,53
 244 450 244 450 248 470 c 1,54,55
 228 470 228 470 202.5 468.5 c 128,-1,56
 177 467 177 467 154.5 471 c 128,-1,57
 132 475 132 475 116.5 488.5 c 128,-1,58
 101 502 101 502 101 533 c 0,59,60
 101 565 101 565 129 582 c 1,61,-1
 129 581 l 1,62,63
 167 604 167 604 206.5 632 c 128,-1,64
 246 660 246 660 289 674 c 1,65,-1
 337 918 l 1,66,-1
 161 918 l 2,67,68
 134 918 134 918 117 937 c 128,-1,69
 100 956 100 956 100 982 c 0,70,71
 100 1013 100 1013 129 1031 c 1,72,-1
 129 1030 l 1,73,74
 167 1053 167 1053 190 1069 c 128,-1,75
 213 1085 213 1085 228.5 1095.5 c 128,-1,76
 244 1106 244 1106 255.5 1111.5 c 128,-1,77
 267 1117 267 1117 282 1119.5 c 128,-1,78
 297 1122 297 1122 319 1122.5 c 128,-1,79
 341 1123 341 1123 378 1123 c 1,80,81
 386 1161 386 1161 393.5 1199.5 c 128,-1,82
 401 1238 401 1238 409 1276 c 1,83,-1
 409 1275 l 1,84,85
 413 1289 413 1289 431.5 1306.5 c 128,-1,86
 450 1324 450 1324 473 1341.5 c 128,-1,87
 496 1359 496 1359 517.5 1374 c 128,-1,88
 539 1389 539 1389 550 1397 c 1,89,90
 559 1405 559 1405 567 1409 c 128,-1,91
 575 1413 575 1413 587 1413 c 256,92,93
 599 1413 599 1413 610 1407.5 c 128,-1,94
 621 1402 621 1402 630 1393.5 c 128,-1,95
 639 1385 639 1385 644 1374 c 128,-1,96
 649 1363 649 1363 649 1351 c 0,97,98
 649 1331 649 1331 643.5 1301 c 128,-1,99
 638 1271 638 1271 630.5 1238.5 c 128,-1,100
 623 1206 623 1206 615 1175 c 128,-1,101
 607 1144 607 1144 603 1123 c 1,102,-1
 801 1123 l 1,103,104
 809 1161 809 1161 816.5 1199.5 c 128,-1,105
 824 1238 824 1238 832 1276 c 1,106,-1
 832 1275 l 1,107,108
 836 1289 836 1289 854.5 1306.5 c 128,-1,109
 873 1324 873 1324 896 1341.5 c 128,-1,110
 919 1359 919 1359 940.5 1374 c 128,-1,111
 962 1389 962 1389 973 1397 c 1,112,113
 982 1405 982 1405 990 1409 c 128,-1,114
 998 1413 998 1413 1010 1413 c 0,115,116
 1034 1413 1034 1413 1053 1394 c 128,-1,117
 1072 1375 1072 1375 1072 1351 c 0,118,119
 1072 1331 1072 1331 1066.5 1301 c 128,-1,120
 1061 1271 1061 1271 1053.5 1238.5 c 128,-1,121
 1046 1206 1046 1206 1038.5 1175 c 128,-1,122
 1031 1144 1031 1144 1027 1123 c 1,123,124
 1048 1123 1048 1123 1072.5 1124.5 c 128,-1,125
 1097 1126 1097 1126 1118 1121.5 c 128,-1,126
 1139 1117 1139 1117 1153 1103 c 128,-1,127
 1167 1089 1167 1089 1167 1059 c 0,128,129
 1167 1027 1167 1027 1139 1011 c 1,130,-1
 1139 1012 l 1,131,132
 1103 990 1103 990 1064 962 c 128,-1,133
 1025 934 1025 934 985 920 c 1,0,-1
513 674 m 1,134,-1
 712 674 l 1,135,-1
 760 918 l 1,136,-1
 563 918 l 1,137,-1
 513 674 l 1,134,-1
EndSplineSet
EndChar

StartChar: dollar
Encoding: 36 36 5
Width: 1283
Flags: W
LayerCount: 2
Fore
SplineSet
548 135 m 1,0,1
 542 135 542 135 513.5 144 c 128,-1,2
 485 153 485 153 445 167 c 128,-1,3
 405 181 405 181 358.5 197.5 c 128,-1,4
 312 214 312 214 269.5 229 c 128,-1,5
 227 244 227 244 195 255.5 c 128,-1,6
 163 267 163 267 151 272 c 0,7,8
 133 279 133 279 122 293 c 128,-1,9
 111 307 111 307 111 327 c 256,10,11
 111 347 111 347 122 362 c 128,-1,12
 133 377 133 377 151 385 c 2,13,-1
 284 438 l 1,14,-1
 283 438 l 1,15,16
 293 441 293 441 304 441 c 0,17,18
 316 441 316 441 328 438 c 1,19,-1
 327 439 l 1,20,-1
 548 359 l 1,21,-1
 548 680 l 1,22,-1
 411 630 l 1,23,-1
 412 630 l 1,24,25
 400 625 400 625 390 625 c 0,26,27
 383 625 383 625 364.5 630.5 c 128,-1,28
 346 636 346 636 321 645 c 128,-1,29
 296 654 296 654 268 664.5 c 128,-1,30
 240 675 240 675 214.5 685 c 128,-1,31
 189 695 189 695 168.5 703 c 128,-1,32
 148 711 148 711 139 715 c 1,33,-1
 140 715 l 1,34,35
 100 731 100 731 100 771 c 2,36,-1
 100 1132 l 2,37,38
 100 1155 100 1155 110 1167.5 c 128,-1,39
 120 1180 120 1180 140 1188 c 2,40,-1
 548 1343 l 1,41,-1
 548 1498 l 2,42,43
 548 1515 548 1515 556.5 1527.5 c 128,-1,44
 565 1540 565 1540 579 1549 c 0,45,46
 588 1555 588 1555 604 1565.5 c 128,-1,47
 620 1576 620 1576 637.5 1586.5 c 128,-1,48
 655 1597 655 1597 672 1604.5 c 128,-1,49
 689 1612 689 1612 700 1612 c 0,50,51
 708 1612 708 1612 716 1609.5 c 128,-1,52
 724 1607 724 1607 732 1604 c 1,53,-1
 731 1604 l 1,54,55
 745 1596 745 1596 753 1582 c 128,-1,56
 761 1568 761 1568 761 1551 c 2,57,-1
 761 1414 l 1,58,-1
 770 1415 l 1,59,-1
 1131 1282 l 2,60,61
 1170 1268 1170 1268 1170 1225 c 0,62,63
 1170 1202 1170 1202 1161 1189 c 128,-1,64
 1152 1176 1152 1176 1131 1168 c 2,65,-1
 1006 1119 l 2,66,67
 1000 1117 1000 1117 995 1115 c 128,-1,68
 990 1113 990 1113 983 1113 c 0,69,70
 975 1113 975 1113 943.5 1123.5 c 128,-1,71
 912 1134 912 1134 875.5 1147.5 c 128,-1,72
 839 1161 839 1161 806 1173.5 c 128,-1,73
 773 1186 773 1186 761 1191 c 1,74,-1
 761 891 l 1,75,-1
 914 949 l 1,76,-1
 913 949 l 1,77,78
 922 952 922 952 932 952 c 0,79,80
 938 952 938 952 944 951 c 128,-1,81
 950 950 950 950 956 948 c 1,82,-1
 956 949 l 1,83,84
 998 934 998 934 1040 918 c 128,-1,85
 1082 902 1082 902 1124 886 c 1,86,-1
 1123 886 l 1,87,88
 1162 872 1162 872 1164 831 c 1,89,90
 1166 721 1166 721 1166 612 c 128,-1,91
 1166 503 1166 503 1166 393 c 0,92,93
 1166 373 1166 373 1154.5 360 c 128,-1,94
 1143 347 1143 347 1126 340 c 2,95,-1
 819 224 l 1,96,-1
 820 224 l 1,97,-1
 761 202 l 1,98,99
 761 188 761 188 762 166 c 128,-1,100
 763 144 763 144 761.5 121.5 c 128,-1,101
 760 99 760 99 753.5 79 c 128,-1,102
 747 59 747 59 731 50 c 0,103,104
 720 44 720 44 704.5 33 c 128,-1,105
 689 22 689 22 672 12 c 128,-1,106
 655 2 655 2 638.5 -5.5 c 128,-1,107
 622 -13 622 -13 609 -13 c 0,108,109
 601 -13 601 -13 593.5 -10.5 c 128,-1,110
 586 -8 586 -8 578 -5 c 1,111,-1
 579 -5 l 1,112,113
 561 5 561 5 554 22 c 128,-1,114
 547 39 547 39 545.5 58.5 c 128,-1,115
 544 78 544 78 546 98 c 128,-1,116
 548 118 548 118 548 135 c 1,0,1
951 404 m 1,117,-1
 951 724 l 1,118,-1
 803 778 l 1,119,-1
 761 762 l 1,120,-1
 761 334 l 1,121,-1
 951 404 l 1,117,-1
313 878 m 1,122,-1
 520 800 l 1,123,-1
 548 808 l 1,124,-1
 548 1213 l 1,125,-1
 313 1123 l 1,126,-1
 313 878 l 1,122,-1
EndSplineSet
EndChar

StartChar: percent
Encoding: 37 37 6
Width: 1638
Flags: W
LayerCount: 2
Fore
SplineSet
1261 1586 m 1,0,-1
 1260 1586 l 1,1,2
 1268 1589 1268 1589 1275.5 1592 c 128,-1,3
 1283 1595 1283 1595 1291 1595 c 0,4,5
 1302 1595 1302 1595 1312.5 1589.5 c 128,-1,6
 1323 1584 1323 1584 1331.5 1575 c 128,-1,7
 1340 1566 1340 1566 1345 1555 c 128,-1,8
 1350 1544 1350 1544 1350 1534 c 0,9,10
 1350 1526 1350 1526 1347.5 1518 c 128,-1,11
 1345 1510 1345 1510 1341 1503 c 2,12,-1
 532 99 l 2,13,14
 528 92 528 92 514 81.5 c 128,-1,15
 500 71 500 71 481 59.5 c 128,-1,16
 462 48 462 48 440 36.5 c 128,-1,17
 418 25 418 25 398 15.5 c 128,-1,18
 378 6 378 6 362 0.5 c 128,-1,19
 346 -5 346 -5 339 -5 c 0,20,21
 317 -5 317 -5 298.5 14 c 128,-1,22
 280 33 280 33 280 55 c 0,23,24
 280 64 280 64 282.5 71.5 c 128,-1,25
 285 79 285 79 290 87 c 2,26,-1
 1098 1491 l 2,27,28
 1106 1506 1106 1506 1121 1514 c 1,29,-1
 1122 1514 l 1,30,-1
 1261 1586 l 1,0,-1
747 1461 m 1,31,-1
 746 1462 l 1,32,33
 760 1453 760 1453 768 1440.5 c 128,-1,34
 776 1428 776 1428 776 1411 c 2,35,-1
 776 1226 l 2,36,37
 776 1191 776 1191 744 1174 c 2,38,-1
 419 997 l 1,39,-1
 420 997 l 1,40,41
 413 994 413 994 405.5 991 c 128,-1,42
 398 988 398 988 390 988 c 0,43,44
 380 988 380 988 360 997.5 c 128,-1,45
 340 1007 340 1007 314 1022 c 128,-1,46
 288 1037 288 1037 260 1055 c 128,-1,47
 232 1073 232 1073 206 1090 c 128,-1,48
 180 1107 180 1107 159.5 1121 c 128,-1,49
 139 1135 139 1135 129 1141 c 0,50,51
 100 1159 100 1159 100 1192 c 2,52,-1
 100 1375 l 2,53,54
 100 1411 100 1411 132 1428 c 0,55,56
 143 1434 143 1434 171.5 1450.5 c 128,-1,57
 200 1467 200 1467 236.5 1487.5 c 128,-1,58
 273 1508 273 1508 313 1530 c 128,-1,59
 353 1552 353 1552 388.5 1570.5 c 128,-1,60
 424 1589 424 1589 450.5 1601 c 128,-1,61
 477 1613 477 1613 486 1613 c 256,62,63
 495 1613 495 1613 515.5 1603.5 c 128,-1,64
 536 1594 536 1594 562 1578.5 c 128,-1,65
 588 1563 588 1563 616.5 1545 c 128,-1,66
 645 1527 645 1527 671 1510 c 128,-1,67
 697 1493 697 1493 717.5 1479.5 c 128,-1,68
 738 1466 738 1466 747 1461 c 1,31,-1
564 1210 m 1,69,-1
 564 1282 l 2,70,71
 564 1326 564 1326 526 1350 c 2,72,-1
 392 1431 l 1,73,-1
 313 1391 l 1,74,-1
 313 1319 l 2,75,76
 313 1274 313 1274 351 1251 c 2,77,-1
 484 1171 l 1,78,-1
 564 1210 l 1,69,-1
1510 474 m 1,79,-1
 1509 475 l 1,80,81
 1538 456 1538 456 1538 423 c 2,82,-1
 1538 239 l 2,83,84
 1538 202 1538 202 1507 186 c 2,85,-1
 1182 10 l 1,86,-1
 1183 10 l 1,87,88
 1175 7 1175 7 1167.5 4 c 128,-1,89
 1160 1 1160 1 1152 1 c 0,90,91
 1142 1 1142 1 1122 10.5 c 128,-1,92
 1102 20 1102 20 1076 35 c 128,-1,93
 1050 50 1050 50 1022 68 c 128,-1,94
 994 86 994 86 968 103 c 128,-1,95
 942 120 942 120 921.5 134 c 128,-1,96
 901 148 901 148 891 154 c 0,97,98
 863 172 863 172 863 205 c 2,99,-1
 863 388 l 2,100,101
 863 424 863 424 894 440 c 0,102,103
 906 446 906 446 934.5 462.5 c 128,-1,104
 963 479 963 479 999 499.5 c 128,-1,105
 1035 520 1035 520 1075 542.5 c 128,-1,106
 1115 565 1115 565 1150.5 583.5 c 128,-1,107
 1186 602 1186 602 1212.5 614 c 128,-1,108
 1239 626 1239 626 1249 626 c 0,109,110
 1258 626 1258 626 1278.5 616.5 c 128,-1,111
 1299 607 1299 607 1325 591.5 c 128,-1,112
 1351 576 1351 576 1379.5 558 c 128,-1,113
 1408 540 1408 540 1434 523 c 128,-1,114
 1460 506 1460 506 1480.5 492.5 c 128,-1,115
 1501 479 1501 479 1510 474 c 1,79,-1
1327 223 m 1,116,-1
 1327 295 l 2,117,118
 1327 315 1327 315 1316 333.5 c 128,-1,119
 1305 352 1305 352 1288 363 c 2,120,-1
 1154 444 l 1,121,-1
 1075 404 l 1,122,-1
 1075 332 l 2,123,124
 1075 287 1075 287 1114 263 c 2,125,-1
 1247 183 l 1,126,-1
 1327 223 l 1,116,-1
EndSplineSet
EndChar

StartChar: ampersand
Encoding: 38 38 7
Width: 1435
Flags: W
LayerCount: 2
Fore
SplineSet
896 1284 m 2,0,-1
 896 1095 l 2,1,2
 896 1076 896 1076 889.5 1064.5 c 128,-1,3
 883 1053 883 1053 867 1043 c 0,4,5
 799 1001 799 1001 731 962.5 c 128,-1,6
 663 924 663 924 594 883 c 1,7,-1
 1014 462 l 1,8,9
 1024 468 1024 468 1045 482.5 c 128,-1,10
 1066 497 1066 497 1092.5 514.5 c 128,-1,11
 1119 532 1119 532 1148.5 550.5 c 128,-1,12
 1178 569 1178 569 1204.5 584.5 c 128,-1,13
 1231 600 1231 600 1252 610 c 128,-1,14
 1273 620 1273 620 1284 620 c 0,15,16
 1296 620 1296 620 1305 614 c 128,-1,17
 1314 608 1314 608 1321 598.5 c 128,-1,18
 1328 589 1328 589 1331.5 578 c 128,-1,19
 1335 567 1335 567 1335 557 c 0,20,21
 1335 543 1335 543 1329 529.5 c 128,-1,22
 1323 516 1323 516 1310 508 c 2,23,-1
 1098 377 l 1,24,-1
 1303 172 l 2,25,26
 1321 154 1321 154 1321 132 c 0,27,28
 1321 111 1321 111 1310 96 c 128,-1,29
 1299 81 1299 81 1283.5 70 c 128,-1,30
 1268 59 1268 59 1250 50 c 128,-1,31
 1232 41 1232 41 1218 32 c 1,32,-1
 1218 33 l 1,33,34
 1210 28 1210 28 1201 25 c 128,-1,35
 1192 22 1192 22 1183 22 c 0,36,37
 1169 22 1169 22 1160.5 27.5 c 128,-1,38
 1152 33 1152 33 1143 42 c 2,39,-1
 921 264 l 1,40,-1
 526 16 l 2,41,42
 518 11 518 11 510 8 c 128,-1,43
 502 5 502 5 493 5 c 0,44,45
 481 5 481 5 470 11 c 128,-1,46
 459 17 459 17 451 25 c 2,47,-1
 118 359 l 2,48,49
 100 377 100 377 100 402 c 2,50,-1
 100 691 l 2,51,52
 100 724 100 724 130 742 c 2,53,-1
 328 859 l 1,54,-1
 185 1000 l 2,55,56
 177 1008 177 1008 172 1020.5 c 128,-1,57
 167 1033 167 1033 167 1044 c 2,58,-1
 167 1262 l 2,59,60
 167 1296 167 1296 195 1313 c 2,61,-1
 583 1556 l 1,62,-1
 583 1555 l 1,63,64
 591 1559 591 1559 599 1562.5 c 128,-1,65
 607 1566 607 1566 616 1566 c 0,66,67
 628 1566 628 1566 639 1560.5 c 128,-1,68
 650 1555 650 1555 658 1547 c 2,69,-1
 878 1326 l 2,70,71
 896 1308 896 1308 896 1284 c 2,0,-1
690 1071 m 1,72,-1
 690 1191 l 2,73,74
 690 1205 690 1205 683.5 1221 c 128,-1,75
 677 1237 677 1237 667 1247 c 2,76,-1
 528 1385 l 1,77,-1
 372 1288 l 1,78,-1
 372 1137 l 2,79,80
 372 1104 372 1104 396 1080 c 2,81,-1
 511 966 l 1,82,-1
 690 1071 l 1,72,-1
408 778 m 1,83,-1
 305 718 l 1,84,-1
 305 495 l 2,85,86
 305 462 305 462 329 438 c 2,87,-1
 579 188 l 1,88,-1
 835 350 l 1,89,-1
 408 778 l 1,83,-1
EndSplineSet
EndChar

StartChar: quotesingle
Encoding: 39 39 8
Width: 406
Flags: W
LayerCount: 2
Fore
SplineSet
245 1562 m 0,0,1
 270 1562 270 1562 288 1544 c 128,-1,2
 306 1526 306 1526 306 1502 c 2,3,-1
 306 1288 l 2,4,5
 306 1254 306 1254 277 1237 c 0,6,7
 268 1231 268 1231 253 1220.5 c 128,-1,8
 238 1210 238 1210 221.5 1199.5 c 128,-1,9
 205 1189 205 1189 189 1181.5 c 128,-1,10
 173 1174 173 1174 161 1174 c 0,11,12
 135 1174 135 1174 117.5 1191.5 c 128,-1,13
 100 1209 100 1209 100 1235 c 2,14,-1
 100 1450 l 2,15,16
 100 1471 100 1471 112 1486.5 c 128,-1,17
 124 1502 124 1502 141.5 1513.5 c 128,-1,18
 159 1525 159 1525 178.5 1534 c 128,-1,19
 198 1543 198 1543 212 1552 c 0,20,21
 218 1556 218 1556 227.5 1559 c 128,-1,22
 237 1562 237 1562 245 1562 c 0,0,1
EndSplineSet
EndChar

StartChar: parenleft
Encoding: 40 40 9
Width: 744
Flags: W
LayerCount: 2
Fore
SplineSet
537 1573 m 1,0,-1
 536 1573 l 1,1,2
 545 1576 545 1576 555 1578.5 c 128,-1,3
 565 1581 565 1581 575 1581 c 0,4,5
 598 1581 598 1581 611.5 1562.5 c 128,-1,6
 625 1544 625 1544 625 1523 c 0,7,8
 625 1491 625 1491 599 1474 c 1,9,-1
 600 1475 l 1,10,-1
 306 1335 l 1,11,-1
 306 418 l 2,12,13
 306 395 306 395 316 376 c 128,-1,14
 326 357 326 357 347 346 c 2,15,-1
 611 203 l 2,16,17
 643 185 643 185 643 149 c 0,18,19
 643 133 643 133 635.5 120.5 c 128,-1,20
 628 108 628 108 615 99 c 1,21,-1
 616 99 l 1,22,23
 608 94 608 94 593.5 83.5 c 128,-1,24
 579 73 579 73 562.5 62 c 128,-1,25
 546 51 546 51 530 42.5 c 128,-1,26
 514 34 514 34 503 34 c 0,27,28
 493 34 493 34 465.5 46.5 c 128,-1,29
 438 59 438 59 400.5 79 c 128,-1,30
 363 99 363 99 321 122.5 c 128,-1,31
 279 146 279 146 240.5 168 c 128,-1,32
 202 190 202 190 172 207.5 c 128,-1,33
 142 225 142 225 130 232 c 0,34,35
 100 249 100 249 100 285 c 2,36,-1
 100 1308 l 2,37,38
 100 1341 100 1341 128 1360 c 1,39,-1
 128 1359 l 1,40,-1
 537 1573 l 1,0,-1
EndSplineSet
EndChar

StartChar: parenright
Encoding: 41 41 10
Width: 743
Flags: W
LayerCount: 2
Fore
SplineSet
199 8 m 0,0,1
 188 8 188 8 178.5 14 c 128,-1,2
 169 20 169 20 162 29 c 128,-1,3
 155 38 155 38 150.5 49 c 128,-1,4
 146 60 146 60 146 70 c 0,5,6
 146 101 146 101 173 117 c 2,7,-1
 438 268 l 1,8,-1
 438 1185 l 2,9,10
 438 1207 438 1207 427 1226 c 128,-1,11
 416 1245 416 1245 396 1256 c 2,12,-1
 132 1399 l 2,13,14
 115 1408 115 1408 108 1421.5 c 128,-1,15
 101 1435 101 1435 101 1454 c 0,16,17
 101 1469 101 1469 108.5 1482 c 128,-1,18
 116 1495 116 1495 128 1503 c 1,19,-1
 127 1503 l 1,20,21
 137 1510 137 1510 151 1521 c 128,-1,22
 165 1532 165 1532 180.5 1542 c 128,-1,23
 196 1552 196 1552 211 1559 c 128,-1,24
 226 1566 226 1566 240 1566 c 0,25,26
 248 1566 248 1566 256 1563.5 c 128,-1,27
 264 1561 264 1561 272 1558 c 1,28,-1
 271 1558 l 1,29,30
 357 1512 357 1512 442.5 1466 c 128,-1,31
 528 1420 528 1420 612 1371 c 0,32,33
 643 1354 643 1354 643 1317 c 2,34,-1
 643 294 l 2,35,36
 643 278 643 278 636 264.5 c 128,-1,37
 629 251 629 251 615 243 c 256,38,39
 601 235 601 235 568 214.5 c 128,-1,40
 535 194 535 194 492 168 c 128,-1,41
 449 142 449 142 402 113.5 c 128,-1,42
 355 85 355 85 313 61.5 c 128,-1,43
 271 38 271 38 240 23 c 128,-1,44
 209 8 209 8 199 8 c 0,0,1
EndSplineSet
EndChar

StartChar: asterisk
Encoding: 42 42 11
Width: 1061
Flags: W
LayerCount: 2
Fore
SplineSet
493 767 m 0,0,1
 467 767 467 767 448 784 c 128,-1,2
 429 801 429 801 429 827 c 2,3,-1
 429 1118 l 1,4,-1
 211 979 l 1,5,-1
 211 980 l 1,6,7
 203 975 203 975 194 971.5 c 128,-1,8
 185 968 185 968 175 968 c 0,9,10
 152 968 152 968 138 988.5 c 128,-1,11
 124 1009 124 1009 124 1030 c 0,12,13
 124 1061 124 1061 150 1078 c 2,14,-1
 387 1231 l 1,15,-1
 132 1370 l 2,16,17
 117 1378 117 1378 109 1392 c 128,-1,18
 101 1406 101 1406 101 1423 c 0,19,20
 101 1454 101 1454 128 1473 c 1,21,-1
 127 1473 l 1,22,23
 137 1479 137 1479 150.5 1490 c 128,-1,24
 164 1501 164 1501 179.5 1511.5 c 128,-1,25
 195 1522 195 1522 211 1530 c 128,-1,26
 227 1538 227 1538 241 1538 c 0,27,28
 253 1538 253 1538 280 1525 c 128,-1,29
 307 1512 307 1512 336 1495.5 c 128,-1,30
 365 1479 365 1479 391.5 1463 c 128,-1,31
 418 1447 418 1447 429 1441 c 1,32,33
 429 1459 429 1459 427.5 1496 c 128,-1,34
 426 1533 426 1533 425.5 1573 c 128,-1,35
 425 1613 425 1613 427 1648.5 c 128,-1,36
 429 1684 429 1684 437 1698 c 1,37,38
 449 1708 449 1708 463 1722.5 c 128,-1,39
 477 1737 477 1737 493 1750 c 128,-1,40
 509 1763 509 1763 526.5 1772 c 128,-1,41
 544 1781 544 1781 562 1781 c 0,42,43
 591 1781 591 1781 612.5 1766 c 128,-1,44
 634 1751 634 1751 634 1719 c 2,45,-1
 634 1394 l 1,46,-1
 849 1533 l 1,47,-1
 849 1532 l 1,48,49
 857 1537 857 1537 866.5 1540.5 c 128,-1,50
 876 1544 876 1544 886 1544 c 0,51,52
 898 1544 898 1544 907 1538 c 128,-1,53
 916 1532 916 1532 922.5 1523 c 128,-1,54
 929 1514 929 1514 932.5 1503 c 128,-1,55
 936 1492 936 1492 936 1482 c 0,56,57
 936 1450 936 1450 911 1434 c 2,58,-1
 673 1281 l 1,59,-1
 928 1142 l 2,60,61
 942 1134 942 1134 951 1120 c 128,-1,62
 960 1106 960 1106 960 1089 c 0,63,64
 960 1056 960 1056 932 1039 c 1,65,-1
 933 1039 l 1,66,67
 925 1034 925 1034 910.5 1023 c 128,-1,68
 896 1012 896 1012 880 1001 c 128,-1,69
 864 990 864 990 848 982 c 128,-1,70
 832 974 832 974 820 974 c 0,71,72
 804 974 804 974 778 986 c 128,-1,73
 752 998 752 998 724.5 1014 c 128,-1,74
 697 1030 697 1030 672 1045.5 c 128,-1,75
 647 1061 647 1061 634 1069 c 1,76,77
 634 1020 634 1020 636 989.5 c 128,-1,78
 638 959 638 959 639 939 c 128,-1,79
 640 919 640 919 638 906 c 128,-1,80
 636 893 636 893 628 879.5 c 128,-1,81
 620 866 620 866 604 849 c 128,-1,82
 588 832 588 832 561 803 c 0,83,84
 547 789 547 789 530 778 c 128,-1,85
 513 767 513 767 493 767 c 0,0,1
EndSplineSet
EndChar

StartChar: plus
Encoding: 43 43 12
Width: 1268
Flags: W
LayerCount: 2
Fore
SplineSet
736 694 m 1,0,1
 736 622 736 622 738 579.5 c 128,-1,2
 740 537 740 537 741 510 c 128,-1,3
 742 483 742 483 739 465.5 c 128,-1,4
 736 448 736 448 725.5 427 c 128,-1,5
 715 406 715 406 695.5 375.5 c 128,-1,6
 676 345 676 345 643 292 c 1,7,-1
 644 292 l 1,8,9
 636 278 636 278 623.5 270 c 128,-1,10
 611 262 611 262 594 262 c 0,11,12
 568 262 568 262 549.5 279 c 128,-1,13
 531 296 531 296 531 323 c 2,14,-1
 531 694 l 1,15,-1
 161 694 l 2,16,17
 134 694 134 694 117.5 712.5 c 128,-1,18
 101 731 101 731 101 757 c 0,19,20
 101 789 101 789 129 806 c 1,21,-1
 129 805 l 1,22,23
 182 837 182 837 213 857 c 128,-1,24
 244 877 244 877 265 887 c 128,-1,25
 286 897 286 897 303.5 900 c 128,-1,26
 321 903 321 903 347.5 902.5 c 128,-1,27
 374 902 374 902 417 900 c 128,-1,28
 460 898 460 898 531 898 c 1,29,30
 531 972 531 972 529.5 1017.5 c 128,-1,31
 528 1063 528 1063 528.5 1091.5 c 128,-1,32
 529 1120 529 1120 532.5 1138 c 128,-1,33
 536 1156 536 1156 546.5 1176 c 128,-1,34
 557 1196 557 1196 576 1224 c 128,-1,35
 595 1252 595 1252 625 1301 c 1,36,-1
 624 1301 l 1,37,38
 632 1314 632 1314 644 1322 c 128,-1,39
 656 1330 656 1330 671 1330 c 0,40,41
 697 1330 697 1330 716.5 1313.5 c 128,-1,42
 736 1297 736 1297 736 1270 c 2,43,-1
 736 898 l 1,44,-1
 1108 898 l 2,45,46
 1135 898 1135 898 1151 879 c 128,-1,47
 1167 860 1167 860 1167 834 c 0,48,49
 1167 803 1167 803 1139 786 c 1,50,-1
 1139 787 l 1,51,52
 1085 754 1085 754 1054.5 734.5 c 128,-1,53
 1024 715 1024 715 1003.5 704.5 c 128,-1,54
 983 694 983 694 965.5 691 c 128,-1,55
 948 688 948 688 921 688.5 c 128,-1,56
 894 689 894 689 851 691.5 c 128,-1,57
 808 694 808 694 736 694 c 1,0,1
EndSplineSet
EndChar

StartChar: comma
Encoding: 44 44 13
Width: 546
Flags: W
LayerCount: 2
Fore
SplineSet
240 -8 m 1,0,-1
 240 166 l 2,1,2
 240 183 240 183 248 196.5 c 128,-1,3
 256 210 256 210 270 219 c 1,4,-1
 269 219 l 1,5,-1
 353 271 l 1,6,-1
 353 270 l 1,7,8
 360 274 360 274 368 277 c 128,-1,9
 376 280 376 280 384 280 c 256,10,11
 392 280 392 280 399.5 277.5 c 128,-1,12
 407 275 407 275 415 271 c 1,13,-1
 414 271 l 1,14,15
 446 256 446 256 446 219 c 2,16,-1
 446 16 l 2,17,18
 446 -16 446 -16 417 -34 c 0,19,20
 408 -40 408 -40 388 -53 c 128,-1,21
 368 -66 368 -66 342.5 -83 c 128,-1,22
 317 -100 317 -100 288 -118.5 c 128,-1,23
 259 -137 259 -137 233 -152 c 128,-1,24
 207 -167 207 -167 186.5 -177 c 128,-1,25
 166 -187 166 -187 156 -187 c 0,26,27
 141 -187 141 -187 127 -179.5 c 128,-1,28
 113 -172 113 -172 105 -159 c 1,29,-1
 106 -159 l 1,30,31
 101 -150 101 -150 99 -141 c 128,-1,32
 97 -132 97 -132 97 -122 c 0,33,34
 97 -106 97 -106 116.5 -87.5 c 128,-1,35
 136 -69 136 -69 161 -53 c 128,-1,36
 186 -37 186 -37 209.5 -25 c 128,-1,37
 233 -13 233 -13 240 -8 c 1,0,-1
EndSplineSet
EndChar

StartChar: hyphen
Encoding: 45 45 14
Width: 1268
Flags: W
LayerCount: 2
Fore
SplineSet
970 694 m 2,0,-1
 161 694 l 2,1,2
 134 694 134 694 117.5 712.5 c 128,-1,3
 101 731 101 731 101 757 c 0,4,5
 101 789 101 789 129 806 c 1,6,-1
 129 805 l 1,7,8
 142 813 142 813 164 828.5 c 128,-1,9
 186 844 186 844 210.5 859.5 c 128,-1,10
 235 875 235 875 259 886.5 c 128,-1,11
 283 898 283 898 299 898 c 2,12,-1
 1108 898 l 2,13,14
 1135 898 1135 898 1151 879 c 128,-1,15
 1167 860 1167 860 1167 834 c 0,16,17
 1167 803 1167 803 1139 786 c 1,18,-1
 1139 787 l 1,19,20
 1125 779 1125 779 1103.5 763.5 c 128,-1,21
 1082 748 1082 748 1057.5 732.5 c 128,-1,22
 1033 717 1033 717 1009.5 705.5 c 128,-1,23
 986 694 986 694 970 694 c 2,0,-1
EndSplineSet
EndChar

StartChar: period
Encoding: 46 46 15
Width: 502
Flags: W
LayerCount: 2
Fore
SplineSet
402 123 m 0,0,1
 402 91 402 91 376 73 c 0,2,3
 367 67 367 67 351.5 54.5 c 128,-1,4
 336 42 336 42 318 30 c 128,-1,5
 300 18 300 18 282 8.5 c 128,-1,6
 264 -1 264 -1 251 -1 c 256,7,8
 238 -1 238 -1 220.5 8 c 128,-1,9
 203 17 203 17 185 29.5 c 128,-1,10
 167 42 167 42 151.5 54.5 c 128,-1,11
 136 67 136 67 127 73 c 0,12,13
 100 91 100 91 100 123 c 0,14,15
 100 138 100 138 108 151.5 c 128,-1,16
 116 165 116 165 128 173 c 0,17,18
 137 179 137 179 152.5 191.5 c 128,-1,19
 168 204 168 204 185.5 216 c 128,-1,20
 203 228 203 228 220 237 c 128,-1,21
 237 246 237 246 251 246 c 0,22,23
 270 246 270 246 287 235 c 1,24,-1
 286 235 l 1,25,26
 299 226 299 226 319 215 c 128,-1,27
 339 204 339 204 357.5 190.5 c 128,-1,28
 376 177 376 177 389 160.5 c 128,-1,29
 402 144 402 144 402 123 c 0,0,1
EndSplineSet
EndChar

StartChar: slash
Encoding: 47 47 16
Width: 1230
Flags: W
LayerCount: 2
Fore
SplineSet
1041 1539 m 1,0,-1
 1040 1539 l 1,1,2
 1048 1542 1048 1542 1055.5 1545 c 128,-1,3
 1063 1548 1063 1548 1071 1548 c 0,4,5
 1093 1548 1093 1548 1111.5 1528.5 c 128,-1,6
 1130 1509 1130 1509 1130 1487 c 0,7,8
 1130 1479 1130 1479 1127.5 1471 c 128,-1,9
 1125 1463 1125 1463 1121 1456 c 2,10,-1
 352 104 l 2,11,12
 348 96 348 96 334 85.5 c 128,-1,13
 320 75 320 75 301 63.5 c 128,-1,14
 282 52 282 52 260 40.5 c 128,-1,15
 238 29 238 29 218 20 c 128,-1,16
 198 11 198 11 182.5 5.5 c 128,-1,17
 167 0 167 0 160 0 c 0,18,19
 137 0 137 0 118.5 18.5 c 128,-1,20
 100 37 100 37 100 60 c 0,21,22
 100 69 100 69 102.5 76.5 c 128,-1,23
 105 84 105 84 110 92 c 2,24,-1
 878 1444 l 2,25,26
 886 1459 886 1459 901 1467 c 1,27,-1
 902 1467 l 1,28,-1
 1041 1539 l 1,0,-1
EndSplineSet
EndChar

StartChar: zero
Encoding: 48 48 17
Width: 1198
Flags: W
LayerCount: 2
Fore
SplineSet
652 1573 m 1,0,1
 756 1511 756 1511 859.5 1452 c 128,-1,2
 963 1393 963 1393 1068 1333 c 0,3,4
 1098 1316 1098 1316 1098 1281 c 2,5,-1
 1098 318 l 2,6,7
 1098 283 1098 283 1066 265 c 0,8,9
 1050 256 1050 256 1010.5 233 c 128,-1,10
 971 210 971 210 920 181 c 128,-1,11
 869 152 869 152 813 120 c 128,-1,12
 757 88 757 88 707.5 61.5 c 128,-1,13
 658 35 658 35 622 18 c 128,-1,14
 586 1 586 1 575 1 c 0,15,16
 560 1 560 1 546 9 c 2,17,-1
 167 228 l 2,18,19
 155 235 155 235 143 241.5 c 128,-1,20
 131 248 131 248 121.5 255.5 c 128,-1,21
 112 263 112 263 106 274 c 128,-1,22
 100 285 100 285 100 301 c 2,23,-1
 100 1264 l 2,24,25
 100 1281 100 1281 109 1294.5 c 128,-1,26
 118 1308 118 1308 132 1316 c 0,27,28
 147 1324 147 1324 186.5 1347 c 128,-1,29
 226 1370 226 1370 277.5 1399.5 c 128,-1,30
 329 1429 329 1429 386 1461 c 128,-1,31
 443 1493 443 1493 492.5 1519.5 c 128,-1,32
 542 1546 542 1546 578 1563.5 c 128,-1,33
 614 1581 614 1581 623 1581 c 0,34,35
 631 1581 631 1581 638 1578.5 c 128,-1,36
 645 1576 645 1576 653 1573 c 1,37,-1
 652 1573 l 1,0,1
314 1275 m 1,38,-1
 313 435 l 2,39,40
 313 388 313 388 354 365 c 2,41,-1
 667 184 l 1,42,-1
 885 307 l 1,43,-1
 886 1146 l 2,44,45
 886 1194 886 1194 846 1216 c 2,46,-1
 533 1396 l 1,47,-1
 314 1275 l 1,38,-1
EndSplineSet
EndChar

StartChar: one
Encoding: 49 49 18
Width: 816
Flags: W
LayerCount: 2
Fore
SplineSet
716 119 m 2,0,1
 716 85 716 85 687 68 c 0,2,3
 678 63 678 63 662 52 c 128,-1,4
 646 41 646 41 628.5 30.5 c 128,-1,5
 611 20 611 20 593.5 12 c 128,-1,6
 576 4 576 4 564 4 c 0,7,8
 538 4 538 4 521.5 23 c 128,-1,9
 505 42 505 42 505 66 c 2,10,-1
 505 1367 l 1,11,12
 493 1360 493 1360 465.5 1344 c 128,-1,13
 438 1328 438 1328 403.5 1308 c 128,-1,14
 369 1288 369 1288 331 1266.5 c 128,-1,15
 293 1245 293 1245 259 1227.5 c 128,-1,16
 225 1210 225 1210 199 1198.5 c 128,-1,17
 173 1187 173 1187 163 1187 c 0,18,19
 152 1187 152 1187 141 1192.5 c 128,-1,20
 130 1198 130 1198 121 1206.5 c 128,-1,21
 112 1215 112 1215 106.5 1226 c 128,-1,22
 101 1237 101 1237 101 1248 c 0,23,24
 101 1265 101 1265 109 1281 c 128,-1,25
 117 1297 117 1297 133 1305 c 0,26,27
 148 1313 148 1313 190 1337.5 c 128,-1,28
 232 1362 232 1362 287 1393 c 128,-1,29
 342 1424 342 1424 402.5 1458 c 128,-1,30
 463 1492 463 1492 516 1520.5 c 128,-1,31
 569 1549 569 1549 607 1567.5 c 128,-1,32
 645 1586 645 1586 655 1586 c 0,33,34
 681 1586 681 1586 698.5 1568 c 128,-1,35
 716 1550 716 1550 716 1525 c 2,36,-1
 716 119 l 2,0,1
EndSplineSet
EndChar

StartChar: two
Encoding: 50 50 19
Width: 1287
Flags: W
LayerCount: 2
Fore
SplineSet
1046 1 m 2,0,-1
 162 1 l 2,1,2
 141 1 141 1 126 11 c 128,-1,3
 111 21 111 21 104 41 c 1,4,-1
 105 41 l 1,5,6
 103 46 103 46 102 52 c 128,-1,7
 101 58 101 58 101 63 c 0,8,9
 101 77 101 77 107 88 c 128,-1,10
 113 99 113 99 123 107 c 2,11,-1
 921 792 l 1,12,-1
 921 1116 l 2,13,14
 921 1138 921 1138 911 1157 c 128,-1,15
 901 1176 901 1176 881 1187 c 2,16,-1
 537 1384 l 1,17,18
 526 1378 526 1378 498 1362 c 128,-1,19
 470 1346 470 1346 434.5 1325.5 c 128,-1,20
 399 1305 399 1305 359.5 1283 c 128,-1,21
 320 1261 320 1261 285.5 1242.5 c 128,-1,22
 251 1224 251 1224 225 1212 c 128,-1,23
 199 1200 199 1200 191 1200 c 0,24,25
 180 1200 180 1200 169 1206 c 128,-1,26
 158 1212 158 1212 149 1221.5 c 128,-1,27
 140 1231 140 1231 134.5 1242.5 c 128,-1,28
 129 1254 129 1254 129 1265 c 0,29,30
 129 1282 129 1282 138 1296 c 128,-1,31
 147 1310 147 1310 162 1318 c 0,32,33
 176 1326 176 1326 213.5 1347.5 c 128,-1,34
 251 1369 251 1369 299.5 1396.5 c 128,-1,35
 348 1424 348 1424 402 1454.5 c 128,-1,36
 456 1485 456 1485 502.5 1510 c 128,-1,37
 549 1535 549 1535 583 1551 c 128,-1,38
 617 1567 617 1567 627 1567 c 0,39,40
 635 1567 635 1567 643 1564.5 c 128,-1,41
 651 1562 651 1562 659 1559 c 1,42,-1
 658 1559 l 1,43,44
 770 1493 770 1493 880.5 1429 c 128,-1,45
 991 1365 991 1365 1103 1302 c 0,46,47
 1134 1285 1134 1285 1134 1251 c 2,48,-1
 1134 832 l 2,49,50
 1134 817 1134 817 1128 806.5 c 128,-1,51
 1122 796 1122 796 1111 787 c 0,52,53
 1059 745 1059 745 1007 703 c 128,-1,54
 955 661 955 661 904 617 c 0,55,56
 789 517 789 517 677.5 416 c 128,-1,57
 566 315 566 315 452 213 c 1,58,-1
 1127 213 l 2,59,60
 1166 213 1166 213 1182 177 c 1,61,-1
 1182 178 l 1,62,63
 1184 171 1184 171 1185.5 164.5 c 128,-1,64
 1187 158 1187 158 1187 151 c 0,65,66
 1187 139 1187 139 1183 130 c 128,-1,67
 1179 121 1179 121 1171 112 c 0,68,69
 1162 101 1162 101 1148 82.5 c 128,-1,70
 1134 64 1134 64 1117.5 46 c 128,-1,71
 1101 28 1101 28 1082.5 14.5 c 128,-1,72
 1064 1 1064 1 1046 1 c 2,0,-1
EndSplineSet
EndChar

StartChar: three
Encoding: 51 51 20
Width: 1232
Flags: W
LayerCount: 2
Fore
SplineSet
731 1125 m 1,0,-1
 1102 911 l 2,1,2
 1132 894 1132 894 1132 860 c 2,3,-1
 1132 315 l 2,4,5
 1132 280 1132 280 1101 262 c 0,6,7
 1086 254 1086 254 1047.5 231.5 c 128,-1,8
 1009 209 1009 209 958 180 c 128,-1,9
 907 151 907 151 851.5 119.5 c 128,-1,10
 796 88 796 88 747 61.5 c 128,-1,11
 698 35 698 35 662.5 18 c 128,-1,12
 627 1 627 1 618 1 c 0,13,14
 607 1 607 1 572 18.5 c 128,-1,15
 537 36 537 36 488.5 63 c 128,-1,16
 440 90 440 90 385 122 c 128,-1,17
 330 154 330 154 280 184 c 128,-1,18
 230 214 230 214 191.5 237 c 128,-1,19
 153 260 153 260 138 269 c 0,20,21
 122 278 122 278 114.5 290 c 128,-1,22
 107 302 107 302 107 321 c 0,23,24
 107 338 107 338 116 351.5 c 128,-1,25
 125 365 125 365 139 374 c 0,26,27
 146 379 146 379 163.5 389 c 128,-1,28
 181 399 181 399 200 408.5 c 128,-1,29
 219 418 219 418 236 425.5 c 128,-1,30
 253 433 253 433 260 433 c 0,31,32
 271 433 271 433 304 417 c 128,-1,33
 337 401 337 401 382 376.5 c 128,-1,34
 427 352 427 352 477.5 322 c 128,-1,35
 528 292 528 292 574 264.5 c 128,-1,36
 620 237 620 237 655.5 215 c 128,-1,37
 691 193 691 193 706 185 c 1,38,-1
 919 304 l 1,39,-1
 919 725 l 2,40,41
 919 747 919 747 909 766 c 128,-1,42
 899 785 899 785 879 796 c 2,43,-1
 583 966 l 2,44,45
 570 973 570 973 555.5 980.5 c 128,-1,46
 541 988 541 988 529 997 c 128,-1,47
 517 1006 517 1006 509 1018 c 128,-1,48
 501 1030 501 1030 501 1048 c 0,49,50
 501 1072 501 1072 519 1090 c 2,51,-1
 790 1361 l 1,52,-1
 161 1361 l 2,53,54
 141 1361 141 1361 125.5 1370.5 c 128,-1,55
 110 1380 110 1380 103 1400 c 1,56,-1
 104 1400 l 1,57,58
 102 1405 102 1405 101 1411 c 128,-1,59
 100 1417 100 1417 100 1422 c 0,60,61
 100 1450 100 1450 123 1468 c 0,62,63
 133 1476 133 1476 152 1493.5 c 128,-1,64
 171 1511 171 1511 192.5 1529 c 128,-1,65
 214 1547 214 1547 236 1560.5 c 128,-1,66
 258 1574 258 1574 273 1574 c 2,67,-1
 1032 1574 l 2,68,69
 1052 1574 1052 1574 1066 1563.5 c 128,-1,70
 1080 1553 1080 1553 1088 1536 c 1,71,-1
 1088 1537 l 1,72,73
 1090 1530 1090 1530 1091.5 1523.5 c 128,-1,74
 1093 1517 1093 1517 1093 1510 c 0,75,76
 1093 1488 1093 1488 1075 1470 c 2,77,-1
 731 1125 l 1,0,-1
EndSplineSet
EndChar

StartChar: four
Encoding: 52 52 21
Width: 1374
Flags: W
LayerCount: 2
Fore
SplineSet
343 649 m 1,0,-1
 817 649 l 1,1,-1
 817 908 l 2,2,3
 817 941 817 941 845 960 c 1,4,-1
 844 960 l 1,5,6
 855 967 855 967 870 978.5 c 128,-1,7
 885 990 885 990 902 1001.5 c 128,-1,8
 919 1013 919 1013 936 1021 c 128,-1,9
 953 1029 953 1029 968 1029 c 0,10,11
 976 1029 976 1029 983 1026.5 c 128,-1,12
 990 1024 990 1024 998 1021 c 1,13,-1
 997 1021 l 1,14,15
 1029 1003 1029 1003 1029 968 c 2,16,-1
 1029 649 l 1,17,-1
 1213 649 l 2,18,19
 1239 649 1239 649 1256.5 630.5 c 128,-1,20
 1274 612 1274 612 1274 586 c 0,21,22
 1274 575 1274 575 1269 566 c 128,-1,23
 1264 557 1264 557 1257 549 c 0,24,25
 1229 517 1229 517 1212.5 496 c 128,-1,26
 1196 475 1196 475 1184.5 462.5 c 128,-1,27
 1173 450 1173 450 1162.5 444 c 128,-1,28
 1152 438 1152 438 1136 436.5 c 128,-1,29
 1120 435 1120 435 1095 435.5 c 128,-1,30
 1070 436 1070 436 1029 436 c 1,31,-1
 1029 114 l 2,32,33
 1029 93 1029 93 1015.5 77 c 128,-1,34
 1002 61 1002 61 982.5 48.5 c 128,-1,35
 963 36 963 36 942.5 26.5 c 128,-1,36
 922 17 922 17 908 9 c 0,37,38
 891 -1 891 -1 876 -1 c 0,39,40
 850 -1 850 -1 833.5 18 c 128,-1,41
 817 37 817 37 817 61 c 2,42,-1
 817 436 l 1,43,-1
 162 436 l 2,44,45
 139 436 139 436 119.5 454.5 c 128,-1,46
 100 473 100 473 100 497 c 0,47,48
 100 514 100 514 112 531 c 2,49,-1
 811 1561 l 2,50,51
 819 1573 819 1573 830.5 1581 c 128,-1,52
 842 1589 842 1589 857 1589 c 0,53,54
 877 1589 877 1589 896 1578 c 128,-1,55
 915 1567 915 1567 923 1547 c 1,56,-1
 922 1547 l 1,57,58
 925 1535 925 1535 925 1524 c 0,59,60
 925 1506 925 1506 916 1493 c 2,61,-1
 343 649 l 1,0,-1
EndSplineSet
EndChar

StartChar: five
Encoding: 53 53 22
Width: 1193
Flags: W
LayerCount: 2
Fore
SplineSet
246 430 m 0,0,1
 256 430 256 430 288.5 414 c 128,-1,2
 321 398 321 398 365.5 373 c 128,-1,3
 410 348 410 348 460.5 318.5 c 128,-1,4
 511 289 511 289 557 261.5 c 128,-1,5
 603 234 603 234 638.5 212.5 c 128,-1,6
 674 191 674 191 688 183 c 1,7,-1
 879 290 l 1,8,-1
 879 691 l 2,9,10
 879 713 879 713 868.5 731 c 128,-1,11
 858 749 858 749 839 760 c 2,12,-1
 536 936 l 1,13,14
 451 889 451 889 368 842 c 128,-1,15
 285 795 285 795 200 748 c 1,16,-1
 201 748 l 1,17,18
 193 745 193 745 185 742.5 c 128,-1,19
 177 740 177 740 169 740 c 0,20,21
 143 740 143 740 126.5 757.5 c 128,-1,22
 110 775 110 775 110 801 c 2,23,-1
 110 1285 l 2,24,25
 110 1302 110 1302 118 1316 c 128,-1,26
 126 1330 126 1330 141 1338 c 0,27,28
 155 1345 155 1345 190.5 1365.5 c 128,-1,29
 226 1386 226 1386 271.5 1412.5 c 128,-1,30
 317 1439 317 1439 368 1467.5 c 128,-1,31
 419 1496 419 1496 463.5 1519.5 c 128,-1,32
 508 1543 508 1543 540.5 1558.5 c 128,-1,33
 573 1574 573 1574 582 1574 c 2,34,-1
 1031 1574 l 2,35,36
 1059 1574 1059 1574 1076 1556 c 128,-1,37
 1093 1538 1093 1538 1093 1510 c 0,38,39
 1093 1496 1093 1496 1086 1484.5 c 128,-1,40
 1079 1473 1079 1473 1068 1465 c 256,41,42
 1057 1457 1057 1457 1037 1439.5 c 128,-1,43
 1017 1422 1017 1422 994.5 1404.5 c 128,-1,44
 972 1387 972 1387 949.5 1374 c 128,-1,45
 927 1361 927 1361 912 1361 c 2,46,-1
 440 1361 l 1,47,-1
 322 1295 l 1,48,-1
 322 959 l 1,49,50
 333 965 333 965 357.5 979.5 c 128,-1,51
 382 994 382 994 412.5 1011.5 c 128,-1,52
 443 1029 443 1029 476.5 1048 c 128,-1,53
 510 1067 510 1067 540 1083 c 128,-1,54
 570 1099 570 1099 593 1109 c 128,-1,55
 616 1119 616 1119 626 1119 c 0,56,57
 634 1119 634 1119 641.5 1116.5 c 128,-1,58
 649 1114 649 1114 657 1111 c 1,59,-1
 655 1111 l 1,60,-1
 1061 877 l 2,61,62
 1091 860 1091 860 1091 825 c 2,63,-1
 1091 300 l 2,64,65
 1091 265 1091 265 1061 248 c 0,66,67
 1046 240 1046 240 1009 218.5 c 128,-1,68
 972 197 972 197 924 169.5 c 128,-1,69
 876 142 876 142 822.5 111.5 c 128,-1,70
 769 81 769 81 722.5 56 c 128,-1,71
 676 31 676 31 642 15 c 128,-1,72
 608 -1 608 -1 599 -1 c 0,73,74
 589 -1 589 -1 554.5 16 c 128,-1,75
 520 33 520 33 472.5 59 c 128,-1,76
 425 85 425 85 371.5 116.5 c 128,-1,77
 318 148 318 148 269.5 176.5 c 128,-1,78
 221 205 221 205 183.5 228 c 128,-1,79
 146 251 146 251 131 259 c 0,80,81
 101 276 101 276 101 313 c 0,82,83
 101 328 101 328 108.5 340.5 c 128,-1,84
 116 353 116 353 128 361 c 1,85,-1
 127 361 l 1,86,87
 135 366 135 366 150.5 377.5 c 128,-1,88
 166 389 166 389 183.5 400.5 c 128,-1,89
 201 412 201 412 218 421 c 128,-1,90
 235 430 235 430 246 430 c 0,0,1
EndSplineSet
EndChar

StartChar: six
Encoding: 54 54 23
Width: 1197
Flags: W
LayerCount: 2
Fore
SplineSet
1080 1303 m 0,0,1
 1080 1269 1080 1269 1049 1251 c 0,2,3
 1042 1247 1042 1247 1026 1236.5 c 128,-1,4
 1010 1226 1010 1226 991 1215.5 c 128,-1,5
 972 1205 972 1205 954.5 1197 c 128,-1,6
 937 1189 937 1189 927 1189 c 256,7,8
 917 1189 917 1189 889 1202.5 c 128,-1,9
 861 1216 861 1216 823.5 1236.5 c 128,-1,10
 786 1257 786 1257 743.5 1281.5 c 128,-1,11
 701 1306 701 1306 663 1329 c 128,-1,12
 625 1352 625 1352 595 1370.5 c 128,-1,13
 565 1389 565 1389 552 1396 c 1,14,-1
 312 1263 l 1,15,-1
 312 969 l 1,16,17
 322 975 322 975 346.5 989 c 128,-1,18
 371 1003 371 1003 402 1021 c 128,-1,19
 433 1039 433 1039 467.5 1058.5 c 128,-1,20
 502 1078 502 1078 532.5 1094 c 128,-1,21
 563 1110 563 1110 586 1120.5 c 128,-1,22
 609 1131 609 1131 618 1131 c 0,23,24
 626 1131 626 1131 633.5 1128.5 c 128,-1,25
 641 1126 641 1126 649 1122 c 1,26,-1
 648 1122 l 1,27,-1
 1066 881 l 2,28,29
 1096 864 1096 864 1096 829 c 2,30,-1
 1097 322 l 2,31,32
 1097 287 1097 287 1066 269 c 0,33,34
 1051 261 1051 261 1011.5 238 c 128,-1,35
 972 215 972 215 921 185.5 c 128,-1,36
 870 156 870 156 813 124 c 128,-1,37
 756 92 756 92 706.5 65.5 c 128,-1,38
 657 39 657 39 621 21.5 c 128,-1,39
 585 4 585 4 575 4 c 256,40,41
 565 4 565 4 532.5 20.5 c 128,-1,42
 500 37 500 37 455 62 c 128,-1,43
 410 87 410 87 359 117 c 128,-1,44
 308 147 308 147 261.5 174.5 c 128,-1,45
 215 202 215 202 179.5 223.5 c 128,-1,46
 144 245 144 245 130 253 c 0,47,48
 100 271 100 271 100 305 c 2,49,-1
 100 1252 l 2,50,51
 100 1269 100 1269 108.5 1282.5 c 128,-1,52
 117 1296 117 1296 131 1304 c 0,53,54
 146 1312 146 1312 187 1336 c 128,-1,55
 228 1360 228 1360 281.5 1391 c 128,-1,56
 335 1422 335 1422 394 1455.5 c 128,-1,57
 453 1489 453 1489 504.5 1517 c 128,-1,58
 556 1545 556 1545 593.5 1563 c 128,-1,59
 631 1581 631 1581 641 1581 c 0,60,61
 658 1581 658 1581 673 1572 c 2,62,-1
 1049 1355 l 2,63,64
 1063 1347 1063 1347 1071.5 1333.5 c 128,-1,65
 1080 1320 1080 1320 1080 1303 c 0,0,1
312 826 m 1,66,-1
 312 439 l 2,67,68
 312 394 312 394 353 370 c 2,69,-1
 666 189 l 1,70,-1
 884 311 l 1,71,-1
 884 695 l 2,72,73
 884 717 884 717 873.5 736 c 128,-1,74
 863 755 863 755 844 766 c 2,75,-1
 529 947 l 1,76,-1
 312 826 l 1,66,-1
EndSplineSet
EndChar

StartChar: seven
Encoding: 55 55 24
Width: 1185
Flags: W
LayerCount: 2
Fore
SplineSet
855 1361 m 1,0,-1
 161 1361 l 2,1,2
 118 1361 118 1361 103 1400 c 1,3,-1
 104 1400 l 1,4,5
 102 1405 102 1405 101 1411 c 128,-1,6
 100 1417 100 1417 100 1422 c 0,7,8
 100 1450 100 1450 123 1468 c 0,9,10
 133 1476 133 1476 151.5 1493.5 c 128,-1,11
 170 1511 170 1511 191.5 1529 c 128,-1,12
 213 1547 213 1547 235 1560.5 c 128,-1,13
 257 1574 257 1574 274 1574 c 2,14,-1
 1007 1574 l 2,15,16
 1066 1574 1066 1574 1066 1513 c 2,17,-1
 1066 1204 l 2,18,19
 1066 1194 1066 1194 1055.5 1170.5 c 128,-1,20
 1045 1147 1045 1147 1029 1116.5 c 128,-1,21
 1013 1086 1013 1086 993.5 1052.5 c 128,-1,22
 974 1019 974 1019 956 988.5 c 128,-1,23
 938 958 938 958 923 933.5 c 128,-1,24
 908 909 908 909 902 898 c 1,25,26
 922 898 922 898 953 901 c 128,-1,27
 984 904 984 904 1013.5 900.5 c 128,-1,28
 1043 897 1043 897 1064 882.5 c 128,-1,29
 1085 868 1085 868 1085 834 c 0,30,31
 1085 802 1085 802 1056 786 c 1,32,-1
 1056 787 l 1,33,34
 1015 762 1015 762 990.5 745.5 c 128,-1,35
 966 729 966 729 950 718.5 c 128,-1,36
 934 708 934 708 921.5 703 c 128,-1,37
 909 698 909 698 892.5 696 c 128,-1,38
 876 694 876 694 851 694 c 128,-1,39
 826 694 826 694 785 694 c 1,40,-1
 462 117 l 2,41,42
 458 109 458 109 443 98 c 128,-1,43
 428 87 428 87 407 75 c 128,-1,44
 386 63 386 63 362.5 51 c 128,-1,45
 339 39 339 39 317.5 29 c 128,-1,46
 296 19 296 19 279 13 c 128,-1,47
 262 7 262 7 255 7 c 0,48,49
 232 7 232 7 214.5 26.5 c 128,-1,50
 197 46 197 46 197 68 c 0,51,52
 197 76 197 76 199.5 84 c 128,-1,53
 202 92 202 92 206 99 c 2,54,-1
 539 694 l 1,55,-1
 415 694 l 2,56,57
 388 694 388 694 371.5 712.5 c 128,-1,58
 355 731 355 731 355 757 c 0,59,60
 355 773 355 773 363 785.5 c 128,-1,61
 371 798 371 798 384 806 c 1,62,-1
 384 805 l 1,63,64
 426 830 426 830 450.5 847 c 128,-1,65
 475 864 475 864 491 874.5 c 128,-1,66
 507 885 507 885 519 890 c 128,-1,67
 531 895 531 895 547.5 896.5 c 128,-1,68
 564 898 564 898 589.5 898 c 128,-1,69
 615 898 615 898 657 898 c 1,70,-1
 855 1244 l 1,71,-1
 855 1361 l 1,0,-1
EndSplineSet
EndChar

StartChar: eight
Encoding: 56 56 25
Width: 1197
Flags: W
LayerCount: 2
Fore
SplineSet
651 1582 m 1,0,1
 755 1520 755 1520 858.5 1461 c 128,-1,2
 962 1402 962 1402 1067 1342 c 0,3,4
 1097 1325 1097 1325 1097 1290 c 2,5,-1
 1097 1113 l 2,6,7
 1097 1078 1097 1078 1066 1060 c 2,8,-1
 770 890 l 1,9,10
 809 867 809 867 847.5 844.5 c 128,-1,11
 886 822 886 822 925 799 c 0,12,13
 960 779 960 779 996 759 c 128,-1,14
 1032 739 1032 739 1067 719 c 0,15,16
 1097 702 1097 702 1097 666 c 2,17,-1
 1095 332 l 2,18,19
 1095 313 1095 313 1089 297.5 c 128,-1,20
 1083 282 1083 282 1066 272 c 0,21,22
 1051 263 1051 263 1011.5 240.5 c 128,-1,23
 972 218 972 218 920.5 188.5 c 128,-1,24
 869 159 869 159 812.5 127 c 128,-1,25
 756 95 756 95 706.5 68.5 c 128,-1,26
 657 42 657 42 621 25 c 128,-1,27
 585 8 585 8 575 8 c 0,28,29
 559 8 559 8 545 16 c 2,30,-1
 166 235 l 2,31,32
 154 242 154 242 142 248.5 c 128,-1,33
 130 255 130 255 120.5 262.5 c 128,-1,34
 111 270 111 270 105.5 281 c 128,-1,35
 100 292 100 292 100 308 c 2,36,-1
 100 635 l 2,37,38
 100 652 100 652 108.5 666 c 128,-1,39
 117 680 117 680 131 688 c 2,40,-1
 416 848 l 1,41,42
 344 888 344 888 273 929.5 c 128,-1,43
 202 971 202 971 130 1013 c 0,44,45
 100 1031 100 1031 100 1064 c 2,46,-1
 100 1273 l 2,47,48
 100 1290 100 1290 108.5 1303.5 c 128,-1,49
 117 1317 117 1317 131 1325 c 0,50,51
 146 1333 146 1333 185.5 1356 c 128,-1,52
 225 1379 225 1379 276.5 1408.5 c 128,-1,53
 328 1438 328 1438 385 1470 c 128,-1,54
 442 1502 442 1502 491.5 1528.5 c 128,-1,55
 541 1555 541 1555 577 1572.5 c 128,-1,56
 613 1590 613 1590 622 1590 c 0,57,58
 630 1590 630 1590 637 1587.5 c 128,-1,59
 644 1585 644 1585 652 1582 c 1,60,-1
 651 1582 l 1,0,1
313 646 m 1,61,-1
 312 442 l 2,62,63
 312 396 312 396 353 372 c 2,64,-1
 666 191 l 1,65,-1
 884 314 l 1,66,-1
 885 508 l 2,67,68
 885 534 885 534 877 560.5 c 128,-1,69
 869 587 869 587 845 602 c 0,70,71
 772 649 772 649 694.5 690 c 128,-1,72
 617 731 617 731 542 776 c 1,73,-1
 313 646 l 1,61,-1
884 1102 m 1,74,-1
 885 1202 l 1,75,-1
 532 1406 l 1,76,-1
 314 1285 l 1,77,78
 313 1263 313 1263 312.5 1242 c 128,-1,79
 312 1221 312 1221 312 1199 c 0,80,81
 312 1174 312 1174 322.5 1157.5 c 128,-1,82
 333 1141 333 1141 353 1128 c 0,83,84
 422 1083 422 1083 496 1043 c 128,-1,85
 570 1003 570 1003 643 963 c 1,86,-1
 884 1102 l 1,74,-1
EndSplineSet
EndChar

StartChar: nine
Encoding: 57 57 26
Width: 1197
Flags: W
LayerCount: 2
Fore
SplineSet
118 284 m 0,0,1
 118 319 118 319 148 336 c 0,2,3
 157 341 157 341 172.5 351.5 c 128,-1,4
 188 362 188 362 205.5 372 c 128,-1,5
 223 382 223 382 240 389.5 c 128,-1,6
 257 397 257 397 269 397 c 0,7,8
 279 397 279 397 307.5 383.5 c 128,-1,9
 336 370 336 370 373.5 350 c 128,-1,10
 411 330 411 330 453 305 c 128,-1,11
 495 280 495 280 533.5 257 c 128,-1,12
 572 234 572 234 601.5 215.5 c 128,-1,13
 631 197 631 197 644 190 c 1,14,-1
 885 325 l 1,15,-1
 885 618 l 1,16,17
 874 612 874 612 850 597.5 c 128,-1,18
 826 583 826 583 795 565 c 128,-1,19
 764 547 764 547 730 527.5 c 128,-1,20
 696 508 696 508 665.5 492.5 c 128,-1,21
 635 477 635 477 611.5 466.5 c 128,-1,22
 588 456 588 456 578 456 c 0,23,24
 562 456 562 456 548 464 c 2,25,-1
 131 706 l 2,26,27
 117 714 117 714 109 727.5 c 128,-1,28
 101 741 101 741 101 757 c 2,29,-1
 100 1264 l 2,30,31
 100 1300 100 1300 131 1316 c 0,32,33
 146 1324 146 1324 185.5 1347 c 128,-1,34
 225 1370 225 1370 276 1399.5 c 128,-1,35
 327 1429 327 1429 383.5 1461 c 128,-1,36
 440 1493 440 1493 489.5 1519.5 c 128,-1,37
 539 1546 539 1546 575 1563.5 c 128,-1,38
 611 1581 611 1581 621 1581 c 256,39,40
 631 1581 631 1581 664 1565 c 128,-1,41
 697 1549 697 1549 742 1524 c 128,-1,42
 787 1499 787 1499 838 1469 c 128,-1,43
 889 1439 889 1439 935.5 1411.5 c 128,-1,44
 982 1384 982 1384 1017.5 1362.5 c 128,-1,45
 1053 1341 1053 1341 1067 1333 c 0,46,47
 1097 1316 1097 1316 1097 1281 c 2,48,-1
 1097 335 l 2,49,50
 1097 300 1097 300 1067 283 c 0,51,52
 1052 274 1052 274 1011 250.5 c 128,-1,53
 970 227 970 227 916.5 196 c 128,-1,54
 863 165 863 165 803.5 131.5 c 128,-1,55
 744 98 744 98 692 69.5 c 128,-1,56
 640 41 640 41 602.5 23 c 128,-1,57
 565 5 565 5 555 5 c 0,58,59
 546 5 546 5 515.5 20 c 128,-1,60
 485 35 485 35 444 57.5 c 128,-1,61
 403 80 403 80 356.5 107.5 c 128,-1,62
 310 135 310 135 268 160 c 128,-1,63
 226 185 226 185 193.5 205 c 128,-1,64
 161 225 161 225 148 232 c 0,65,66
 118 250 118 250 118 284 c 0,0,1
885 760 m 1,67,-1
 885 1146 l 2,68,69
 885 1194 885 1194 845 1216 c 2,70,-1
 532 1396 l 1,71,-1
 313 1275 l 1,72,-1
 313 892 l 2,73,74
 313 845 313 845 354 821 c 2,75,-1
 669 640 l 1,76,-1
 885 760 l 1,67,-1
EndSplineSet
EndChar

StartChar: colon
Encoding: 58 58 27
Width: 501
Flags: W
LayerCount: 2
Fore
SplineSet
401 149 m 0,0,1
 401 117 401 117 375 99 c 0,2,3
 367 93 367 93 351 81 c 128,-1,4
 335 69 335 69 317 56.5 c 128,-1,5
 299 44 299 44 281.5 34.5 c 128,-1,6
 264 25 264 25 251 25 c 0,7,8
 240 25 240 25 233 28 c 128,-1,9
 226 31 226 31 217 37 c 0,10,11
 203 46 203 46 183 57 c 128,-1,12
 163 68 163 68 144.5 81.5 c 128,-1,13
 126 95 126 95 113 111.5 c 128,-1,14
 100 128 100 128 100 149 c 0,15,16
 100 164 100 164 107.5 177.5 c 128,-1,17
 115 191 115 191 127 199 c 0,18,19
 137 206 137 206 152 218 c 128,-1,20
 167 230 167 230 184.5 242 c 128,-1,21
 202 254 202 254 219.5 263 c 128,-1,22
 237 272 237 272 251 272 c 0,23,24
 270 272 270 272 286 261 c 1,25,-1
 285 261 l 1,26,27
 298 252 298 252 318 241 c 128,-1,28
 338 230 338 230 356.5 216.5 c 128,-1,29
 375 203 375 203 388 186.5 c 128,-1,30
 401 170 401 170 401 149 c 0,0,1
401 987 m 0,31,32
 401 955 401 955 375 938 c 0,33,34
 367 932 367 932 351 920 c 128,-1,35
 335 908 335 908 317 895.5 c 128,-1,36
 299 883 299 883 281.5 873.5 c 128,-1,37
 264 864 264 864 251 864 c 0,38,39
 237 864 237 864 219.5 873 c 128,-1,40
 202 882 202 882 184 894.5 c 128,-1,41
 166 907 166 907 150.5 919.5 c 128,-1,42
 135 932 135 932 126 938 c 0,43,44
 100 956 100 956 100 987 c 0,45,46
 100 1019 100 1019 127 1038 c 0,47,48
 137 1045 137 1045 152 1057 c 128,-1,49
 167 1069 167 1069 184.5 1081 c 128,-1,50
 202 1093 202 1093 219.5 1102 c 128,-1,51
 237 1111 237 1111 251 1111 c 0,52,53
 270 1111 270 1111 286 1100 c 1,54,-1
 285 1100 l 1,55,56
 298 1091 298 1091 318 1080 c 128,-1,57
 338 1069 338 1069 356.5 1055.5 c 128,-1,58
 375 1042 375 1042 388 1025 c 128,-1,59
 401 1008 401 1008 401 987 c 0,31,32
EndSplineSet
EndChar

StartChar: semicolon
Encoding: 59 59 28
Width: 546
Flags: W
LayerCount: 2
Fore
SplineSet
445 783 m 0,0,1
 445 750 445 750 418 732 c 0,2,3
 410 726 410 726 394 714 c 128,-1,4
 378 702 378 702 360 689.5 c 128,-1,5
 342 677 342 677 324.5 667.5 c 128,-1,6
 307 658 307 658 294 658 c 0,7,8
 283 658 283 658 275.5 661.5 c 128,-1,9
 268 665 268 665 260 670 c 0,10,11
 244 681 244 681 223.5 692 c 128,-1,12
 203 703 203 703 185 716 c 128,-1,13
 167 729 167 729 155 745 c 128,-1,14
 143 761 143 761 143 783 c 0,15,16
 143 814 143 814 169 832 c 0,17,18
 179 838 179 838 194.5 850.5 c 128,-1,19
 210 863 210 863 227.5 875 c 128,-1,20
 245 887 245 887 262.5 896 c 128,-1,21
 280 905 280 905 294 905 c 0,22,23
 313 905 313 905 329 894 c 1,24,-1
 328 894 l 1,25,26
 340 886 340 886 360 875 c 128,-1,27
 380 864 380 864 398.5 850 c 128,-1,28
 417 836 417 836 431 819 c 128,-1,29
 445 802 445 802 445 783 c 0,0,1
240 -8 m 1,30,-1
 240 166 l 2,31,32
 240 183 240 183 248 196.5 c 128,-1,33
 256 210 256 210 270 219 c 1,34,-1
 269 219 l 1,35,-1
 353 271 l 1,36,-1
 353 270 l 1,37,38
 360 274 360 274 368 277 c 128,-1,39
 376 280 376 280 384 280 c 256,40,41
 392 280 392 280 399.5 277.5 c 128,-1,42
 407 275 407 275 415 271 c 1,43,-1
 414 271 l 1,44,45
 446 256 446 256 446 219 c 2,46,-1
 446 16 l 2,47,48
 446 -16 446 -16 417 -34 c 2,49,-1
 193 -175 l 1,50,-1
 193 -174 l 1,51,52
 185 -179 185 -179 175.5 -183 c 128,-1,53
 166 -187 166 -187 156 -187 c 0,54,55
 141 -187 141 -187 130.5 -177.5 c 128,-1,56
 120 -168 120 -168 112 -157 c 1,57,-1
 113 -157 l 1,58,59
 108 -149 108 -149 104 -139.5 c 128,-1,60
 100 -130 100 -130 100 -120 c 0,61,62
 100 -104 100 -104 119 -86 c 128,-1,63
 138 -68 138 -68 162 -52.5 c 128,-1,64
 186 -37 186 -37 209 -25 c 128,-1,65
 232 -13 232 -13 240 -8 c 1,30,-1
EndSplineSet
EndChar

StartChar: less
Encoding: 60 60 29
Width: 743
Flags: W
LayerCount: 2
Fore
SplineSet
549 733 m 1,0,-1
 549 732 l 1,1,2
 557 736 557 736 566 739 c 128,-1,3
 575 742 575 742 584 742 c 0,4,5
 604 742 604 742 618.5 722.5 c 128,-1,6
 633 703 633 703 633 684 c 0,7,8
 633 669 633 669 626 654 c 128,-1,9
 619 639 619 639 605 631 c 2,10,-1
 357 493 l 1,11,-1
 603 338 l 2,12,13
 631 321 631 321 631 287 c 0,14,15
 631 251 631 251 601 235 c 1,16,-1
 602 235 l 1,17,18
 591 228 591 228 576.5 218 c 128,-1,19
 562 208 562 208 546.5 199 c 128,-1,20
 531 190 531 190 515.5 183.5 c 128,-1,21
 500 177 500 177 485 177 c 0,22,23
 475 177 475 177 448 191 c 128,-1,24
 421 205 421 205 385 227 c 128,-1,25
 349 249 349 249 308.5 275.5 c 128,-1,26
 268 302 268 302 231 326.5 c 128,-1,27
 194 351 194 351 165.5 370.5 c 128,-1,28
 137 390 137 390 125 398 c 0,29,30
 98 415 98 415 98 448 c 0,31,32
 98 465 98 465 107 479.5 c 128,-1,33
 116 494 116 494 130 502 c 2,34,-1
 549 733 l 1,0,-1
EndSplineSet
EndChar

StartChar: equal
Encoding: 61 61 30
Width: 1268
Flags: W
LayerCount: 2
Fore
SplineSet
970 918 m 2,0,-1
 161 918 l 2,1,2
 134 918 134 918 117 937 c 128,-1,3
 100 956 100 956 100 982 c 0,4,5
 100 1013 100 1013 129 1031 c 1,6,-1
 129 1030 l 1,7,8
 142 1038 142 1038 164 1053.5 c 128,-1,9
 186 1069 186 1069 210.5 1084.5 c 128,-1,10
 235 1100 235 1100 259 1111.5 c 128,-1,11
 283 1123 283 1123 299 1123 c 2,12,-1
 1108 1123 l 2,13,14
 1135 1123 1135 1123 1151 1104 c 128,-1,15
 1167 1085 1167 1085 1167 1059 c 0,16,17
 1167 1027 1167 1027 1139 1011 c 1,18,-1
 1139 1012 l 1,19,20
 1126 1004 1126 1004 1104 988.5 c 128,-1,21
 1082 973 1082 973 1057.5 957 c 128,-1,22
 1033 941 1033 941 1009.5 929.5 c 128,-1,23
 986 918 986 918 970 918 c 2,0,-1
970 470 m 2,24,-1
 161 470 l 2,25,26
 134 470 134 470 117.5 488.5 c 128,-1,27
 101 507 101 507 101 533 c 0,28,29
 101 565 101 565 129 582 c 1,30,-1
 129 581 l 1,31,32
 142 589 142 589 164 604.5 c 128,-1,33
 186 620 186 620 210.5 635.5 c 128,-1,34
 235 651 235 651 259 662.5 c 128,-1,35
 283 674 283 674 299 674 c 2,36,-1
 1108 674 l 2,37,38
 1135 674 1135 674 1151 655 c 128,-1,39
 1167 636 1167 636 1167 610 c 0,40,41
 1167 579 1167 579 1139 562 c 1,42,-1
 1139 563 l 1,43,44
 1125 555 1125 555 1103.5 539.5 c 128,-1,45
 1082 524 1082 524 1057.5 508.5 c 128,-1,46
 1033 493 1033 493 1009.5 481.5 c 128,-1,47
 986 470 986 470 970 470 c 2,24,-1
EndSplineSet
EndChar

StartChar: greater
Encoding: 62 62 31
Width: 743
Flags: W
LayerCount: 2
Fore
SplineSet
195 218 m 1,0,-1
 195 219 l 1,1,2
 187 214 187 214 178.5 211 c 128,-1,3
 170 208 170 208 161 208 c 0,4,5
 139 208 139 208 125.5 227.5 c 128,-1,6
 112 247 112 247 112 267 c 0,7,8
 112 284 112 284 117.5 297.5 c 128,-1,9
 123 311 123 311 139 320 c 2,10,-1
 386 459 l 1,11,-1
 139 612 l 2,12,13
 127 620 127 620 119.5 633.5 c 128,-1,14
 112 647 112 647 112 661 c 0,15,16
 112 680 112 680 118 692.5 c 128,-1,17
 124 705 124 705 141 716 c 1,18,-1
 140 716 l 1,19,20
 147 720 147 720 162 729.5 c 128,-1,21
 177 739 177 739 194 749 c 128,-1,22
 211 759 211 759 227.5 766.5 c 128,-1,23
 244 774 244 774 254 774 c 0,24,25
 263 774 263 774 290.5 759.5 c 128,-1,26
 318 745 318 745 354.5 723 c 128,-1,27
 391 701 391 701 432.5 675 c 128,-1,28
 474 649 474 649 511 624.5 c 128,-1,29
 548 600 548 600 576.5 581 c 128,-1,30
 605 562 605 562 616 555 c 0,31,32
 632 545 632 545 638.5 534 c 128,-1,33
 645 523 645 523 645 504 c 0,34,35
 645 487 645 487 636 473 c 128,-1,36
 627 459 627 459 613 451 c 2,37,-1
 195 218 l 1,0,-1
EndSplineSet
EndChar

StartChar: question
Encoding: 63 63 32
Width: 1141
Flags: W
LayerCount: 2
Fore
SplineSet
723 149 m 256,0,1
 723 128 723 128 710 111.5 c 128,-1,2
 697 95 697 95 678.5 81.5 c 128,-1,3
 660 68 660 68 640 57 c 128,-1,4
 620 46 620 46 606 37 c 0,5,6
 589 25 589 25 572 25 c 0,7,8
 556 25 556 25 539 37 c 0,9,10
 525 46 525 46 505 57 c 128,-1,11
 485 68 485 68 466 81.5 c 128,-1,12
 447 95 447 95 434 111.5 c 128,-1,13
 421 128 421 128 421 149 c 0,14,15
 421 168 421 168 435 185 c 128,-1,16
 449 202 449 202 468.5 216.5 c 128,-1,17
 488 231 488 231 508 242 c 128,-1,18
 528 253 528 253 539 261 c 0,19,20
 556 273 556 273 572 273 c 0,21,22
 589 273 589 273 606 261 c 0,23,24
 619 252 619 252 638.5 241.5 c 128,-1,25
 658 231 658 231 677 217 c 128,-1,26
 696 203 696 203 709.5 186.5 c 128,-1,27
 723 170 723 170 723 149 c 256,0,1
1041 871 m 2,28,29
 1041 838 1041 838 1012 820 c 2,30,-1
 685 619 l 1,31,32
 685 577 685 577 682 557 c 128,-1,33
 679 537 679 537 667.5 525 c 128,-1,34
 656 513 656 513 633.5 502 c 128,-1,35
 611 491 611 491 572 467 c 0,36,37
 565 462 565 462 556 459 c 128,-1,38
 547 456 547 456 539 456 c 0,39,40
 511 456 511 456 498 471 c 128,-1,41
 485 486 485 486 481 507.5 c 128,-1,42
 477 529 477 529 478.5 552.5 c 128,-1,43
 480 576 480 576 480 594 c 0,44,45
 480 629 480 629 509 646 c 1,46,-1
 509 645 l 1,47,-1
 836 847 l 1,48,-1
 836 1120 l 2,49,50
 836 1143 836 1143 824.5 1161.5 c 128,-1,51
 813 1180 813 1180 793 1191 c 2,52,-1
 474 1364 l 1,53,-1
 306 1260 l 1,54,55
 306 1243 306 1243 307.5 1224.5 c 128,-1,56
 309 1206 309 1206 307.5 1188 c 128,-1,57
 306 1170 306 1170 299.5 1154.5 c 128,-1,58
 293 1139 293 1139 277 1128 c 1,59,-1
 278 1128 l 1,60,-1
 194 1075 l 1,61,-1
 194 1076 l 1,62,63
 186 1072 186 1072 177.5 1069 c 128,-1,64
 169 1066 169 1066 161 1066 c 0,65,66
 129 1066 129 1066 115.5 1085 c 128,-1,67
 102 1104 102 1104 98.5 1131 c 128,-1,68
 95 1158 95 1158 97.5 1187 c 128,-1,69
 100 1216 100 1216 100 1235 c 0,70,71
 100 1268 100 1268 129 1287 c 1,72,-1
 129 1286 l 1,73,74
 138 1292 138 1292 171.5 1313 c 128,-1,75
 205 1334 205 1334 250 1362.5 c 128,-1,76
 295 1391 295 1391 346 1423 c 128,-1,77
 397 1455 397 1455 441.5 1481.5 c 128,-1,78
 486 1508 486 1508 518.5 1525.5 c 128,-1,79
 551 1543 551 1543 559 1543 c 0,80,81
 569 1543 569 1543 602.5 1527.5 c 128,-1,82
 636 1512 636 1512 681 1488.5 c 128,-1,83
 726 1465 726 1465 777 1437 c 128,-1,84
 828 1409 828 1409 875 1382.5 c 128,-1,85
 922 1356 922 1356 958 1335.5 c 128,-1,86
 994 1315 994 1315 1009 1307 c 0,87,88
 1041 1289 1041 1289 1041 1255 c 2,89,-1
 1041 871 l 2,28,29
EndSplineSet
EndChar

StartChar: at
Encoding: 64 64 33
Width: 1776
Flags: W
LayerCount: 2
Fore
SplineSet
1595 -8 m 0,0,1
 1595 -28 1595 -28 1585.5 -40.5 c 128,-1,2
 1576 -53 1576 -53 1559 -62 c 2,3,-1
 904 -403 l 2,4,5
 894 -408 894 -408 886 -412 c 128,-1,6
 878 -416 878 -416 867 -416 c 0,7,8
 858 -416 858 -416 850.5 -413.5 c 128,-1,9
 843 -411 843 -411 835 -406 c 2,10,-1
 188 -7 l 2,11,12
 160 10 160 10 160 44 c 2,13,-1
 160 732 l 2,14,15
 160 749 160 749 168 763 c 128,-1,16
 176 777 176 777 191 785 c 2,17,-1
 1004 1211 l 1,18,-1
 1003 1211 l 1,19,20
 1011 1214 1011 1214 1018 1216.5 c 128,-1,21
 1025 1219 1025 1219 1033 1219 c 0,22,23
 1043 1219 1043 1219 1083.5 1197.5 c 128,-1,24
 1124 1176 1124 1176 1180 1142.5 c 128,-1,25
 1236 1109 1236 1109 1300.5 1069.5 c 128,-1,26
 1365 1030 1365 1030 1423 993.5 c 128,-1,27
 1481 957 1481 957 1525.5 929 c 128,-1,28
 1570 901 1570 901 1586 891 c 1,29,-1
 1585 892 l 1,30,31
 1598 883 1598 883 1605.5 870 c 128,-1,32
 1613 857 1613 857 1613 841 c 2,33,-1
 1613 250 l 2,34,35
 1613 238 1613 238 1600 224.5 c 128,-1,36
 1587 211 1587 211 1577 206 c 0,37,38
 1565 200 1565 200 1535.5 183 c 128,-1,39
 1506 166 1506 166 1467.5 144 c 128,-1,40
 1429 122 1429 122 1386 98 c 128,-1,41
 1343 74 1343 74 1305.5 54.5 c 128,-1,42
 1268 35 1268 35 1240 22 c 128,-1,43
 1212 9 1212 9 1203 9 c 0,44,45
 1189 9 1189 9 1177 15 c 1,46,-1
 1178 15 l 1,47,-1
 1099 64 l 2,48,49
 1085 73 1085 73 1078.5 78.5 c 128,-1,50
 1072 84 1072 84 1070 90.5 c 128,-1,51
 1068 97 1068 97 1068.5 107 c 128,-1,52
 1069 117 1069 117 1069 135 c 1,53,-1
 863 20 l 1,54,-1
 864 20 l 1,55,56
 857 16 857 16 849 13 c 128,-1,57
 841 10 841 10 833 10 c 0,58,59
 824 10 824 10 800 24 c 128,-1,60
 776 38 776 38 744 59.5 c 128,-1,61
 712 81 712 81 675.5 106.5 c 128,-1,62
 639 132 639 132 606 156 c 128,-1,63
 573 180 573 180 547.5 199 c 128,-1,64
 522 218 522 218 512 225 c 0,65,66
 498 236 498 236 490 247.5 c 128,-1,67
 482 259 482 259 483 278 c 0,68,69
 485 357 485 357 483 405.5 c 128,-1,70
 481 454 481 454 482.5 484 c 128,-1,71
 484 514 484 514 492.5 531.5 c 128,-1,72
 501 549 501 549 523.5 565 c 128,-1,73
 546 581 546 581 585.5 601 c 128,-1,74
 625 621 625 621 689 658 c 0,75,76
 702 665 702 665 730.5 682.5 c 128,-1,77
 759 700 759 700 789.5 718 c 128,-1,78
 820 736 820 736 847 749.5 c 128,-1,79
 874 763 874 763 885 763 c 0,80,81
 901 763 901 763 924.5 750 c 128,-1,82
 948 737 948 737 972 719.5 c 128,-1,83
 996 702 996 702 1018 684.5 c 128,-1,84
 1040 667 1040 667 1054 657 c 1,85,86
 1054 686 1054 686 1063 702.5 c 128,-1,87
 1072 719 1072 719 1088 729.5 c 128,-1,88
 1104 740 1104 740 1126 748.5 c 128,-1,89
 1148 757 1148 757 1175 772 c 0,90,91
 1181 775 1181 775 1188.5 777.5 c 128,-1,92
 1196 780 1196 780 1203 780 c 0,93,94
 1219 780 1219 780 1231 772 c 128,-1,95
 1243 764 1243 764 1255 756 c 1,96,-1
 1254 757 l 1,97,98
 1267 749 1267 749 1273 736 c 128,-1,99
 1279 723 1279 723 1279 708 c 2,100,-1
 1279 185 l 1,101,-1
 1401 249 l 1,102,-1
 1401 712 l 2,103,104
 1401 756 1401 756 1363 780 c 2,105,-1
 938 1039 l 1,106,-1
 373 749 l 1,107,-1
 373 171 l 2,108,109
 373 144 373 144 393.5 124 c 128,-1,110
 414 104 414 104 435 90 c 1,111,-1
 435 91 l 1,112,-1
 962 -234 l 1,113,-1
 1510 47 l 1,114,-1
 1509 47 l 1,115,116
 1522 52 1522 52 1535 52 c 0,117,118
 1564 52 1564 52 1579.5 35.5 c 128,-1,119
 1595 19 1595 19 1595 -8 c 0,0,1
1069 274 m 1,120,-1
 1069 364 l 2,121,122
 1069 408 1069 408 1031 433 c 1,123,-1
 1032 433 l 1,124,-1
 803 598 l 1,125,-1
 701 536 l 1,126,-1
 695 365 l 1,127,-1
 933 190 l 1,128,-1
 1069 274 l 1,120,-1
EndSplineSet
EndChar

StartChar: A
Encoding: 65 65 34
Width: 1413
Flags: W
LayerCount: 2
Fore
SplineSet
1228 219 m 1,0,-1
 1281 186 l 1,1,-1
 1280 187 l 1,2,3
 1292 179 1292 179 1302.5 167.5 c 128,-1,4
 1313 156 1313 156 1313 140 c 0,5,6
 1313 130 1313 130 1308.5 120.5 c 128,-1,7
 1304 111 1304 111 1299 103 c 1,8,-1
 1300 103 l 1,9,-1
 1252 25 l 1,10,-1
 1252 26 l 1,11,12
 1244 14 1244 14 1232 4 c 128,-1,13
 1220 -6 1220 -6 1204 -6 c 0,14,15
 1194 -6 1194 -6 1185 -2 c 128,-1,16
 1176 2 1176 2 1168 7 c 1,17,-1
 1168 6 l 1,18,-1
 1045 84 l 2,19,20
 1017 101 1017 101 1017 136 c 2,21,-1
 1017 514 l 1,22,-1
 401 514 l 1,23,-1
 401 110 l 2,24,25
 401 77 401 77 373 59 c 0,26,27
 362 53 362 53 348 42.5 c 128,-1,28
 334 32 334 32 318 22 c 128,-1,29
 302 12 302 12 286 4.5 c 128,-1,30
 270 -3 270 -3 257 -3 c 0,31,32
 229 -3 229 -3 212.5 14 c 128,-1,33
 196 31 196 31 196 58 c 2,34,-1
 196 1102 l 1,35,36
 187 1099 187 1099 177.5 1096.5 c 128,-1,37
 168 1094 168 1094 158 1094 c 0,38,39
 130 1094 130 1094 115 1113.5 c 128,-1,40
 100 1133 100 1133 100 1159 c 0,41,42
 100 1176 100 1176 109 1190 c 128,-1,43
 118 1204 118 1204 133 1212 c 0,44,45
 147 1220 147 1220 183 1240 c 128,-1,46
 219 1260 219 1260 268.5 1288 c 128,-1,47
 318 1316 318 1316 376.5 1349 c 128,-1,48
 435 1382 435 1382 495.5 1415.5 c 128,-1,49
 556 1449 556 1449 613 1480 c 128,-1,50
 670 1511 670 1511 716.5 1535 c 128,-1,51
 763 1559 763 1559 793.5 1573.5 c 128,-1,52
 824 1588 824 1588 832 1588 c 0,53,54
 841 1588 841 1588 848 1585.5 c 128,-1,55
 855 1583 855 1583 863 1578 c 2,56,-1
 1201 1365 l 2,57,58
 1228 1348 1228 1348 1228 1314 c 2,59,-1
 1228 219 l 1,0,-1
401 669 m 1,60,-1
 486 669 l 1,61,62
 496 675 496 675 508 684 c 128,-1,63
 520 693 520 693 533 700.5 c 128,-1,64
 546 708 546 708 559 713.5 c 128,-1,65
 572 719 572 719 585 719 c 2,66,-1
 1017 719 l 1,67,-1
 1017 1186 l 2,68,69
 1017 1215 1017 1215 1003 1229 c 128,-1,70
 989 1243 989 1243 969 1260 c 1,71,-1
 970 1259 l 1,72,-1
 741 1402 l 1,73,-1
 401 1217 l 1,74,-1
 401 669 l 1,60,-1
EndSplineSet
EndChar

StartChar: B
Encoding: 66 66 35
Width: 1351
Flags: W
LayerCount: 2
Fore
SplineSet
51 1474 m 0,0,1
 51 1496 51 1496 62.5 1513 c 128,-1,2
 74 1530 74 1530 91.5 1543 c 128,-1,3
 109 1556 109 1556 128.5 1567 c 128,-1,4
 148 1578 148 1578 164 1589 c 256,5,6
 180 1600 180 1600 197 1600 c 0,7,8
 204 1600 204 1600 212.5 1597.5 c 128,-1,9
 221 1595 221 1595 227 1592 c 2,10,-1
 389 1504 l 2,11,12
 403 1496 403 1496 409.5 1483 c 128,-1,13
 416 1470 416 1470 418 1455 c 128,-1,14
 420 1440 420 1440 419 1424 c 128,-1,15
 418 1408 418 1408 418 1395 c 1,16,-1
 786 1591 l 1,17,-1
 785 1591 l 1,18,19
 793 1594 793 1594 800.5 1596.5 c 128,-1,20
 808 1599 808 1599 816 1599 c 0,21,22
 827 1599 827 1599 837 1594 c 128,-1,23
 847 1589 847 1589 855 1582 c 1,24,-1
 855 1583 l 1,25,26
 906 1536 906 1536 951.5 1486.5 c 128,-1,27
 997 1437 997 1437 1042 1384 c 0,28,29
 1087 1330 1087 1330 1134.5 1282 c 128,-1,30
 1182 1234 1182 1234 1231 1185 c 0,31,32
 1249 1167 1249 1167 1249 1140 c 0,33,34
 1249 1123 1249 1123 1240.5 1109.5 c 128,-1,35
 1232 1096 1232 1096 1218 1088 c 2,36,-1
 1095 1022 l 1,37,-1
 1006 976 l 1,38,-1
 1223 862 l 2,39,40
 1239 854 1239 854 1245 841 c 128,-1,41
 1251 828 1251 828 1251 811 c 2,42,-1
 1251 329 l 2,43,44
 1251 292 1251 292 1220 275 c 0,45,46
 1101 206 1101 206 979 142 c 128,-1,47
 857 78 857 78 736 11 c 1,48,-1
 737 11 l 1,49,50
 729 7 729 7 721 4.5 c 128,-1,51
 713 2 713 2 705 2 c 0,52,53
 698 2 698 2 663.5 21 c 128,-1,54
 629 40 629 40 580.5 69.5 c 128,-1,55
 532 99 532 99 476 134.5 c 128,-1,56
 420 170 420 170 370 202 c 128,-1,57
 320 234 320 234 282.5 258 c 128,-1,58
 245 282 245 282 233 290 c 0,59,60
 219 300 219 300 211.5 311.5 c 128,-1,61
 204 323 204 323 204 341 c 2,62,-1
 204 1318 l 2,63,64
 204 1345 204 1345 192.5 1361.5 c 128,-1,65
 181 1378 181 1378 164 1389 c 128,-1,66
 147 1400 147 1400 127.5 1407.5 c 128,-1,67
 108 1415 108 1415 91 1423.5 c 128,-1,68
 74 1432 74 1432 62.5 1443.5 c 128,-1,69
 51 1455 51 1455 51 1474 c 0,0,1
418 1227 m 1,70,71
 417 1136 417 1136 417 1046.5 c 128,-1,72
 417 957 417 957 417 866 c 2,73,-1
 417 470 l 2,74,75
 417 448 417 448 426 430 c 128,-1,76
 435 412 435 412 454 401 c 1,77,-1
 454 402 l 1,78,79
 509 367 509 367 563.5 332 c 128,-1,80
 618 297 618 297 674 262 c 1,81,-1
 674 263 l 1,82,-1
 802 184 l 1,83,84
 862 216 862 216 921 247.5 c 128,-1,85
 980 279 980 279 1039 312 c 1,86,-1
 1039 683 l 2,87,88
 1039 704 1039 704 1029.5 723 c 128,-1,89
 1020 742 1020 742 1001 752 c 2,90,-1
 792 863 l 1,91,-1
 635 780 l 1,92,-1
 636 780 l 1,93,94
 625 775 625 775 614 771.5 c 128,-1,95
 603 768 603 768 591 768 c 0,96,97
 576 768 576 768 563 776.5 c 128,-1,98
 550 785 550 785 541 797.5 c 128,-1,99
 532 810 532 810 526.5 825 c 128,-1,100
 521 840 521 840 521 854 c 0,101,102
 521 874 521 874 535 888 c 128,-1,103
 549 902 549 902 566 910 c 1,104,-1
 565 910 l 1,105,106
 667 969 667 969 771 1022 c 128,-1,107
 875 1075 875 1075 979 1129 c 1,108,-1
 742 1400 l 1,109,-1
 418 1227 l 1,70,71
EndSplineSet
EndChar

StartChar: C
Encoding: 67 67 36
Width: 1068
Flags: W
LayerCount: 2
Fore
SplineSet
606 1594 m 1,0,-1
 605 1594 l 1,1,2
 621 1601 621 1601 634 1601 c 0,3,4
 648 1601 648 1601 664 1594 c 1,5,-1
 663 1594 l 1,6,-1
 936 1445 l 2,7,8
 967 1428 967 1428 967 1389 c 0,9,10
 967 1375 967 1375 959.5 1362.5 c 128,-1,11
 952 1350 952 1350 940 1342 c 1,12,-1
 941 1342 l 1,13,14
 932 1336 932 1336 916.5 1324.5 c 128,-1,15
 901 1313 901 1313 883.5 1302 c 128,-1,16
 866 1291 866 1291 849.5 1282.5 c 128,-1,17
 833 1274 833 1274 822 1274 c 0,18,19
 813 1274 813 1274 793 1282 c 128,-1,20
 773 1290 773 1290 748 1303 c 128,-1,21
 723 1316 723 1316 695.5 1331.5 c 128,-1,22
 668 1347 668 1347 642.5 1361.5 c 128,-1,23
 617 1376 617 1376 596.5 1387.5 c 128,-1,24
 576 1399 576 1399 566 1405 c 1,25,-1
 312 1271 l 1,26,-1
 312 406 l 2,27,28
 312 378 312 378 328.5 357 c 128,-1,29
 345 336 345 336 371 328 c 0,30,31
 499 292 499 292 625.5 259.5 c 128,-1,32
 752 227 752 227 880 190 c 0,33,34
 901 184 901 184 913 167.5 c 128,-1,35
 925 151 925 151 925 130 c 0,36,37
 925 114 925 114 908.5 91.5 c 128,-1,38
 892 69 892 69 869.5 48.5 c 128,-1,39
 847 28 847 28 823.5 13.5 c 128,-1,40
 800 -1 800 -1 787 -1 c 0,41,42
 781 -1 781 -1 753 5.5 c 128,-1,43
 725 12 725 12 683 23 c 128,-1,44
 641 34 641 34 588 48.5 c 128,-1,45
 535 63 535 63 479.5 78 c 128,-1,46
 424 93 424 93 369.5 108 c 128,-1,47
 315 123 315 123 269 135.5 c 128,-1,48
 223 148 223 148 190 157.5 c 128,-1,49
 157 167 157 167 144 170 c 0,50,51
 100 182 100 182 100 228 c 2,52,-1
 100 1291 l 2,53,54
 100 1327 100 1327 132 1344 c 2,55,-1
 606 1594 l 1,0,-1
EndSplineSet
EndChar

StartChar: D
Encoding: 68 68 37
Width: 1318
Flags: W
LayerCount: 2
Fore
SplineSet
1218 1116 m 2,0,-1
 1218 324 l 2,1,2
 1218 307 1218 307 1209 292.5 c 128,-1,3
 1200 278 1200 278 1185 270 c 0,4,5
 1177 266 1177 266 1151.5 252 c 128,-1,6
 1126 238 1126 238 1089.5 218.5 c 128,-1,7
 1053 199 1053 199 1008.5 175.5 c 128,-1,8
 964 152 964 152 919 128.5 c 128,-1,9
 874 105 874 105 830.5 82.5 c 128,-1,10
 787 60 787 60 752 42.5 c 128,-1,11
 717 25 717 25 694 14.5 c 128,-1,12
 671 4 671 4 666 4 c 0,13,14
 658 4 658 4 620 24.5 c 128,-1,15
 582 45 582 45 527.5 76 c 128,-1,16
 473 107 473 107 409.5 144.5 c 128,-1,17
 346 182 346 182 289 216.5 c 128,-1,18
 232 251 232 251 188 277.5 c 128,-1,19
 144 304 144 304 129 314 c 0,20,21
 100 332 100 332 100 365 c 2,22,-1
 100 900 l 2,23,24
 100 917 100 917 108.5 930.5 c 128,-1,25
 117 944 117 944 131 953 c 0,26,27
 257 1031 257 1031 389 1100 c 128,-1,28
 521 1169 521 1169 651 1240 c 1,29,-1
 325 1432 l 2,30,31
 313 1440 313 1440 304 1451 c 128,-1,32
 295 1462 295 1462 295 1477 c 0,33,34
 295 1497 295 1497 311.5 1520 c 128,-1,35
 328 1543 328 1543 350.5 1562.5 c 128,-1,36
 373 1582 373 1582 395.5 1594.5 c 128,-1,37
 418 1607 418 1607 429 1607 c 0,38,39
 436 1607 436 1607 469 1590 c 128,-1,40
 502 1573 502 1573 552 1544.5 c 128,-1,41
 602 1516 602 1516 664.5 1479.5 c 128,-1,42
 727 1443 727 1443 793 1404 c 128,-1,43
 859 1365 859 1365 923.5 1326 c 128,-1,44
 988 1287 988 1287 1042 1254.5 c 128,-1,45
 1096 1222 1096 1222 1135 1198.5 c 128,-1,46
 1174 1175 1174 1175 1188 1167 c 0,47,48
 1218 1150 1218 1150 1218 1116 c 2,0,-1
773 1167 m 1,49,-1
 313 910 l 1,50,-1
 313 497 l 2,51,52
 313 474 313 474 322.5 456 c 128,-1,53
 332 438 332 438 352 427 c 2,54,-1
 735 200 l 1,55,-1
 1005 344 l 1,56,-1
 1005 984 l 2,57,58
 1005 1006 1005 1006 995 1024.5 c 128,-1,59
 985 1043 985 1043 966 1054 c 2,60,-1
 773 1167 l 1,49,-1
EndSplineSet
EndChar

StartChar: E
Encoding: 69 69 38
Width: 1068
Flags: W
LayerCount: 2
Fore
SplineSet
100 1291 m 2,0,1
 100 1328 100 1328 132 1345 c 2,2,-1
 606 1594 l 1,3,-1
 605 1594 l 1,4,5
 612 1597 612 1597 618.5 1599 c 128,-1,6
 625 1601 625 1601 633 1601 c 256,7,8
 641 1601 641 1601 648.5 1599 c 128,-1,9
 656 1597 656 1597 664 1594 c 1,10,-1
 663 1594 l 1,11,-1
 936 1446 l 2,12,13
 951 1438 951 1438 959 1424 c 128,-1,14
 967 1410 967 1410 967 1393 c 0,15,16
 967 1360 967 1360 940 1343 c 0,17,18
 932 1337 932 1337 917 1325.5 c 128,-1,19
 902 1314 902 1314 885 1302.5 c 128,-1,20
 868 1291 868 1291 851 1282.5 c 128,-1,21
 834 1274 834 1274 822 1274 c 0,22,23
 811 1274 811 1274 791.5 1282 c 128,-1,24
 772 1290 772 1290 747 1303 c 128,-1,25
 722 1316 722 1316 695 1331 c 128,-1,26
 668 1346 668 1346 643 1361 c 128,-1,27
 618 1376 618 1376 597.5 1388 c 128,-1,28
 577 1400 577 1400 566 1406 c 1,29,-1
 312 1271 l 1,30,-1
 312 939 l 1,31,-1
 770 939 l 2,32,33
 796 939 796 939 813.5 921 c 128,-1,34
 831 903 831 903 831 877 c 0,35,36
 831 862 831 862 822 845 c 128,-1,37
 813 828 813 828 801 812 c 128,-1,38
 789 796 789 796 776.5 781.5 c 128,-1,39
 764 767 764 767 756 757 c 0,40,41
 738 733 738 733 707 733 c 2,42,-1
 312 733 l 1,43,-1
 312 409 l 2,44,45
 312 382 312 382 328.5 360.5 c 128,-1,46
 345 339 345 339 371 331 c 2,47,-1
 880 194 l 2,48,49
 900 189 900 189 912.5 172 c 128,-1,50
 925 155 925 155 925 134 c 0,51,52
 925 109 925 109 906 92 c 0,53,54
 897 84 897 84 883 69 c 128,-1,55
 869 54 869 54 852.5 39 c 128,-1,56
 836 24 836 24 819 13 c 128,-1,57
 802 2 802 2 786 2 c 0,58,59
 777 2 777 2 731.5 13.5 c 128,-1,60
 686 25 686 25 620.5 42.5 c 128,-1,61
 555 60 555 60 479 80.5 c 128,-1,62
 403 101 403 101 334.5 120 c 128,-1,63
 266 139 266 139 214 153.5 c 128,-1,64
 162 168 162 168 144 173 c 0,65,66
 100 185 100 185 100 231 c 2,67,-1
 100 1291 l 2,0,1
EndSplineSet
EndChar

StartChar: F
Encoding: 70 70 39
Width: 1129
Flags: W
LayerCount: 2
Fore
SplineSet
622 -117 m 1,0,-1
 794 -26 l 1,1,-1
 577 581 l 1,2,-1
 211 581 l 2,3,4
 182 581 182 581 166.5 600 c 128,-1,5
 151 619 151 619 151 647 c 0,6,7
 151 662 151 662 159 673.5 c 128,-1,8
 167 685 167 685 179 693 c 0,9,10
 226 722 226 722 253 740.5 c 128,-1,11
 280 759 280 759 298 769.5 c 128,-1,12
 316 780 316 780 330 784 c 128,-1,13
 344 788 344 788 364.5 788.5 c 128,-1,14
 385 789 385 789 417.5 788 c 128,-1,15
 450 787 450 787 504 787 c 1,16,17
 498 804 498 804 484 841.5 c 128,-1,18
 470 879 470 879 452 926.5 c 128,-1,19
 434 974 434 974 415 1026 c 128,-1,20
 396 1078 396 1078 380 1124 c 128,-1,21
 364 1170 364 1170 354 1204 c 128,-1,22
 344 1238 344 1238 344 1250 c 0,23,24
 344 1266 344 1266 354 1277.5 c 128,-1,25
 364 1289 364 1289 378 1296 c 2,26,-1
 496 1355 l 1,27,-1
 61 1355 l 2,28,29
 33 1355 33 1355 17 1373 c 128,-1,30
 1 1391 1 1391 1 1418 c 0,31,32
 1 1450 1 1450 29 1467 c 1,33,-1
 29 1466 l 1,34,35
 41 1473 41 1473 63.5 1488.5 c 128,-1,36
 86 1504 86 1504 111 1520 c 128,-1,37
 136 1536 136 1536 159.5 1547.5 c 128,-1,38
 183 1559 183 1559 198 1559 c 2,39,-1
 1066 1559 l 2,40,41
 1095 1559 1095 1559 1111 1541.5 c 128,-1,42
 1127 1524 1127 1524 1127 1496 c 0,43,44
 1127 1479 1127 1479 1118.5 1467 c 128,-1,45
 1110 1455 1110 1455 1097 1447 c 1,46,-1
 1097 1448 l 1,47,48
 1053 1421 1053 1421 1028 1403.5 c 128,-1,49
 1003 1386 1003 1386 986 1376 c 128,-1,50
 969 1366 969 1366 956.5 1361 c 128,-1,51
 944 1356 944 1356 926.5 1355 c 128,-1,52
 909 1354 909 1354 881.5 1354.5 c 128,-1,53
 854 1355 854 1355 807 1355 c 1,54,-1
 572 1230 l 1,55,-1
 730 787 l 1,56,-1
 983 787 l 2,57,58
 1012 787 1012 787 1028 768.5 c 128,-1,59
 1044 750 1044 750 1044 721 c 0,60,61
 1044 706 1044 706 1036 694 c 128,-1,62
 1028 682 1028 682 1015 674 c 2,63,-1
 878 589 l 1,64,-1
 878 590 l 1,65,66
 861 580 861 580 842 580.5 c 128,-1,67
 823 581 823 581 803 581 c 1,68,69
 810 561 810 561 829 510 c 128,-1,70
 848 459 848 459 872 393.5 c 128,-1,71
 896 328 896 328 922 256 c 128,-1,72
 948 184 948 184 970 121.5 c 128,-1,73
 992 59 992 59 1006 13.5 c 128,-1,74
 1020 -32 1020 -32 1020 -45 c 0,75,76
 1020 -62 1020 -62 1010.5 -73 c 128,-1,77
 1001 -84 1001 -84 987 -92 c 256,78,79
 973 -100 973 -100 938 -119 c 128,-1,80
 903 -138 903 -138 858.5 -162.5 c 128,-1,81
 814 -187 814 -187 764.5 -213.5 c 128,-1,82
 715 -240 715 -240 672 -262 c 128,-1,83
 629 -284 629 -284 597 -298.5 c 128,-1,84
 565 -313 565 -313 555 -313 c 0,85,86
 548 -313 548 -313 524.5 -301.5 c 128,-1,87
 501 -290 501 -290 467 -271.5 c 128,-1,88
 433 -253 433 -253 390.5 -228.5 c 128,-1,89
 348 -204 348 -204 303.5 -177.5 c 128,-1,90
 259 -151 259 -151 215 -125 c 128,-1,91
 171 -99 171 -99 134 -76.5 c 128,-1,92
 97 -54 97 -54 69.5 -37 c 128,-1,93
 42 -20 42 -20 30 -13 c 0,94,95
 1 4 1 4 1 41 c 0,96,97
 1 56 1 56 17 77 c 128,-1,98
 33 98 33 98 54.5 116.5 c 128,-1,99
 76 135 76 135 98.5 148 c 128,-1,100
 121 161 121 161 135 161 c 0,101,102
 145 161 145 161 180.5 143 c 128,-1,103
 216 125 216 125 265.5 97 c 128,-1,104
 315 69 315 69 371 35.5 c 128,-1,105
 427 2 427 2 478 -29 c 128,-1,106
 529 -60 529 -60 568 -84 c 128,-1,107
 607 -108 607 -108 622 -117 c 1,0,-1
EndSplineSet
EndChar

StartChar: G
Encoding: 71 71 40
Width: 1309
Flags: W
LayerCount: 2
Fore
SplineSet
645 1608 m 0,0,1
 652 1608 652 1608 676.5 1596.5 c 128,-1,2
 701 1585 701 1585 736 1565.5 c 128,-1,3
 771 1546 771 1546 813.5 1521.5 c 128,-1,4
 856 1497 856 1497 901 1470 c 128,-1,5
 946 1443 946 1443 989.5 1416.5 c 128,-1,6
 1033 1390 1033 1390 1070 1367 c 128,-1,7
 1107 1344 1107 1344 1134.5 1327.5 c 128,-1,8
 1162 1311 1162 1311 1174 1304 c 0,9,10
 1191 1294 1191 1294 1197.5 1281 c 128,-1,11
 1204 1268 1204 1268 1204 1249 c 0,12,13
 1204 1234 1204 1234 1195.5 1222 c 128,-1,14
 1187 1210 1187 1210 1176 1202 c 1,15,-1
 1177 1202 l 1,16,17
 1168 1196 1168 1196 1152.5 1185 c 128,-1,18
 1137 1174 1137 1174 1120 1162.5 c 128,-1,19
 1103 1151 1103 1151 1086.5 1143 c 128,-1,20
 1070 1135 1070 1135 1058 1135 c 0,21,22
 1049 1135 1049 1135 1014 1153.5 c 128,-1,23
 979 1172 979 1172 930 1200 c 128,-1,24
 881 1228 881 1228 825 1261.5 c 128,-1,25
 769 1295 769 1295 718.5 1326 c 128,-1,26
 668 1357 668 1357 629.5 1381 c 128,-1,27
 591 1405 591 1405 577 1413 c 1,28,-1
 313 1273 l 1,29,-1
 313 488 l 2,30,31
 313 465 313 465 322.5 447 c 128,-1,32
 332 429 332 429 352 418 c 2,33,-1
 711 206 l 1,34,-1
 996 356 l 1,35,-1
 996 694 l 1,36,-1
 536 694 l 2,37,38
 507 694 507 694 491.5 712.5 c 128,-1,39
 476 731 476 731 476 759 c 0,40,41
 476 789 476 789 504 805 c 0,42,43
 518 814 518 814 540 829.5 c 128,-1,44
 562 845 562 845 586.5 860.5 c 128,-1,45
 611 876 611 876 634.5 887.5 c 128,-1,46
 658 899 658 899 674 899 c 2,47,-1
 1209 899 l 1,48,-1
 1209 337 l 2,49,50
 1209 317 1209 317 1200.5 305 c 128,-1,51
 1192 293 1192 293 1175 284 c 2,52,-1
 1009 196 l 2,53,54
 997 190 997 190 967.5 173.5 c 128,-1,55
 938 157 938 157 900 136.5 c 128,-1,56
 862 116 862 116 820 93.5 c 128,-1,57
 778 71 778 71 741.5 52 c 128,-1,58
 705 33 705 33 677.5 21 c 128,-1,59
 650 9 650 9 642 9 c 0,60,61
 633 9 633 9 596 28 c 128,-1,62
 559 47 559 47 507.5 76.5 c 128,-1,63
 456 106 456 106 396.5 141.5 c 128,-1,64
 337 177 337 177 283 210 c 128,-1,65
 229 243 229 243 187 268.5 c 128,-1,66
 145 294 145 294 129 304 c 0,67,68
 100 321 100 321 100 355 c 2,69,-1
 100 1292 l 2,70,71
 100 1309 100 1309 108.5 1323.5 c 128,-1,72
 117 1338 117 1338 132 1346 c 0,73,74
 148 1354 148 1354 189.5 1376.5 c 128,-1,75
 231 1399 231 1399 284.5 1428.5 c 128,-1,76
 338 1458 338 1458 397.5 1489.5 c 128,-1,77
 457 1521 457 1521 508.5 1547.5 c 128,-1,78
 560 1574 560 1574 597.5 1591 c 128,-1,79
 635 1608 635 1608 645 1608 c 0,0,1
EndSplineSet
EndChar

StartChar: H
Encoding: 72 72 41
Width: 1318
Flags: W
LayerCount: 2
Fore
SplineSet
1025 -209 m 1,0,-1
 1026 -209 l 1,1,2
 1010 -217 1010 -217 983 -232 c 128,-1,3
 956 -247 956 -247 926.5 -262 c 128,-1,4
 897 -277 897 -277 869.5 -288.5 c 128,-1,5
 842 -300 842 -300 825 -300 c 0,6,7
 815 -300 815 -300 804.5 -294.5 c 128,-1,8
 794 -289 794 -289 785.5 -280 c 128,-1,9
 777 -271 777 -271 771.5 -260.5 c 128,-1,10
 766 -250 766 -250 766 -240 c 0,11,12
 766 -223 766 -223 777 -207 c 2,13,-1
 1007 148 l 1,14,-1
 1007 626 l 1,15,-1
 577 879 l 1,16,-1
 313 739 l 1,17,-1
 313 214 l 1,18,-1
 364 181 l 1,19,-1
 363 182 l 1,20,21
 375 174 375 174 385.5 162.5 c 128,-1,22
 396 151 396 151 396 135 c 0,23,24
 396 122 396 122 393 115.5 c 128,-1,25
 390 109 390 109 383 98 c 0,26,27
 377 87 377 87 367.5 69 c 128,-1,28
 358 51 358 51 346 33 c 128,-1,29
 334 15 334 15 319.5 2 c 128,-1,30
 305 -11 305 -11 288 -11 c 0,31,32
 278 -11 278 -11 268.5 -7 c 128,-1,33
 259 -3 259 -3 251 2 c 1,34,-1
 251 1 l 1,35,-1
 128 79 l 2,36,37
 100 96 100 96 100 131 c 2,38,-1
 100 1284 l 2,39,40
 100 1300 100 1300 109 1315 c 128,-1,41
 118 1330 118 1330 132 1338 c 0,42,43
 148 1346 148 1346 189.5 1369 c 128,-1,44
 231 1392 231 1392 284.5 1421 c 128,-1,45
 338 1450 338 1450 397 1481.5 c 128,-1,46
 456 1513 456 1513 507.5 1539.5 c 128,-1,47
 559 1566 559 1566 596.5 1583 c 128,-1,48
 634 1600 634 1600 645 1600 c 0,49,50
 655 1600 655 1600 694 1580 c 128,-1,51
 733 1560 733 1560 786.5 1529.5 c 128,-1,52
 840 1499 840 1499 901 1462 c 128,-1,53
 962 1425 962 1425 1017.5 1391.5 c 128,-1,54
 1073 1358 1073 1358 1115.5 1331.5 c 128,-1,55
 1158 1305 1158 1305 1174 1296 c 0,56,57
 1204 1278 1204 1278 1204 1241 c 0,58,59
 1204 1226 1204 1226 1196 1214 c 128,-1,60
 1188 1202 1188 1202 1176 1194 c 1,61,-1
 1177 1194 l 1,62,63
 1168 1188 1168 1188 1153 1177 c 128,-1,64
 1138 1166 1138 1166 1121 1154.5 c 128,-1,65
 1104 1143 1104 1143 1087.5 1135 c 128,-1,66
 1071 1127 1071 1127 1058 1127 c 0,67,68
 1048 1127 1048 1127 1013 1145 c 128,-1,69
 978 1163 978 1163 929 1191 c 128,-1,70
 880 1219 880 1219 824.5 1252.5 c 128,-1,71
 769 1286 769 1286 718.5 1317 c 128,-1,72
 668 1348 668 1348 629.5 1371.5 c 128,-1,73
 591 1395 591 1395 577 1404 c 1,74,-1
 313 1265 l 1,75,-1
 313 906 l 1,76,77
 325 912 325 912 351.5 927 c 128,-1,78
 378 942 378 942 412 961 c 128,-1,79
 446 980 446 980 483 1000 c 128,-1,80
 520 1020 520 1020 553 1036.5 c 128,-1,81
 586 1053 586 1053 611.5 1064 c 128,-1,82
 637 1075 637 1075 646 1075 c 0,83,84
 656 1075 656 1075 695.5 1054.5 c 128,-1,85
 735 1034 735 1034 790 1002.5 c 128,-1,86
 845 971 845 971 908 933 c 128,-1,87
 971 895 971 895 1028 860.5 c 128,-1,88
 1085 826 1085 826 1128.5 799 c 128,-1,89
 1172 772 1172 772 1188 763 c 0,90,91
 1218 746 1218 746 1218 712 c 2,92,-1
 1217 68 l 2,93,94
 1217 60 1217 60 1206.5 40.5 c 128,-1,95
 1196 21 1196 21 1179.5 -4 c 128,-1,96
 1163 -29 1163 -29 1143 -57.5 c 128,-1,97
 1123 -86 1123 -86 1104.5 -112 c 128,-1,98
 1086 -138 1086 -138 1071 -158.5 c 128,-1,99
 1056 -179 1056 -179 1049 -188 c 0,100,101
 1044 -194 1044 -194 1038.5 -200 c 128,-1,102
 1033 -206 1033 -206 1025 -209 c 1,0,-1
EndSplineSet
EndChar

StartChar: I
Encoding: 73 73 42
Width: 935
Flags: W
LayerCount: 2
Fore
SplineSet
492 1238 m 1,0,-1
 859 344 l 1,1,-1
 859 345 l 1,2,3
 861 338 861 338 862.5 331.5 c 128,-1,4
 864 325 864 325 864 318 c 0,5,6
 864 301 864 301 854 290 c 128,-1,7
 844 279 844 279 830 271 c 0,8,9
 815 263 815 263 774.5 240.5 c 128,-1,10
 734 218 734 218 680.5 188.5 c 128,-1,11
 627 159 627 159 568 126.5 c 128,-1,12
 509 94 509 94 457.5 67.5 c 128,-1,13
 406 41 406 41 369 23.5 c 128,-1,14
 332 6 332 6 323 6 c 0,15,16
 313 6 313 6 290.5 16.5 c 128,-1,17
 268 27 268 27 239.5 43 c 128,-1,18
 211 59 211 59 179 78.5 c 128,-1,19
 147 98 147 98 118.5 116 c 128,-1,20
 90 134 90 134 67.5 148 c 128,-1,21
 45 162 45 162 35 168 c 0,22,23
 20 177 20 177 13 188.5 c 128,-1,24
 6 200 6 200 6 218 c 0,25,26
 6 250 6 250 33 269 c 0,27,28
 42 275 42 275 56.5 286.5 c 128,-1,29
 71 298 71 298 87.5 309 c 128,-1,30
 104 320 104 320 120.5 328.5 c 128,-1,31
 137 337 137 337 150 337 c 0,32,33
 159 337 159 337 178.5 328.5 c 128,-1,34
 198 320 198 320 222 307 c 128,-1,35
 246 294 246 294 272 278.5 c 128,-1,36
 298 263 298 263 321.5 248 c 128,-1,37
 345 233 345 233 364 221 c 128,-1,38
 383 209 383 209 392 204 c 1,39,-1
 638 337 l 1,40,41
 631 354 631 354 611.5 400.5 c 128,-1,42
 592 447 592 447 564.5 511 c 128,-1,43
 537 575 537 575 504.5 652 c 128,-1,44
 472 729 472 729 439 807.5 c 128,-1,45
 406 886 406 886 375.5 960.5 c 128,-1,46
 345 1035 345 1035 321.5 1094.5 c 128,-1,47
 298 1154 298 1154 283.5 1193 c 128,-1,48
 269 1232 269 1232 269 1240 c 0,49,50
 269 1255 269 1255 277 1266.5 c 128,-1,51
 285 1278 285 1278 297 1286 c 1,52,-1
 296 1286 l 1,53,-1
 412 1363 l 1,54,-1
 63 1363 l 2,55,56
 35 1363 35 1363 19.5 1382 c 128,-1,57
 4 1401 4 1401 4 1428 c 0,58,59
 4 1458 4 1458 32 1474 c 0,60,61
 45 1482 45 1482 67 1498 c 128,-1,62
 89 1514 89 1514 113.5 1529.5 c 128,-1,63
 138 1545 138 1545 161 1556.5 c 128,-1,64
 184 1568 184 1568 201 1568 c 2,65,-1
 782 1568 l 2,66,67
 808 1568 808 1568 825 1549.5 c 128,-1,68
 842 1531 842 1531 842 1505 c 0,69,70
 842 1475 842 1475 816 1458 c 2,71,-1
 492 1238 l 1,0,-1
EndSplineSet
EndChar

StartChar: J
Encoding: 74 74 43
Width: 840
Flags: W
LayerCount: 2
Fore
SplineSet
459 1238 m 1,0,1
 464 1222 464 1222 477 1178.5 c 128,-1,2
 490 1135 490 1135 509.5 1072.5 c 128,-1,3
 529 1010 529 1010 553 931.5 c 128,-1,4
 577 853 577 853 603 768 c 128,-1,5
 629 683 629 683 656 594.5 c 128,-1,6
 683 506 683 506 708 423 c 128,-1,7
 733 340 733 340 755 266.5 c 128,-1,8
 777 193 777 193 793.5 137 c 128,-1,9
 810 81 810 81 819.5 46.5 c 128,-1,10
 829 12 829 12 829 8 c 0,11,12
 829 -9 829 -9 820 -20 c 128,-1,13
 811 -31 811 -31 797 -39 c 256,14,15
 783 -47 783 -47 741.5 -72 c 128,-1,16
 700 -97 700 -97 645.5 -130 c 128,-1,17
 591 -163 591 -163 530 -199 c 128,-1,18
 469 -235 469 -235 416.5 -265.5 c 128,-1,19
 364 -296 364 -296 327 -315.5 c 128,-1,20
 290 -335 290 -335 283 -335 c 0,21,22
 273 -335 273 -335 251 -325 c 128,-1,23
 229 -315 229 -315 200.5 -299.5 c 128,-1,24
 172 -284 172 -284 140.5 -265 c 128,-1,25
 109 -246 109 -246 80.5 -228 c 128,-1,26
 52 -210 52 -210 28.5 -195.5 c 128,-1,27
 5 -181 5 -181 -6 -174 c 0,28,29
 -19 -166 -19 -166 -27 -153.5 c 128,-1,30
 -35 -141 -35 -141 -35 -125 c 0,31,32
 -35 -104 -35 -104 -23 -88 c 128,-1,33
 -11 -72 -11 -72 6 -59.5 c 128,-1,34
 23 -47 23 -47 42 -36.5 c 128,-1,35
 61 -26 61 -26 76 -16 c 1,36,-1
 75 -17 l 1,37,38
 83 -12 83 -12 91.5 -8.5 c 128,-1,39
 100 -5 100 -5 109 -5 c 0,40,41
 117 -5 117 -5 135 -13.5 c 128,-1,42
 153 -22 153 -22 177 -35 c 128,-1,43
 201 -48 201 -48 227.5 -64 c 128,-1,44
 254 -80 254 -80 278.5 -95 c 128,-1,45
 303 -110 303 -110 322 -122 c 128,-1,46
 341 -134 341 -134 350 -139 c 1,47,-1
 603 27 l 1,48,49
 595 51 595 51 575.5 114.5 c 128,-1,50
 556 178 556 178 529 266 c 128,-1,51
 502 354 502 354 469.5 458 c 128,-1,52
 437 562 437 562 405 668 c 128,-1,53
 373 774 373 774 342.5 873.5 c 128,-1,54
 312 973 312 973 288.5 1052 c 128,-1,55
 265 1131 265 1131 251 1181.5 c 128,-1,56
 237 1232 237 1232 237 1239 c 0,57,58
 237 1254 237 1254 244.5 1266 c 128,-1,59
 252 1278 252 1278 264 1286 c 1,60,-1
 263 1286 l 1,61,-1
 379 1363 l 1,62,-1
 32 1363 l 2,63,64
 3 1363 3 1363 -13 1381 c 128,-1,65
 -29 1399 -29 1399 -29 1428 c 0,66,67
 -29 1458 -29 1458 -1 1474 c 0,68,69
 12 1482 12 1482 35 1498 c 128,-1,70
 58 1514 58 1514 82.5 1529.5 c 128,-1,71
 107 1545 107 1545 130.5 1556.5 c 128,-1,72
 154 1568 154 1568 169 1568 c 2,73,-1
 749 1568 l 2,74,75
 775 1568 775 1568 792 1549.5 c 128,-1,76
 809 1531 809 1531 809 1505 c 0,77,78
 809 1475 809 1475 783 1458 c 2,79,-1
 459 1238 l 1,0,1
EndSplineSet
EndChar

StartChar: K
Encoding: 75 75 44
Width: 1281
Flags: W
LayerCount: 2
Fore
SplineSet
764 544 m 1,0,1
 753 538 753 538 739 529.5 c 128,-1,2
 725 521 725 521 709.5 513 c 128,-1,3
 694 505 694 505 678 499.5 c 128,-1,4
 662 494 662 494 649 494 c 0,5,6
 634 494 634 494 621.5 500.5 c 128,-1,7
 609 507 609 507 599 517.5 c 128,-1,8
 589 528 589 528 583.5 541.5 c 128,-1,9
 578 555 578 555 578 569 c 0,10,11
 578 592 578 592 592 610 c 128,-1,12
 606 628 606 628 626 639 c 0,13,14
 685 671 685 671 744.5 701.5 c 128,-1,15
 804 732 804 732 864 764 c 1,16,-1
 726 911 l 1,17,-1
 322 697 l 1,18,-1
 322 228 l 1,19,-1
 364 202 l 1,20,-1
 363 203 l 1,21,22
 375 195 375 195 385 183 c 128,-1,23
 395 171 395 171 395 155 c 0,24,25
 395 143 395 143 384.5 118.5 c 128,-1,26
 374 94 374 94 358 69.5 c 128,-1,27
 342 45 342 45 323 27 c 128,-1,28
 304 9 304 9 288 9 c 0,29,30
 278 9 278 9 268 13 c 128,-1,31
 258 17 258 17 250 22 c 1,32,-1
 250 21 l 1,33,-1
 128 99 l 2,34,35
 115 107 115 107 112.5 115 c 128,-1,36
 110 123 110 123 110 138 c 2,37,-1
 110 1284 l 2,38,39
 110 1301 110 1301 118.5 1315 c 128,-1,40
 127 1329 127 1329 142 1337 c 0,41,42
 158 1345 158 1345 199.5 1368 c 128,-1,43
 241 1391 241 1391 294.5 1420 c 128,-1,44
 348 1449 348 1449 407.5 1481 c 128,-1,45
 467 1513 467 1513 519 1539.5 c 128,-1,46
 571 1566 571 1566 608.5 1583 c 128,-1,47
 646 1600 646 1600 656 1600 c 0,48,49
 668 1600 668 1600 699 1591.5 c 128,-1,50
 730 1583 730 1583 764.5 1572.5 c 128,-1,51
 799 1562 799 1562 831 1551 c 128,-1,52
 863 1540 863 1540 878 1536 c 0,53,54
 941 1517 941 1517 1004.5 1499 c 128,-1,55
 1068 1481 1068 1481 1131 1461 c 0,56,57
 1151 1454 1151 1454 1163 1438 c 128,-1,58
 1175 1422 1175 1422 1175 1400 c 0,59,60
 1175 1383 1175 1383 1166 1371 c 128,-1,61
 1157 1359 1157 1359 1143 1351 c 0,62,63
 1131 1345 1131 1345 1112 1333.5 c 128,-1,64
 1093 1322 1093 1322 1072 1310.5 c 128,-1,65
 1051 1299 1051 1299 1031 1291 c 128,-1,66
 1011 1283 1011 1283 997 1283 c 0,67,68
 991 1283 991 1283 961.5 1291 c 128,-1,69
 932 1299 932 1299 890.5 1311 c 128,-1,70
 849 1323 849 1323 800.5 1337.5 c 128,-1,71
 752 1352 752 1352 708 1365 c 128,-1,72
 664 1378 664 1378 630.5 1388 c 128,-1,73
 597 1398 597 1398 586 1402 c 1,74,-1
 322 1264 l 1,75,-1
 322 865 l 1,76,-1
 774 1105 l 1,77,-1
 773 1105 l 1,78,79
 781 1108 781 1108 788.5 1110.5 c 128,-1,80
 796 1113 796 1113 804 1113 c 0,81,82
 816 1113 816 1113 827 1107 c 128,-1,83
 838 1101 838 1101 846 1093 c 2,84,-1
 1112 813 l 2,85,86
 1128 795 1128 795 1128 772 c 1,87,-1
 1127 761 l 1,88,-1
 1127 762 l 1,89,90
 1124 748 1124 748 1116 737 c 128,-1,91
 1108 726 1108 726 1095 719 c 2,92,-1
 954 644 l 1,93,-1
 1109 270 l 1,94,-1
 1276 193 l 2,95,96
 1291 186 1291 186 1301.5 170 c 128,-1,97
 1312 154 1312 154 1312 137 c 0,98,99
 1312 121 1312 121 1295.5 102 c 128,-1,100
 1279 83 1279 83 1257 64 c 128,-1,101
 1235 45 1235 45 1212.5 29 c 128,-1,102
 1190 13 1190 13 1177 3 c 1,103,-1
 973 98 l 2,104,105
 965 102 965 102 956.5 111 c 128,-1,106
 948 120 948 120 944 128 c 2,107,-1
 764 544 l 1,0,1
EndSplineSet
EndChar

StartChar: L
Encoding: 76 76 45
Width: 1046
Flags: W
LayerCount: 2
Fore
SplineSet
339 469 m 1,0,-1
 227 1237 l 1,1,-1
 226 1248 l 1,2,3
 226 1264 226 1264 233.5 1276.5 c 128,-1,4
 241 1289 241 1289 254 1297 c 1,5,-1
 253 1297 l 1,6,-1
 710 1592 l 2,7,8
 724 1602 724 1602 742 1602 c 0,9,10
 752 1602 752 1602 775 1591.5 c 128,-1,11
 798 1581 798 1581 826.5 1565 c 128,-1,12
 855 1549 855 1549 886.5 1529 c 128,-1,13
 918 1509 918 1509 946.5 1491 c 128,-1,14
 975 1473 975 1473 997.5 1458 c 128,-1,15
 1020 1443 1020 1443 1031 1437 c 0,16,17
 1059 1420 1059 1420 1059 1385 c 0,18,19
 1059 1355 1059 1355 1034 1337 c 0,20,21
 1026 1331 1026 1331 1011.5 1319.5 c 128,-1,22
 997 1308 997 1308 980.5 1296.5 c 128,-1,23
 964 1285 964 1285 947.5 1276 c 128,-1,24
 931 1267 931 1267 919 1267 c 0,25,26
 908 1267 908 1267 888 1276 c 128,-1,27
 868 1285 868 1285 842.5 1299.5 c 128,-1,28
 817 1314 817 1314 789.5 1331 c 128,-1,29
 762 1348 762 1348 737 1364.5 c 128,-1,30
 712 1381 712 1381 692.5 1394 c 128,-1,31
 673 1407 673 1407 663 1413 c 1,32,-1
 437 1265 l 1,33,-1
 549 496 l 1,34,-1
 550 485 l 1,35,36
 550 470 550 470 542.5 457 c 128,-1,37
 535 444 535 444 522 436 c 2,38,-1
 410 364 l 1,39,-1
 1007 185 l 1,40,-1
 1007 186 l 1,41,42
 1027 178 1027 178 1038.5 161.5 c 128,-1,43
 1050 145 1050 145 1050 124 c 0,44,45
 1050 109 1050 109 1044.5 100 c 128,-1,46
 1039 91 1039 91 1028 82 c 0,47,48
 1018 73 1018 73 1004 59 c 128,-1,49
 990 45 990 45 974 31 c 128,-1,50
 958 17 958 17 940.5 7 c 128,-1,51
 923 -3 923 -3 907 -3 c 0,52,53
 900 -3 900 -3 866.5 5.5 c 128,-1,54
 833 14 833 14 783 28.5 c 128,-1,55
 733 43 733 43 670.5 62 c 128,-1,56
 608 81 608 81 542 101 c 128,-1,57
 476 121 476 121 411 141 c 128,-1,58
 346 161 346 161 292 177.5 c 128,-1,59
 238 194 238 194 198.5 206 c 128,-1,60
 159 218 159 218 144 223 c 0,61,62
 100 237 100 237 100 283 c 0,63,64
 100 299 100 299 108 311.5 c 128,-1,65
 116 324 116 324 129 332 c 1,66,-1
 128 332 l 1,67,-1
 339 469 l 1,0,-1
EndSplineSet
EndChar

StartChar: M
Encoding: 77 77 46
Width: 1906
Flags: W
LayerCount: 2
Fore
SplineSet
258 7 m 0,0,1
 232 7 232 7 215 25.5 c 128,-1,2
 198 44 198 44 198 69 c 2,3,-1
 198 1357 l 1,4,5
 184 1364 184 1364 159 1374 c 128,-1,6
 134 1384 134 1384 110 1397.5 c 128,-1,7
 86 1411 86 1411 68.5 1428 c 128,-1,8
 51 1445 51 1445 51 1468 c 0,9,10
 51 1489 51 1489 66 1507 c 128,-1,11
 81 1525 81 1525 102 1539 c 128,-1,12
 123 1553 123 1553 145.5 1564.5 c 128,-1,13
 168 1576 168 1576 182 1585 c 1,14,-1
 182 1584 l 1,15,16
 190 1588 190 1588 197.5 1590.5 c 128,-1,17
 205 1593 205 1593 213 1593 c 0,18,19
 230 1593 230 1593 244 1586 c 1,20,-1
 243 1586 l 1,21,22
 261 1576 261 1576 288 1564 c 128,-1,23
 315 1552 315 1552 341 1537 c 128,-1,24
 367 1522 367 1522 386.5 1504 c 128,-1,25
 406 1486 406 1486 408 1465 c 2,26,-1
 411 1439 l 1,27,28
 421 1445 421 1445 444 1459.5 c 128,-1,29
 467 1474 467 1474 496 1492.5 c 128,-1,30
 525 1511 525 1511 557 1530.5 c 128,-1,31
 589 1550 589 1550 618 1566 c 128,-1,32
 647 1582 647 1582 669 1592.5 c 128,-1,33
 691 1603 691 1603 700 1603 c 0,34,35
 717 1603 717 1603 735 1593 c 1,36,-1
 734 1593 l 1,37,-1
 1019 1431 l 1,38,39
 1031 1437 1031 1437 1058.5 1452.5 c 128,-1,40
 1086 1468 1086 1468 1121.5 1487.5 c 128,-1,41
 1157 1507 1157 1507 1196 1527.5 c 128,-1,42
 1235 1548 1235 1548 1269.5 1565.5 c 128,-1,43
 1304 1583 1304 1583 1329.5 1594 c 128,-1,44
 1355 1605 1355 1605 1365 1605 c 256,45,46
 1375 1605 1375 1605 1402 1591.5 c 128,-1,47
 1429 1578 1429 1578 1465 1557.5 c 128,-1,48
 1501 1537 1501 1537 1542 1512.5 c 128,-1,49
 1583 1488 1583 1488 1619.5 1465 c 128,-1,50
 1656 1442 1656 1442 1684.5 1423.5 c 128,-1,51
 1713 1405 1713 1405 1725 1398 c 0,52,53
 1752 1381 1752 1381 1752 1348 c 2,54,-1
 1752 227 l 1,55,56
 1761 222 1761 222 1777 214.5 c 128,-1,57
 1793 207 1793 207 1808.5 197.5 c 128,-1,58
 1824 188 1824 188 1835.5 176 c 128,-1,59
 1847 164 1847 164 1847 149 c 0,60,61
 1847 137 1847 137 1836.5 112.5 c 128,-1,62
 1826 88 1826 88 1810 63.5 c 128,-1,63
 1794 39 1794 39 1774.5 20.5 c 128,-1,64
 1755 2 1755 2 1738 2 c 0,65,66
 1723 2 1723 2 1699 14 c 128,-1,67
 1675 26 1675 26 1649.5 41.5 c 128,-1,68
 1624 57 1624 57 1601.5 72 c 128,-1,69
 1579 87 1579 87 1569 93 c 0,70,71
 1540 110 1540 110 1540 144 c 2,72,-1
 1540 1219 l 2,73,74
 1540 1265 1540 1265 1502 1288 c 2,75,-1
 1271 1424 l 1,76,-1
 1097 1339 l 1,77,-1
 1097 215 l 1,78,-1
 1149 182 l 1,79,-1
 1149 183 l 1,80,81
 1161 175 1161 175 1171 164 c 128,-1,82
 1181 153 1181 153 1181 137 c 0,83,84
 1181 127 1181 127 1177 117 c 128,-1,85
 1173 107 1173 107 1168 99 c 1,86,-1
 1169 99 l 1,87,-1
 1120 21 l 1,88,-1
 1120 22 l 1,89,90
 1112 10 1112 10 1100.5 0 c 128,-1,91
 1089 -10 1089 -10 1073 -10 c 0,92,93
 1058 -10 1058 -10 1035 1.5 c 128,-1,94
 1012 13 1012 13 988.5 28 c 128,-1,95
 965 43 965 43 944 58 c 128,-1,96
 923 73 923 73 912 80 c 0,97,98
 885 97 885 97 885 132 c 2,99,-1
 885 1219 l 2,100,101
 885 1242 885 1242 875.5 1259.5 c 128,-1,102
 866 1277 866 1277 846 1288 c 1,103,-1
 847 1288 l 1,104,-1
 607 1423 l 1,105,-1
 411 1303 l 1,106,-1
 411 123 l 2,107,108
 411 104 411 104 403.5 92 c 128,-1,109
 396 80 396 80 380 71 c 0,110,111
 372 66 372 66 356 55.5 c 128,-1,112
 340 45 340 45 322 34 c 128,-1,113
 304 23 304 23 286.5 15 c 128,-1,114
 269 7 269 7 258 7 c 0,0,1
EndSplineSet
EndChar

StartChar: N
Encoding: 78 78 47
Width: 1476
Flags: W
LayerCount: 2
Fore
SplineSet
258 2 m 0,0,1
 232 2 232 2 215 20.5 c 128,-1,2
 198 39 198 39 198 64 c 2,3,-1
 198 1350 l 1,4,5
 180 1359 180 1359 155 1368.5 c 128,-1,6
 130 1378 130 1378 106.5 1391 c 128,-1,7
 83 1404 83 1404 67 1421.5 c 128,-1,8
 51 1439 51 1439 51 1463 c 0,9,10
 51 1478 51 1478 58.5 1491.5 c 128,-1,11
 66 1505 66 1505 79 1513 c 0,12,13
 89 1519 89 1519 106.5 1531.5 c 128,-1,14
 124 1544 124 1544 144 1556 c 128,-1,15
 164 1568 164 1568 183 1577.5 c 128,-1,16
 202 1587 202 1587 214 1587 c 0,17,18
 222 1587 222 1587 244.5 1576.5 c 128,-1,19
 267 1566 267 1566 293.5 1552.5 c 128,-1,20
 320 1539 320 1539 343.5 1526 c 128,-1,21
 367 1513 367 1513 376 1507 c 0,22,23
 390 1499 390 1499 396.5 1488.5 c 128,-1,24
 403 1478 403 1478 405.5 1465.5 c 128,-1,25
 408 1453 408 1453 408 1439.5 c 128,-1,26
 408 1426 408 1426 408 1412 c 1,27,28
 419 1418 419 1418 444.5 1434.5 c 128,-1,29
 470 1451 470 1451 503 1471.5 c 128,-1,30
 536 1492 536 1492 572 1514 c 128,-1,31
 608 1536 608 1536 640 1554 c 128,-1,32
 672 1572 672 1572 696 1584 c 128,-1,33
 720 1596 720 1596 728 1596 c 0,34,35
 746 1596 746 1596 764 1586 c 1,36,-1
 763 1586 l 1,37,38
 897 1511 897 1511 1027.5 1434.5 c 128,-1,39
 1158 1358 1158 1358 1292 1283 c 1,40,-1
 1292 229 l 1,41,42
 1301 223 1301 223 1315.5 215 c 128,-1,43
 1330 207 1330 207 1343.5 197 c 128,-1,44
 1357 187 1357 187 1366.5 175 c 128,-1,45
 1376 163 1376 163 1376 149 c 0,46,47
 1376 139 1376 139 1372 129 c 128,-1,48
 1368 119 1368 119 1363 111 c 1,49,-1
 1364 111 l 1,50,-1
 1316 34 l 1,51,-1
 1316 35 l 1,52,53
 1308 23 1308 23 1296 13 c 128,-1,54
 1284 3 1284 3 1268 3 c 0,55,56
 1254 3 1254 3 1231.5 14 c 128,-1,57
 1209 25 1209 25 1185.5 40 c 128,-1,58
 1162 55 1162 55 1140.5 70 c 128,-1,59
 1119 85 1119 85 1108 92 c 0,60,61
 1094 101 1094 101 1087.5 114.5 c 128,-1,62
 1081 128 1081 128 1081 144 c 2,63,-1
 1081 1116 l 2,64,65
 1081 1139 1081 1139 1071.5 1157 c 128,-1,66
 1062 1175 1062 1175 1041 1185 c 1,67,-1
 1042 1185 l 1,68,-1
 635 1416 l 1,69,-1
 409 1277 l 1,70,-1
 409 117 l 2,71,72
 409 96 409 96 395.5 80 c 128,-1,73
 382 64 382 64 363 52 c 128,-1,74
 344 40 344 40 323.5 30.5 c 128,-1,75
 303 21 303 21 289 12 c 0,76,77
 274 2 274 2 258 2 c 0,0,1
EndSplineSet
EndChar

StartChar: O
Encoding: 79 79 48
Width: 1312
Flags: W
LayerCount: 2
Fore
SplineSet
1212 1248 m 2,0,-1
 1212 360 l 2,1,2
 1212 326 1212 326 1180 308 c 2,3,-1
 652 11 l 2,4,5
 638 3 638 3 622 3 c 0,6,7
 613 3 613 3 606 5.5 c 128,-1,8
 599 8 599 8 591 13 c 2,9,-1
 128 310 l 2,10,11
 100 328 100 328 100 361 c 2,12,-1
 100 1250 l 2,13,14
 100 1267 100 1267 108.5 1280.5 c 128,-1,15
 117 1294 117 1294 131 1302 c 2,16,-1
 660 1598 l 1,17,-1
 659 1598 l 1,18,19
 667 1601 667 1601 674 1603.5 c 128,-1,20
 681 1606 681 1606 689 1606 c 0,21,22
 705 1606 705 1606 722 1596 c 1,23,-1
 722 1597 l 1,24,-1
 1184 1300 l 2,25,26
 1198 1292 1198 1292 1205 1278 c 128,-1,27
 1212 1264 1212 1264 1212 1248 c 2,0,-1
1000 344 m 1,28,-1
 1000 1120 l 2,29,30
 1000 1164 1000 1164 962 1188 c 2,31,-1
 594 1426 l 1,32,-1
 313 1266 l 1,33,-1
 313 489 l 2,34,35
 313 468 313 468 322.5 450 c 128,-1,36
 332 432 332 432 350 421 c 2,37,-1
 719 184 l 1,38,-1
 1000 344 l 1,28,-1
EndSplineSet
EndChar

StartChar: P
Encoding: 80 80 49
Width: 1410
Flags: W
LayerCount: 2
Fore
SplineSet
257 -332 m 0,0,1
 231 -332 231 -332 214 -313 c 128,-1,2
 197 -294 197 -294 197 -270 c 2,3,-1
 197 338 l 1,4,-1
 82 413 l 2,5,6
 67 423 67 423 60.5 434 c 128,-1,7
 54 445 54 445 54 463 c 0,8,9
 54 482 54 482 63 495.5 c 128,-1,10
 72 509 72 509 88 517 c 2,11,-1
 198 575 l 1,12,-1
 198 1368 l 1,13,-1
 85 1425 l 1,14,15
 51 1441 51 1441 51 1479 c 0,16,17
 51 1512 51 1512 80 1531 c 2,18,-1
 182 1596 l 1,19,-1
 182 1595 l 1,20,21
 199 1605 199 1605 214 1605 c 0,22,23
 226 1605 226 1605 249 1595 c 128,-1,24
 272 1585 272 1585 297 1571.5 c 128,-1,25
 322 1558 322 1558 344.5 1545 c 128,-1,26
 367 1532 367 1532 377 1527 c 0,27,28
 394 1518 394 1518 401.5 1503.5 c 128,-1,29
 409 1489 409 1489 410.5 1472 c 128,-1,30
 412 1455 412 1455 410.5 1437 c 128,-1,31
 409 1419 409 1419 409 1403 c 1,32,33
 425 1411 425 1411 456 1429 c 128,-1,34
 487 1447 487 1447 525.5 1470 c 128,-1,35
 564 1493 564 1493 605.5 1517 c 128,-1,36
 647 1541 647 1541 683.5 1561 c 128,-1,37
 720 1581 720 1581 748 1594 c 128,-1,38
 776 1607 776 1607 786 1607 c 0,39,40
 802 1607 802 1607 819 1597 c 1,41,-1
 819 1598 l 1,42,-1
 1281 1301 l 2,43,44
 1310 1283 1310 1283 1310 1250 c 2,45,-1
 1310 369 l 2,46,47
 1310 334 1310 334 1278 316 c 2,48,-1
 750 19 l 2,49,50
 736 11 736 11 721 11 c 0,51,52
 704 11 704 11 688 21 c 2,53,-1
 409 200 l 1,54,-1
 409 -217 l 2,55,56
 409 -234 409 -234 400.5 -246.5 c 128,-1,57
 392 -259 392 -259 378 -268 c 0,58,59
 370 -273 370 -273 354 -283.5 c 128,-1,60
 338 -294 338 -294 320.5 -305 c 128,-1,61
 303 -316 303 -316 285.5 -324 c 128,-1,62
 268 -332 268 -332 257 -332 c 0,0,1
409 487 m 2,63,64
 409 470 409 470 420.5 454 c 128,-1,65
 432 438 432 438 446 430 c 1,66,-1
 446 431 l 1,67,-1
 817 192 l 1,68,-1
 1097 352 l 1,69,-1
 1097 1121 l 2,70,71
 1097 1142 1097 1142 1087.5 1160 c 128,-1,72
 1078 1178 1078 1178 1060 1189 c 2,73,-1
 692 1427 l 1,74,-1
 409 1266 l 1,75,-1
 409 487 l 2,63,64
EndSplineSet
EndChar

StartChar: Q
Encoding: 81 81 50
Width: 1364
Flags: W
LayerCount: 2
Fore
SplineSet
1184 1298 m 1,0,-1
 1183 1298 l 1,1,2
 1196 1288 1196 1288 1204 1275.5 c 128,-1,3
 1212 1263 1212 1263 1212 1246 c 2,4,-1
 1212 365 l 2,5,6
 1212 345 1212 345 1200.5 330.5 c 128,-1,7
 1189 316 1189 316 1172 304.5 c 128,-1,8
 1155 293 1155 293 1136.5 284.5 c 128,-1,9
 1118 276 1118 276 1104 268 c 1,10,-1
 1236 184 l 1,11,-1
 1235 184 l 1,12,13
 1248 175 1248 175 1255.5 161 c 128,-1,14
 1263 147 1263 147 1263 131 c 0,15,16
 1263 114 1263 114 1253 98.5 c 128,-1,17
 1243 83 1243 83 1229 69.5 c 128,-1,18
 1215 56 1215 56 1199.5 44.5 c 128,-1,19
 1184 33 1184 33 1174 24 c 0,20,21
 1166 16 1166 16 1156 11 c 128,-1,22
 1146 6 1146 6 1135 6 c 0,23,24
 1125 6 1125 6 1105.5 15 c 128,-1,25
 1086 24 1086 24 1062.5 38 c 128,-1,26
 1039 52 1039 52 1013.5 69 c 128,-1,27
 988 86 988 86 964.5 102 c 128,-1,28
 941 118 941 118 923 130.5 c 128,-1,29
 905 143 905 143 896 149 c 1,30,31
 884 143 884 143 862.5 130 c 128,-1,32
 841 117 841 117 814 101 c 128,-1,33
 787 85 787 85 757.5 68.5 c 128,-1,34
 728 52 728 52 701.5 38.5 c 128,-1,35
 675 25 675 25 653.5 16 c 128,-1,36
 632 7 632 7 622 7 c 0,37,38
 613 7 613 7 606 9.5 c 128,-1,39
 599 12 599 12 591 17 c 2,40,-1
 128 314 l 2,41,42
 100 332 100 332 100 366 c 2,43,-1
 100 1247 l 2,44,45
 100 1264 100 1264 108.5 1278 c 128,-1,46
 117 1292 117 1292 131 1300 c 2,47,-1
 660 1596 l 1,48,-1
 659 1596 l 1,49,50
 667 1599 667 1599 674 1601.5 c 128,-1,51
 681 1604 681 1604 689 1604 c 0,52,53
 704 1604 704 1604 721 1594 c 1,54,-1
 721 1595 l 1,55,-1
 1184 1298 l 1,0,-1
1000 348 m 1,56,-1
 1000 1118 l 2,57,58
 1000 1140 1000 1140 989.5 1157 c 128,-1,59
 979 1174 979 1174 961 1186 c 2,60,-1
 594 1424 l 1,61,-1
 312 1264 l 1,62,-1
 312 493 l 2,63,64
 312 472 312 472 322.5 454 c 128,-1,65
 333 436 333 436 350 425 c 2,66,-1
 718 188 l 1,67,-1
 1000 348 l 1,56,-1
EndSplineSet
EndChar

StartChar: R
Encoding: 82 82 51
Width: 1495
Flags: W
LayerCount: 2
Fore
SplineSet
824 586 m 1,0,1
 813 580 813 580 799.5 572.5 c 128,-1,2
 786 565 786 565 772 557.5 c 128,-1,3
 758 550 758 550 743.5 545 c 128,-1,4
 729 540 729 540 716 540 c 0,5,6
 702 540 702 540 689 547.5 c 128,-1,7
 676 555 676 555 665.5 566.5 c 128,-1,8
 655 578 655 578 649 592 c 128,-1,9
 643 606 643 606 643 620 c 0,10,11
 643 641 643 641 657 656 c 128,-1,12
 671 671 671 671 688 681 c 2,13,-1
 1097 918 l 1,14,-1
 1097 1113 l 2,15,16
 1097 1134 1097 1134 1086.5 1152 c 128,-1,17
 1076 1170 1076 1170 1059 1181 c 2,18,-1
 692 1419 l 1,19,-1
 409 1259 l 1,20,-1
 409 231 l 1,21,-1
 462 198 l 1,22,-1
 462 199 l 1,23,24
 475 191 475 191 484 179.5 c 128,-1,25
 493 168 493 168 493 152 c 0,26,27
 493 142 493 142 489 132 c 128,-1,28
 485 122 485 122 480 114 c 1,29,-1
 481 114 l 1,30,31
 475 104 475 104 465 86 c 128,-1,32
 455 68 455 68 443 50 c 128,-1,33
 431 32 431 32 416.5 19 c 128,-1,34
 402 6 402 6 386 6 c 0,35,36
 371 6 371 6 348.5 17 c 128,-1,37
 326 28 326 28 303 43 c 128,-1,38
 280 58 280 58 259 72.5 c 128,-1,39
 238 87 238 87 226 95 c 1,40,-1
 227 95 l 1,41,42
 198 114 198 114 198 147 c 2,43,-1
 198 1360 l 1,44,-1
 84 1417 l 2,45,46
 69 1425 69 1425 60 1440.5 c 128,-1,47
 51 1456 51 1456 51 1473 c 0,48,49
 51 1494 51 1494 66.5 1511 c 128,-1,50
 82 1528 82 1528 103 1542.5 c 128,-1,51
 124 1557 124 1557 146 1568 c 128,-1,52
 168 1579 168 1579 182 1588 c 1,53,-1
 182 1587 l 1,54,55
 199 1597 199 1597 214 1597 c 0,56,57
 221 1597 221 1597 244.5 1586 c 128,-1,58
 268 1575 268 1575 294.5 1561 c 128,-1,59
 321 1547 321 1547 345 1533.5 c 128,-1,60
 369 1520 369 1520 378 1514 c 0,61,62
 409 1495 409 1495 409 1460 c 2,63,-1
 409 1392 l 1,64,65
 422 1399 422 1399 452 1417.5 c 128,-1,66
 482 1436 482 1436 521 1459 c 128,-1,67
 560 1482 560 1482 603 1506.5 c 128,-1,68
 646 1531 646 1531 683.5 1551.5 c 128,-1,69
 721 1572 721 1572 749 1585.5 c 128,-1,70
 777 1599 777 1599 786 1599 c 0,71,72
 801 1599 801 1599 818 1589 c 1,73,-1
 818 1590 l 1,74,-1
 1281 1293 l 2,75,76
 1310 1274 1310 1274 1310 1241 c 2,77,-1
 1310 906 l 2,78,79
 1310 883 1310 883 1298.5 863.5 c 128,-1,80
 1287 844 1287 844 1267 833 c 2,81,-1
 1016 688 l 1,82,-1
 1192 255 l 1,83,-1
 1359 178 l 2,84,85
 1373 172 1373 172 1383.5 156.5 c 128,-1,86
 1394 141 1394 141 1394 126 c 0,87,88
 1394 109 1394 109 1378 87.5 c 128,-1,89
 1362 66 1362 66 1340.5 47.5 c 128,-1,90
 1319 29 1319 29 1296 16 c 128,-1,91
 1273 3 1273 3 1258 3 c 0,92,93
 1248 3 1248 3 1228 9 c 128,-1,94
 1208 15 1208 15 1183.5 24 c 128,-1,95
 1159 33 1159 33 1133 45 c 128,-1,96
 1107 57 1107 57 1084.5 69 c 128,-1,97
 1062 81 1062 81 1046 92.5 c 128,-1,98
 1030 104 1030 104 1027 112 c 2,99,-1
 824 586 l 1,0,1
EndSplineSet
EndChar

StartChar: S
Encoding: 83 83 52
Width: 1326
Flags: W
LayerCount: 2
Fore
SplineSet
1206 1276 m 0,0,1
 1206 1255 1206 1255 1192 1239 c 128,-1,2
 1178 1223 1178 1223 1158.5 1210.5 c 128,-1,3
 1139 1198 1139 1198 1118 1188.5 c 128,-1,4
 1097 1179 1097 1179 1084 1172 c 0,5,6
 1076 1168 1076 1168 1068.5 1164.5 c 128,-1,7
 1061 1161 1061 1161 1053 1161 c 0,8,9
 1043 1161 1043 1161 1036 1164 c 128,-1,10
 1029 1167 1029 1167 1021 1172 c 2,11,-1
 607 1430 l 1,12,-1
 326 1271 l 1,13,-1
 326 1103 l 2,14,15
 326 1057 326 1057 364 1034 c 1,16,-1
 364 1035 l 1,17,-1
 578 897 l 1,18,19
 588 902 588 902 610.5 915.5 c 128,-1,20
 633 929 633 929 661.5 945.5 c 128,-1,21
 690 962 690 962 721.5 980 c 128,-1,22
 753 998 753 998 781.5 1012.5 c 128,-1,23
 810 1027 810 1027 831.5 1036.5 c 128,-1,24
 853 1046 853 1046 861 1046 c 0,25,26
 870 1046 870 1046 879 1043 c 128,-1,27
 888 1040 888 1040 896 1035 c 1,28,-1
 896 1036 l 1,29,-1
 1197 842 l 2,30,31
 1226 824 1226 824 1226 791 c 2,32,-1
 1226 359 l 2,33,34
 1226 324 1226 324 1194 306 c 2,35,-1
 666 9 l 2,36,37
 652 1 652 1 637 1 c 0,38,39
 626 1 626 1 619 3.5 c 128,-1,40
 612 6 612 6 604 11 c 2,41,-1
 129 305 l 2,42,43
 116 313 116 313 108.5 325.5 c 128,-1,44
 101 338 101 338 101 354 c 0,45,46
 101 376 101 376 115 392 c 128,-1,47
 129 408 129 408 148.5 420 c 128,-1,48
 168 432 168 432 189 441 c 128,-1,49
 210 450 210 450 225 458 c 1,50,-1
 224 458 l 1,51,52
 241 465 241 465 255 465 c 0,53,54
 273 465 273 465 287 456 c 2,55,-1
 732 182 l 1,56,-1
 1013 342 l 1,57,-1
 1013 662 l 2,58,59
 1013 683 1013 683 1003.5 701 c 128,-1,60
 994 719 994 719 976 730 c 2,61,-1
 766 865 l 1,62,63
 755 859 755 859 732.5 845.5 c 128,-1,64
 710 832 710 832 681.5 815.5 c 128,-1,65
 653 799 653 799 622.5 781.5 c 128,-1,66
 592 764 592 764 564 749.5 c 128,-1,67
 536 735 536 735 514 725.5 c 128,-1,68
 492 716 492 716 482 716 c 0,69,70
 473 716 473 716 464.5 719 c 128,-1,71
 456 722 456 722 448 727 c 1,72,-1
 448 726 l 1,73,-1
 141 922 l 2,74,75
 114 940 114 940 114 974 c 2,76,-1
 114 1255 l 2,77,78
 114 1272 114 1272 122.5 1285.5 c 128,-1,79
 131 1299 131 1299 145 1307 c 0,80,81
 158 1314 158 1314 186.5 1331 c 128,-1,82
 215 1348 215 1348 254 1370.5 c 128,-1,83
 293 1393 293 1393 339.5 1419.5 c 128,-1,84
 386 1446 386 1446 433 1472.5 c 128,-1,85
 480 1499 480 1499 525 1524 c 128,-1,86
 570 1549 570 1549 606.5 1568 c 128,-1,87
 643 1587 643 1587 668.5 1598.5 c 128,-1,88
 694 1610 694 1610 702 1610 c 0,89,90
 711 1610 711 1610 719.5 1607.5 c 128,-1,91
 728 1605 728 1605 736 1601 c 1,92,-1
 736 1602 l 1,93,-1
 1176 1327 l 2,94,95
 1206 1308 1206 1308 1206 1276 c 0,0,1
EndSplineSet
EndChar

StartChar: T
Encoding: 84 84 53
Width: 881
Flags: W
LayerCount: 2
Fore
SplineSet
794 1368 m 1,0,-1
 554 1235 l 1,1,-1
 554 328 l 2,2,3
 554 282 554 282 595 258 c 2,4,-1
 738 174 l 1,5,-1
 738 175 l 1,6,7
 752 166 752 166 760.5 151.5 c 128,-1,8
 769 137 769 137 769 120 c 0,9,10
 769 106 769 106 751.5 85 c 128,-1,11
 734 64 734 64 710.5 44 c 128,-1,12
 687 24 687 24 664 9.5 c 128,-1,13
 641 -5 641 -5 630 -5 c 0,14,15
 620 -5 620 -5 600.5 3.5 c 128,-1,16
 581 12 581 12 555.5 25 c 128,-1,17
 530 38 530 38 502 54 c 128,-1,18
 474 70 474 70 449 84.5 c 128,-1,19
 424 99 424 99 403.5 111.5 c 128,-1,20
 383 124 383 124 373 129 c 0,21,22
 343 146 343 146 343 181 c 2,23,-1
 343 1219 l 2,24,25
 343 1254 343 1254 374 1272 c 2,26,-1
 550 1370 l 1,27,-1
 111 1368 l 2,28,29
 82 1368 82 1368 66 1386 c 128,-1,30
 50 1404 50 1404 50 1432 c 0,31,32
 50 1448 50 1448 58 1460 c 128,-1,33
 66 1472 66 1472 79 1480 c 1,34,-1
 79 1479 l 1,35,36
 89 1485 89 1485 112 1500.5 c 128,-1,37
 135 1516 135 1516 161.5 1532.5 c 128,-1,38
 188 1549 188 1549 212 1561.5 c 128,-1,39
 236 1574 236 1574 248 1574 c 2,40,-1
 1057 1574 l 2,41,42
 1080 1574 1080 1574 1094.5 1562 c 128,-1,43
 1109 1550 1109 1550 1115 1529 c 1,44,-1
 1115 1530 l 1,45,46
 1118 1519 1118 1519 1118 1509 c 0,47,48
 1118 1478 1118 1478 1089 1460 c 1,49,-1
 1089 1461 l 1,50,51
 1045 1434 1045 1434 1019.5 1416.5 c 128,-1,52
 994 1399 994 1399 977 1389 c 128,-1,53
 960 1379 960 1379 947 1374 c 128,-1,54
 934 1369 934 1369 916 1368 c 128,-1,55
 898 1367 898 1367 870 1367.5 c 128,-1,56
 842 1368 842 1368 794 1368 c 1,0,-1
EndSplineSet
EndChar

StartChar: U
Encoding: 85 85 54
Width: 1447
Flags: W
LayerCount: 2
Fore
SplineSet
1109 1539 m 1,0,-1
 1109 1538 l 1,1,2
 1119 1544 1119 1544 1134.5 1555 c 128,-1,3
 1150 1566 1150 1566 1167.5 1576 c 128,-1,4
 1185 1586 1185 1586 1201.5 1593.5 c 128,-1,5
 1218 1601 1218 1601 1232 1601 c 0,6,7
 1258 1601 1258 1601 1275 1583 c 128,-1,8
 1292 1565 1292 1565 1292 1540 c 2,9,-1
 1292 220 l 1,10,11
 1300 214 1300 214 1314 206 c 128,-1,12
 1328 198 1328 198 1341.5 188 c 128,-1,13
 1355 178 1355 178 1365 166 c 128,-1,14
 1375 154 1375 154 1375 141 c 0,15,16
 1375 130 1375 130 1371 120.5 c 128,-1,17
 1367 111 1367 111 1362 102 c 1,18,-1
 1363 102 l 1,19,20
 1357 92 1357 92 1347.5 74 c 128,-1,21
 1338 56 1338 56 1326 38 c 128,-1,22
 1314 20 1314 20 1299 7 c 128,-1,23
 1284 -6 1284 -6 1268 -6 c 0,24,25
 1258 -6 1258 -6 1248.5 -2 c 128,-1,26
 1239 2 1239 2 1231 7 c 1,27,-1
 1231 6 l 1,28,29
 1196 28 1196 28 1171 41 c 128,-1,30
 1146 54 1146 54 1129 64 c 128,-1,31
 1112 74 1112 74 1102.5 83 c 128,-1,32
 1093 92 1093 92 1088 106 c 128,-1,33
 1083 120 1083 120 1081.5 142 c 128,-1,34
 1080 164 1080 164 1080 200 c 1,35,36
 1066 192 1066 192 1037.5 174.5 c 128,-1,37
 1009 157 1009 157 972.5 135 c 128,-1,38
 936 113 936 113 896 89.5 c 128,-1,39
 856 66 856 66 820.5 47 c 128,-1,40
 785 28 785 28 758 15.5 c 128,-1,41
 731 3 731 3 720 3 c 0,42,43
 702 3 702 3 688 13 c 2,44,-1
 225 310 l 2,45,46
 198 327 198 327 198 361 c 2,47,-1
 198 1358 l 1,48,-1
 84 1416 l 2,49,50
 51 1432 51 1432 51 1470 c 0,51,52
 51 1486 51 1486 58.5 1498.5 c 128,-1,53
 66 1511 66 1511 79 1519 c 0,54,55
 89 1525 89 1525 106 1538 c 128,-1,56
 123 1551 123 1551 142.5 1564 c 128,-1,57
 162 1577 162 1577 180.5 1586.5 c 128,-1,58
 199 1596 199 1596 212 1596 c 0,59,60
 220 1596 220 1596 227.5 1593.5 c 128,-1,61
 235 1591 235 1591 243 1587 c 1,62,-1
 242 1587 l 1,63,64
 259 1577 259 1577 288 1563 c 128,-1,65
 317 1549 317 1549 345 1532.5 c 128,-1,66
 373 1516 373 1516 393.5 1496 c 128,-1,67
 414 1476 414 1476 414 1454 c 2,68,-1
 414 483 l 2,69,70
 414 462 414 462 424.5 446 c 128,-1,71
 435 430 435 430 452 419 c 2,72,-1
 816 184 l 1,73,-1
 1080 341 l 1,74,-1
 1080 1486 l 2,75,76
 1080 1520 1080 1520 1109 1539 c 1,0,-1
EndSplineSet
EndChar

StartChar: V
Encoding: 86 86 55
Width: 1372
Flags: W
LayerCount: 2
Fore
SplineSet
1310 1243 m 2,0,-1
 1310 360 l 2,1,2
 1310 326 1310 326 1278 308 c 2,3,-1
 750 11 l 2,4,5
 736 3 736 3 721 3 c 0,6,7
 704 3 704 3 688 13 c 2,8,-1
 225 310 l 2,9,10
 198 327 198 327 198 361 c 2,11,-1
 198 1362 l 1,12,-1
 85 1419 l 2,13,14
 70 1427 70 1427 60.5 1441 c 128,-1,15
 51 1455 51 1455 51 1472 c 0,16,17
 51 1507 51 1507 80 1525 c 2,18,-1
 182 1590 l 1,19,-1
 182 1589 l 1,20,21
 199 1599 199 1599 214 1599 c 0,22,23
 226 1599 226 1599 249 1588.5 c 128,-1,24
 272 1578 272 1578 297.5 1564 c 128,-1,25
 323 1550 323 1550 345 1536.5 c 128,-1,26
 367 1523 367 1523 378 1517 c 0,27,28
 395 1508 395 1508 402 1493.5 c 128,-1,29
 409 1479 409 1479 411 1461.5 c 128,-1,30
 413 1444 413 1444 412 1426 c 128,-1,31
 411 1408 411 1408 411 1393 c 1,32,-1
 758 1593 l 1,33,-1
 757 1593 l 1,34,35
 765 1596 765 1596 772 1598.5 c 128,-1,36
 779 1601 779 1601 787 1601 c 0,37,38
 803 1601 803 1601 820 1591 c 1,39,-1
 820 1592 l 1,40,-1
 1281 1295 l 2,41,42
 1310 1277 1310 1277 1310 1243 c 2,0,-1
411 489 m 2,43,44
 411 468 411 468 420.5 450 c 128,-1,45
 430 432 430 432 447 421 c 2,46,-1
 817 184 l 1,47,-1
 1097 344 l 1,48,-1
 1097 1115 l 2,49,50
 1097 1160 1097 1160 1060 1184 c 2,51,-1
 692 1421 l 1,52,-1
 411 1261 l 1,53,-1
 411 489 l 2,43,44
EndSplineSet
EndChar

StartChar: W
Encoding: 87 87 56
Width: 2178
Flags: W
LayerCount: 2
Fore
SplineSet
198 1367 m 1,0,-1
 84 1429 l 2,1,2
 68 1438 68 1438 59.5 1450 c 128,-1,3
 51 1462 51 1462 51 1481 c 0,4,5
 51 1497 51 1497 58.5 1510.5 c 128,-1,6
 66 1524 66 1524 79 1532 c 0,7,8
 88 1538 88 1538 105 1551 c 128,-1,9
 122 1564 122 1564 141.5 1577 c 128,-1,10
 161 1590 161 1590 180 1599.5 c 128,-1,11
 199 1609 199 1609 212 1609 c 0,12,13
 220 1609 220 1609 227.5 1606.5 c 128,-1,14
 235 1604 235 1604 243 1600 c 1,15,-1
 242 1600 l 1,16,17
 288 1574 288 1574 319 1559 c 128,-1,18
 350 1544 350 1544 369 1532.5 c 128,-1,19
 388 1521 388 1521 397 1509.5 c 128,-1,20
 406 1498 406 1498 410 1479.5 c 128,-1,21
 414 1461 414 1461 413.5 1431.5 c 128,-1,22
 413 1402 413 1402 413 1354 c 1,23,-1
 857 1599 l 1,24,-1
 856 1599 l 1,25,26
 864 1602 864 1602 871 1604.5 c 128,-1,27
 878 1607 878 1607 886 1607 c 0,28,29
 902 1607 902 1607 919 1597 c 1,30,-1
 919 1598 l 1,31,-1
 1262 1375 l 1,32,-1
 1665 1599 l 1,33,-1
 1664 1599 l 1,34,35
 1672 1602 1672 1602 1679 1604.5 c 128,-1,36
 1686 1607 1686 1607 1694 1607 c 0,37,38
 1710 1607 1710 1607 1727 1597 c 1,39,-1
 1727 1598 l 1,40,-1
 2050 1387 l 2,41,42
 2078 1368 2078 1368 2078 1336 c 2,43,-1
 2078 372 l 2,44,45
 2078 336 2078 336 2046 318 c 2,46,-1
 1458 -4 l 2,47,48
 1444 -12 1444 -12 1429 -12 c 0,49,50
 1420 -12 1420 -12 1412.5 -9.5 c 128,-1,51
 1405 -7 1405 -7 1397 -2 c 2,52,-1
 1069 211 l 2,53,54
 1062 216 1062 216 1057 226 c 128,-1,55
 1052 236 1052 236 1049 243 c 1,56,-1
 607 -4 l 2,57,58
 593 -12 593 -12 577 -12 c 0,59,60
 559 -12 559 -12 545 -2 c 2,61,-1
 225 205 l 2,62,63
 198 222 198 222 198 256 c 2,64,-1
 198 1367 l 1,0,-1
413 1219 m 1,65,-1
 413 383 l 2,66,67
 413 361 413 361 423 344.5 c 128,-1,68
 433 328 433 328 450 315 c 0,69,70
 504 276 504 276 560.5 240.5 c 128,-1,71
 617 205 617 205 674 169 c 1,72,-1
 1049 382 l 1,73,-1
 1050 1211 l 2,74,75
 1050 1234 1050 1234 1041.5 1249.5 c 128,-1,76
 1033 1265 1033 1265 1015 1279 c 0,77,78
 961 1318 961 1318 904 1354 c 128,-1,79
 847 1390 847 1390 791 1427 c 1,80,-1
 413 1219 l 1,65,-1
1861 1211 m 2,81,82
 1861 1254 1861 1254 1824 1279 c 0,83,84
 1767 1316 1767 1316 1710.5 1352 c 128,-1,85
 1654 1388 1654 1388 1599 1427 c 1,86,-1
 1262 1240 l 1,87,-1
 1262 385 l 2,88,89
 1262 363 1262 363 1271 345 c 128,-1,90
 1280 327 1280 327 1299 316 c 1,91,-1
 1298 317 l 1,92,93
 1355 279 1355 279 1410.5 242 c 128,-1,94
 1466 205 1466 205 1523 169 c 1,95,-1
 1861 360 l 1,96,-1
 1861 1211 l 2,81,82
EndSplineSet
EndChar

StartChar: X
Encoding: 88 88 57
Width: 1394
Flags: W
LayerCount: 2
Fore
SplineSet
804 757 m 1,0,-1
 804 444 l 2,1,2
 804 433 804 433 816.5 418 c 128,-1,3
 829 403 829 403 838 398 c 2,4,-1
 1274 167 l 1,5,-1
 1273 168 l 1,6,7
 1302 149 1302 149 1302 116 c 0,8,9
 1302 84 1302 84 1274 66 c 0,10,11
 1266 61 1266 61 1251 50.5 c 128,-1,12
 1236 40 1236 40 1218.5 29 c 128,-1,13
 1201 18 1201 18 1184 9.5 c 128,-1,14
 1167 1 1167 1 1156 1 c 0,15,16
 1147 1 1147 1 1111.5 17.5 c 128,-1,17
 1076 34 1076 34 1027.5 59 c 128,-1,18
 979 84 979 84 923.5 114 c 128,-1,19
 868 144 868 144 818 171.5 c 128,-1,20
 768 199 768 199 730 220 c 128,-1,21
 692 241 692 241 678 248 c 1,22,-1
 244 5 l 2,23,24
 230 -3 230 -3 214 -3 c 0,25,26
 199 -3 199 -3 178.5 7 c 128,-1,27
 158 17 158 17 138 30.5 c 128,-1,28
 118 44 118 44 99.5 57.5 c 128,-1,29
 81 71 81 71 70 79 c 0,30,31
 59 86 59 86 54.5 98.5 c 128,-1,32
 50 111 50 111 50 124 c 0,33,34
 50 155 50 155 77 174 c 0,35,36
 85 180 85 180 99.5 191.5 c 128,-1,37
 114 203 114 203 130 214.5 c 128,-1,38
 146 226 146 226 162.5 234.5 c 128,-1,39
 179 243 179 243 191 243 c 0,40,41
 202 243 202 243 219 234.5 c 128,-1,42
 236 226 236 226 253.5 214.5 c 128,-1,43
 271 203 271 203 286.5 192 c 128,-1,44
 302 181 302 181 309 177 c 1,45,-1
 588 335 l 1,46,-1
 588 757 l 1,47,-1
 209 757 l 2,48,49
 181 757 181 757 164.5 775.5 c 128,-1,50
 148 794 148 794 148 821 c 0,51,52
 148 837 148 837 156.5 849.5 c 128,-1,53
 165 862 165 862 178 870 c 1,54,-1
 178 869 l 1,55,56
 234 895 234 895 265.5 911 c 128,-1,57
 297 927 297 927 318.5 935.5 c 128,-1,58
 340 944 340 944 357 946.5 c 128,-1,59
 374 949 374 949 401 948.5 c 128,-1,60
 428 948 428 948 471 946 c 128,-1,61
 514 944 514 944 588 944 c 1,62,-1
 588 1155 l 1,63,64
 583 1169 583 1169 574 1181.5 c 128,-1,65
 565 1194 565 1194 551 1201 c 2,66,-1
 80 1448 l 2,67,68
 65 1456 65 1456 58 1468.5 c 128,-1,69
 51 1481 51 1481 51 1498 c 0,70,71
 51 1534 51 1534 84 1551 c 0,72,73
 95 1557 95 1557 110 1566.5 c 128,-1,74
 125 1576 125 1576 141.5 1585.5 c 128,-1,75
 158 1595 158 1595 174 1601.5 c 128,-1,76
 190 1608 190 1608 204 1608 c 0,77,78
 212 1608 212 1608 220.5 1605.5 c 128,-1,79
 229 1603 229 1603 237 1599 c 2,80,-1
 712 1350 l 1,81,-1
 1147 1593 l 1,82,-1
 1146 1593 l 1,83,84
 1154 1596 1154 1596 1161 1598.5 c 128,-1,85
 1168 1601 1168 1601 1176 1601 c 0,86,87
 1185 1601 1185 1601 1193 1598 c 128,-1,88
 1201 1595 1201 1595 1209 1591 c 1,89,-1
 1209 1592 l 1,90,-1
 1308 1528 l 1,91,-1
 1307 1528 l 1,92,93
 1320 1519 1320 1519 1327.5 1506.5 c 128,-1,94
 1335 1494 1335 1494 1335 1478 c 0,95,96
 1335 1456 1335 1456 1322.5 1440.5 c 128,-1,97
 1310 1425 1310 1425 1292 1413 c 128,-1,98
 1274 1401 1274 1401 1254 1391.5 c 128,-1,99
 1234 1382 1234 1382 1218 1373 c 0,100,101
 1201 1363 1201 1363 1186 1363 c 0,102,103
 1172 1363 1172 1363 1158 1369.5 c 128,-1,104
 1144 1376 1144 1376 1130 1385.5 c 128,-1,105
 1116 1395 1116 1395 1103 1405 c 128,-1,106
 1090 1415 1090 1415 1080 1421 c 1,107,-1
 804 1263 l 1,108,-1
 804 944 l 1,109,-1
 1156 944 l 2,110,111
 1182 944 1182 944 1199 925 c 128,-1,112
 1216 906 1216 906 1216 880 c 0,113,114
 1216 866 1216 866 1208.5 852 c 128,-1,115
 1201 838 1201 838 1187 831 c 0,116,117
 1134 805 1134 805 1103.5 790 c 128,-1,118
 1073 775 1073 775 1053 766.5 c 128,-1,119
 1033 758 1033 758 1016.5 755.5 c 128,-1,120
 1000 753 1000 753 975 753.5 c 128,-1,121
 950 754 950 754 910.5 755.5 c 128,-1,122
 871 757 871 757 804 757 c 1,0,-1
EndSplineSet
EndChar

StartChar: Y
Encoding: 89 89 58
Width: 1409
Flags: W
LayerCount: 2
Fore
SplineSet
258 7 m 0,0,1
 232 7 232 7 215 25.5 c 128,-1,2
 198 44 198 44 198 69 c 2,3,-1
 198 1363 l 1,4,-1
 85 1420 l 2,5,6
 51 1438 51 1438 51 1477 c 0,7,8
 51 1492 51 1492 59 1505 c 128,-1,9
 67 1518 67 1518 80 1526 c 0,10,11
 90 1532 90 1532 108 1544.5 c 128,-1,12
 126 1557 126 1557 145.5 1569.5 c 128,-1,13
 165 1582 165 1582 183.5 1591 c 128,-1,14
 202 1600 202 1600 214 1600 c 0,15,16
 220 1600 220 1600 229 1597.5 c 128,-1,17
 238 1595 238 1595 243 1592 c 2,18,-1
 376 1520 l 2,19,20
 391 1512 391 1512 398.5 1502 c 128,-1,21
 406 1492 406 1492 408.5 1480.5 c 128,-1,22
 411 1469 411 1469 410.5 1455.5 c 128,-1,23
 410 1442 410 1442 410 1426 c 1,24,25
 421 1433 421 1433 446.5 1449 c 128,-1,26
 472 1465 472 1465 504.5 1485.5 c 128,-1,27
 537 1506 537 1506 573 1527.5 c 128,-1,28
 609 1549 609 1549 640.5 1567.5 c 128,-1,29
 672 1586 672 1586 696 1597.5 c 128,-1,30
 720 1609 720 1609 729 1609 c 0,31,32
 746 1609 746 1609 764 1599 c 1,33,-1
 763 1599 l 1,34,-1
 1263 1313 l 2,35,36
 1277 1305 1277 1305 1285 1291 c 128,-1,37
 1293 1277 1293 1277 1293 1260 c 2,38,-1
 1293 163 l 2,39,40
 1293 149 1293 149 1294 127 c 128,-1,41
 1295 105 1295 105 1294.5 82.5 c 128,-1,42
 1294 60 1294 60 1291 40 c 128,-1,43
 1288 20 1288 20 1281 9 c 2,44,-1
 1124 -216 l 2,45,46
 1118 -225 1118 -225 1091 -240.5 c 128,-1,47
 1064 -256 1064 -256 1032.5 -271.5 c 128,-1,48
 1001 -287 1001 -287 971.5 -300.5 c 128,-1,49
 942 -314 942 -314 930 -320 c 0,50,51
 916 -328 916 -328 900 -328 c 0,52,53
 877 -328 877 -328 858.5 -309 c 128,-1,54
 840 -290 840 -290 840 -267 c 0,55,56
 840 -258 840 -258 855.5 -229 c 128,-1,57
 871 -200 871 -200 895 -161 c 128,-1,58
 919 -122 919 -122 948.5 -78 c 128,-1,59
 978 -34 978 -34 1004.5 6 c 128,-1,60
 1031 46 1031 46 1052 76.5 c 128,-1,61
 1073 107 1073 107 1081 120 c 1,62,-1
 1081 1129 l 2,63,64
 1081 1152 1081 1152 1071.5 1169.5 c 128,-1,65
 1062 1187 1062 1187 1042 1198 c 1,66,-1
 1043 1198 l 1,67,-1
 635 1429 l 1,68,-1
 410 1290 l 1,69,-1
 410 123 l 2,70,71
 410 89 410 89 380 71 c 0,72,73
 371 66 371 66 354.5 55 c 128,-1,74
 338 44 338 44 320 33.5 c 128,-1,75
 302 23 302 23 285 15 c 128,-1,76
 268 7 268 7 258 7 c 0,0,1
EndSplineSet
EndChar

StartChar: Z
Encoding: 90 90 59
Width: 1364
Flags: W
LayerCount: 2
Fore
SplineSet
853 1373 m 1,0,-1
 137 1373 l 2,1,2
 109 1373 109 1373 93 1392.5 c 128,-1,3
 77 1412 77 1412 77 1439 c 0,4,5
 77 1454 77 1454 85.5 1465.5 c 128,-1,6
 94 1477 94 1477 106 1485 c 1,7,-1
 106 1484 l 1,8,9
 118 1491 118 1491 140.5 1506.5 c 128,-1,10
 163 1522 163 1522 188.5 1538 c 128,-1,11
 214 1554 214 1554 237.5 1566 c 128,-1,12
 261 1578 261 1578 275 1578 c 2,13,-1
 1084 1578 l 2,14,15
 1111 1578 1111 1578 1127.5 1560.5 c 128,-1,16
 1144 1543 1144 1543 1144 1516 c 0,17,18
 1144 1499 1144 1499 1137.5 1489 c 128,-1,19
 1131 1479 1131 1479 1120 1468 c 2,20,-1
 807 1167 l 1,21,22
 907 1110 907 1110 1006 1053.5 c 128,-1,23
 1105 997 1105 997 1204 937 c 0,24,25
 1233 919 1233 919 1233 885 c 2,26,-1
 1233 11 l 2,27,28
 1233 -24 1233 -24 1203 -41 c 2,29,-1
 674 -337 l 1,30,-1
 675 -337 l 1,31,32
 667 -340 667 -340 660 -342.5 c 128,-1,33
 653 -345 653 -345 645 -345 c 0,34,35
 634 -345 634 -345 627.5 -342.5 c 128,-1,36
 621 -340 621 -340 612 -335 c 2,37,-1
 81 -26 l 2,38,39
 50 -8 50 -8 50 27 c 0,40,41
 50 44 50 44 59.5 57.5 c 128,-1,42
 69 71 69 71 84 79 c 1,43,-1
 83 79 l 1,44,45
 93 84 93 84 110.5 94 c 128,-1,46
 128 104 128 104 147 114 c 128,-1,47
 166 124 166 124 184.5 131.5 c 128,-1,48
 203 139 203 139 215 139 c 0,49,50
 225 139 225 139 263.5 119 c 128,-1,51
 302 99 302 99 355 68.5 c 128,-1,52
 408 38 408 38 469 1 c 128,-1,53
 530 -36 530 -36 585 -70 c 128,-1,54
 640 -104 640 -104 682 -130 c 128,-1,55
 724 -156 724 -156 740 -165 c 1,56,-1
 1021 -5 l 1,57,-1
 1021 752 l 2,58,59
 1021 773 1021 773 1012 791.5 c 128,-1,60
 1003 810 1003 810 984 821 c 2,61,-1
 614 1037 l 1,62,63
 584 1053 584 1053 584 1089 c 0,64,65
 584 1100 584 1100 589.5 1112 c 128,-1,66
 595 1124 595 1124 603 1132 c 2,67,-1
 853 1373 l 1,0,-1
EndSplineSet
EndChar

StartChar: bracketleft
Encoding: 91 91 60
Width: 795
Flags: W
LayerCount: 2
Fore
SplineSet
345 1508 m 1,0,-1
 345 69 l 1,1,-1
 634 69 l 2,2,3
 660 69 660 69 677 50 c 128,-1,4
 694 31 694 31 694 5 c 0,5,6
 694 -26 694 -26 665 -44 c 1,7,-1
 665 -43 l 1,8,9
 651 -52 651 -52 629.5 -67.5 c 128,-1,10
 608 -83 608 -83 584 -98 c 128,-1,11
 560 -113 560 -113 536.5 -124.5 c 128,-1,12
 513 -136 513 -136 496 -136 c 2,13,-1
 195 -136 l 2,14,15
 162 -136 162 -136 147.5 -114.5 c 128,-1,16
 133 -93 133 -93 133 -64 c 2,17,-1
 133 1598 l 2,18,19
 133 1630 133 1630 163 1649 c 0,20,21
 172 1654 172 1654 188 1664.5 c 128,-1,22
 204 1675 204 1675 222 1685.5 c 128,-1,23
 240 1696 240 1696 256 1703.5 c 128,-1,24
 272 1711 272 1711 281 1711 c 2,25,-1
 634 1712 l 2,26,27
 660 1712 660 1712 677 1693.5 c 128,-1,28
 694 1675 694 1675 694 1649 c 0,29,30
 694 1618 694 1618 665 1600 c 1,31,-1
 665 1601 l 1,32,33
 619 1572 619 1572 592 1554 c 128,-1,34
 565 1536 565 1536 547.5 1525.5 c 128,-1,35
 530 1515 530 1515 516 1511 c 128,-1,36
 502 1507 502 1507 482 1506.5 c 128,-1,37
 462 1506 462 1506 430 1507 c 128,-1,38
 398 1508 398 1508 345 1508 c 1,0,-1
EndSplineSet
EndChar

StartChar: backslash
Encoding: 92 92 61
Width: 1055
Flags: W
LayerCount: 2
Fore
SplineSet
955 133 m 0,0,1
 955 113 955 113 940.5 96.5 c 128,-1,2
 926 80 926 80 906 80 c 0,3,4
 889 80 889 80 872.5 88 c 128,-1,5
 856 96 856 96 842 106 c 1,6,-1
 109 1384 l 2,7,8
 100 1399 100 1399 100 1416 c 0,9,10
 100 1438 100 1438 118.5 1457 c 128,-1,11
 137 1476 137 1476 159 1476 c 0,12,13
 175 1476 175 1476 190 1467 c 128,-1,14
 205 1458 205 1458 213 1444 c 2,15,-1
 945 165 l 2,16,17
 950 157 950 157 952.5 149.5 c 128,-1,18
 955 142 955 142 955 133 c 0,0,1
EndSplineSet
EndChar

StartChar: bracketright
Encoding: 93 93 62
Width: 834
Flags: W
LayerCount: 2
Fore
SplineSet
449 68 m 1,0,-1
 449 1507 l 1,1,-1
 160 1507 l 2,2,3
 133 1507 133 1507 117 1526 c 128,-1,4
 101 1545 101 1545 101 1571 c 0,5,6
 101 1602 101 1602 129 1619 c 1,7,-1
 129 1618 l 1,8,9
 141 1625 141 1625 163.5 1640.5 c 128,-1,10
 186 1656 186 1656 211 1672 c 128,-1,11
 236 1688 236 1688 259.5 1699.5 c 128,-1,12
 283 1711 283 1711 298 1711 c 2,13,-1
 600 1711 l 2,14,15
 633 1711 633 1711 647.5 1689.5 c 128,-1,16
 662 1668 662 1668 662 1639 c 2,17,-1
 662 -22 l 2,18,19
 662 -55 662 -55 631 -74 c 0,20,21
 622 -79 622 -79 605.5 -89 c 128,-1,22
 589 -99 589 -99 571 -109.5 c 128,-1,23
 553 -120 553 -120 537 -128 c 128,-1,24
 521 -136 521 -136 513 -136 c 2,25,-1
 160 -137 l 2,26,27
 133 -137 133 -137 117 -117.5 c 128,-1,28
 101 -98 101 -98 101 -72 c 0,29,30
 101 -41 101 -41 129 -24 c 1,31,-1
 129 -25 l 1,32,33
 176 3 176 3 203 21 c 128,-1,34
 230 39 230 39 247.5 49.5 c 128,-1,35
 265 60 265 60 279 64 c 128,-1,36
 293 68 293 68 312.5 69 c 128,-1,37
 332 70 332 70 364 69 c 128,-1,38
 396 68 396 68 449 68 c 1,0,-1
EndSplineSet
EndChar

StartChar: asciicircum
Encoding: 94 94 63
Width: 1181
Flags: W
LayerCount: 2
Fore
SplineSet
100 1267 m 0,0,1
 100 1290 100 1290 112.5 1301.5 c 128,-1,2
 125 1313 125 1313 142 1323 c 2,3,-1
 630 1598 l 1,4,-1
 629 1598 l 1,5,6
 637 1601 637 1601 644 1603.5 c 128,-1,7
 651 1606 651 1606 659 1606 c 0,8,9
 668 1606 668 1606 676 1603 c 128,-1,10
 684 1600 684 1600 692 1596 c 1,11,-1
 692 1597 l 1,12,-1
 1062 1359 l 2,13,14
 1072 1352 1072 1352 1076.5 1338.5 c 128,-1,15
 1081 1325 1081 1325 1081 1314 c 0,16,17
 1081 1287 1081 1287 1067 1272 c 128,-1,18
 1053 1257 1053 1257 1030 1245 c 1,19,-1
 1031 1245 l 1,20,-1
 937 1209 l 1,21,22
 925 1210 925 1210 909.5 1211 c 128,-1,23
 894 1212 894 1212 883 1219 c 2,24,-1
 564 1426 l 1,25,-1
 210 1224 l 2,26,27
 198 1217 198 1217 187.5 1211.5 c 128,-1,28
 177 1206 177 1206 163 1206 c 0,29,30
 137 1206 137 1206 118.5 1223.5 c 128,-1,31
 100 1241 100 1241 100 1267 c 0,0,1
EndSplineSet
EndChar

StartChar: underscore
Encoding: 95 95 64
Width: 1971
Flags: W
LayerCount: 2
Fore
SplineSet
1649 -225 m 2,0,-1
 161 -225 l 2,1,2
 133 -225 133 -225 116.5 -206.5 c 128,-1,3
 100 -188 100 -188 100 -161 c 0,4,5
 100 -145 100 -145 108 -132.5 c 128,-1,6
 116 -120 116 -120 129 -112 c 1,7,-1
 129 -113 l 1,8,9
 142 -105 142 -105 164 -89.5 c 128,-1,10
 186 -74 186 -74 210.5 -58.5 c 128,-1,11
 235 -43 235 -43 258.5 -31.5 c 128,-1,12
 282 -20 282 -20 298 -20 c 2,13,-1
 1810 -20 l 2,14,15
 1838 -20 1838 -20 1854 -38.5 c 128,-1,16
 1870 -57 1870 -57 1870 -84 c 0,17,18
 1870 -100 1870 -100 1862.5 -112.5 c 128,-1,19
 1855 -125 1855 -125 1842 -133 c 1,20,-1
 1842 -132 l 1,21,-1
 1704 -217 l 2,22,23
 1694 -223 1694 -223 1677 -224 c 128,-1,24
 1660 -225 1660 -225 1649 -225 c 2,0,-1
EndSplineSet
EndChar

StartChar: grave
Encoding: 96 96 65
Width: 712
Flags: W
LayerCount: 2
Fore
SplineSet
100 1503 m 0,0,1
 100 1523 100 1523 111 1536.5 c 128,-1,2
 122 1550 122 1550 139 1558 c 0,3,4
 149 1563 149 1563 165 1572 c 128,-1,5
 181 1581 181 1581 198 1589.5 c 128,-1,6
 215 1598 215 1598 231.5 1604.5 c 128,-1,7
 248 1611 248 1611 259 1611 c 0,8,9
 269 1611 269 1611 294 1599.5 c 128,-1,10
 319 1588 319 1588 352 1569.5 c 128,-1,11
 385 1551 385 1551 422 1529.5 c 128,-1,12
 459 1508 459 1508 493 1487.5 c 128,-1,13
 527 1467 527 1467 553.5 1450.5 c 128,-1,14
 580 1434 580 1434 592 1427 c 1,15,-1
 590 1429 l 1,16,17
 612 1412 612 1412 612 1383 c 0,18,19
 612 1357 612 1357 597 1341.5 c 128,-1,20
 582 1326 582 1326 560 1314 c 1,21,-1
 561 1314 l 1,22,-1
 467 1278 l 1,23,24
 453 1279 453 1279 437.5 1280.5 c 128,-1,25
 422 1282 422 1282 410 1291 c 0,26,27
 397 1300 397 1300 369 1317 c 128,-1,28
 341 1334 341 1334 307 1354 c 128,-1,29
 273 1374 273 1374 236 1396.5 c 128,-1,30
 199 1419 199 1419 169 1439.5 c 128,-1,31
 139 1460 139 1460 119.5 1476.5 c 128,-1,32
 100 1493 100 1493 100 1503 c 0,0,1
EndSplineSet
EndChar

StartChar: a
Encoding: 97 97 66
Width: 1188
Flags: W
LayerCount: 2
Fore
SplineSet
572 1200 m 0,0,1
 580 1200 580 1200 587.5 1198 c 128,-1,2
 595 1196 595 1196 603 1193 c 1,3,-1
 602 1193 l 1,4,-1
 848 1061 l 1,5,6
 848 1094 848 1094 855 1111.5 c 128,-1,7
 862 1129 862 1129 877 1140 c 128,-1,8
 892 1151 892 1151 915 1160 c 128,-1,9
 938 1169 938 1169 969 1186 c 0,10,11
 975 1189 975 1189 982.5 1191.5 c 128,-1,12
 990 1194 990 1194 997 1194 c 0,13,14
 1010 1194 1010 1194 1023.5 1188 c 128,-1,15
 1037 1182 1037 1182 1048 1171.5 c 128,-1,16
 1059 1161 1059 1161 1066.5 1148 c 128,-1,17
 1074 1135 1074 1135 1074 1122 c 2,18,-1
 1074 189 l 1,19,-1
 1104 176 l 1,20,-1
 1103 176 l 1,21,22
 1137 158 1137 158 1137 118 c 0,23,24
 1137 99 1137 99 1125 84.5 c 128,-1,25
 1113 70 1113 70 1096 58 c 128,-1,26
 1079 46 1079 46 1061 36.5 c 128,-1,27
 1043 27 1043 27 1031 20 c 1,28,-1
 1031 21 l 1,29,30
 1023 16 1023 16 1014.5 13 c 128,-1,31
 1006 10 1006 10 997 10 c 0,32,33
 989 10 989 10 981 13 c 128,-1,34
 973 16 973 16 966 20 c 1,35,-1
 966 19 l 1,36,37
 931 41 931 41 911 51.5 c 128,-1,38
 891 62 891 62 880 73.5 c 128,-1,39
 869 85 869 85 866 103.5 c 128,-1,40
 863 122 863 122 863 160 c 1,41,-1
 587 12 l 1,42,-1
 588 12 l 1,43,44
 580 9 580 9 572.5 6 c 128,-1,45
 565 3 565 3 557 3 c 0,46,47
 548 3 548 3 517 19.5 c 128,-1,48
 486 36 486 36 443 62 c 128,-1,49
 400 88 400 88 351 118.5 c 128,-1,50
 302 149 302 149 258 177 c 128,-1,51
 214 205 214 205 180 226.5 c 128,-1,52
 146 248 146 248 134 256 c 0,53,54
 105 273 105 273 105 308 c 2,55,-1
 105 915 l 2,56,57
 105 931 105 931 114.5 946 c 128,-1,58
 124 961 124 961 138 969 c 0,59,60
 152 976 152 976 186.5 996.5 c 128,-1,61
 221 1017 221 1017 266 1042.5 c 128,-1,62
 311 1068 311 1068 361 1096 c 128,-1,63
 411 1124 411 1124 454.5 1147 c 128,-1,64
 498 1170 498 1170 530 1185 c 128,-1,65
 562 1200 562 1200 572 1200 c 0,0,1
863 299 m 1,66,-1
 863 764 l 2,67,68
 863 785 863 785 853 804 c 128,-1,69
 843 823 843 823 825 834 c 2,70,-1
 490 1035 l 1,71,-1
 318 941 l 1,72,-1
 318 388 l 1,73,-1
 657 183 l 1,74,-1
 863 299 l 1,66,-1
EndSplineSet
EndChar

StartChar: b
Encoding: 98 98 67
Width: 1159
Flags: W
LayerCount: 2
Fore
SplineSet
250 1570 m 0,0,1
 258 1570 258 1570 265 1567.5 c 128,-1,2
 272 1565 272 1565 280 1562 c 1,3,-1
 279 1562 l 1,4,5
 312 1545 312 1545 312 1508 c 2,6,-1
 312 1062 l 1,7,8
 321 1067 321 1067 341.5 1079.5 c 128,-1,9
 362 1092 362 1092 387.5 1107 c 128,-1,10
 413 1122 413 1122 441 1138 c 128,-1,11
 469 1154 469 1154 494 1167.5 c 128,-1,12
 519 1181 519 1181 537.5 1189.5 c 128,-1,13
 556 1198 556 1198 563 1198 c 0,14,15
 571 1198 571 1198 578.5 1195.5 c 128,-1,16
 586 1193 586 1193 594 1189 c 1,17,-1
 593 1189 l 1,18,-1
 1028 941 l 2,19,20
 1042 933 1042 933 1050.5 919 c 128,-1,21
 1059 905 1059 905 1059 888 c 2,22,-1
 1059 300 l 2,23,24
 1059 265 1059 265 1027 248 c 0,25,26
 1014 241 1014 241 976 220 c 128,-1,27
 938 199 938 199 888 171.5 c 128,-1,28
 838 144 838 144 782.5 114 c 128,-1,29
 727 84 727 84 680 59 c 128,-1,30
 633 34 633 34 600.5 17.5 c 128,-1,31
 568 1 568 1 564 1 c 0,32,33
 554 1 554 1 522 16.5 c 128,-1,34
 490 32 490 32 446.5 56 c 128,-1,35
 403 80 403 80 353.5 108.5 c 128,-1,36
 304 137 304 137 259.5 163.5 c 128,-1,37
 215 190 215 190 180 211 c 128,-1,38
 145 232 145 232 131 240 c 0,39,40
 101 257 101 257 101 293 c 2,41,-1
 101 1452 l 2,42,43
 101 1471 101 1471 120 1491.5 c 128,-1,44
 139 1512 139 1512 164 1529.5 c 128,-1,45
 189 1547 189 1547 214 1558.5 c 128,-1,46
 239 1570 239 1570 250 1570 c 0,0,1
312 933 m 1,47,-1
 312 372 l 1,48,-1
 652 180 l 1,49,-1
 862 291 l 1,50,-1
 862 789 l 1,51,-1
 468 1023 l 1,52,-1
 312 933 l 1,47,-1
EndSplineSet
EndChar

StartChar: c
Encoding: 99 99 68
Width: 920
Flags: W
LayerCount: 2
Fore
SplineSet
870 891 m 0,0,1
 870 875 870 875 854 855.5 c 128,-1,2
 838 836 838 836 816 818.5 c 128,-1,3
 794 801 794 801 771.5 789.5 c 128,-1,4
 749 778 749 778 736 778 c 0,5,6
 724 778 724 778 713 785 c 128,-1,7
 702 792 702 792 694 800 c 2,8,-1
 485 1025 l 1,9,-1
 294 915 l 1,10,-1
 294 318 l 1,11,-1
 759 192 l 2,12,13
 778 187 778 187 787.5 176 c 128,-1,14
 797 165 797 165 802 146 c 1,15,-1
 802 147 l 1,16,17
 804 137 804 137 804 131 c 0,18,19
 804 105 804 105 784 88 c 0,20,21
 775 80 775 80 761 66 c 128,-1,22
 747 52 747 52 730.5 38 c 128,-1,23
 714 24 714 24 696.5 13.5 c 128,-1,24
 679 3 679 3 664 3 c 0,25,26
 656 3 656 3 618.5 12.5 c 128,-1,27
 581 22 581 22 528.5 36 c 128,-1,28
 476 50 476 50 415.5 67 c 128,-1,29
 355 84 355 84 300 100 c 128,-1,30
 245 116 245 116 202.5 128 c 128,-1,31
 160 140 160 140 145 144 c 0,32,33
 122 151 122 151 111 164.5 c 128,-1,34
 100 178 100 178 100 203 c 2,35,-1
 100 914 l 2,36,37
 100 931 100 931 109 944.5 c 128,-1,38
 118 958 118 958 132 966 c 0,39,40
 146 973 146 973 180 993 c 128,-1,41
 214 1013 214 1013 258 1038.5 c 128,-1,42
 302 1064 302 1064 350.5 1091.5 c 128,-1,43
 399 1119 399 1119 442 1142 c 128,-1,44
 485 1165 485 1165 516.5 1180 c 128,-1,45
 548 1195 548 1195 558 1195 c 0,46,47
 569 1195 569 1195 579.5 1190 c 128,-1,48
 590 1185 590 1185 598 1177 c 2,49,-1
 851 938 l 2,50,51
 860 930 860 930 865 916.5 c 128,-1,52
 870 903 870 903 870 891 c 0,0,1
EndSplineSet
EndChar

StartChar: d
Encoding: 100 100 69
Width: 1170
Flags: W
LayerCount: 2
Fore
SplineSet
442 1140 m 1,0,-1
 123 1394 l 2,1,2
 100 1412 100 1412 100 1441 c 0,3,4
 100 1460 100 1460 110.5 1475 c 128,-1,5
 121 1490 121 1490 136.5 1502.5 c 128,-1,6
 152 1515 152 1515 169 1525 c 128,-1,7
 186 1535 186 1535 198 1544 c 0,8,9
 206 1549 206 1549 214.5 1553 c 128,-1,10
 223 1557 223 1557 233 1557 c 0,11,12
 244 1557 244 1557 253.5 1553 c 128,-1,13
 263 1549 263 1549 271 1543 c 2,14,-1
 1046 947 l 2,15,16
 1070 929 1070 929 1070 899 c 2,17,-1
 1070 317 l 2,18,19
 1070 297 1070 297 1063 283.5 c 128,-1,20
 1056 270 1056 270 1039 259 c 0,21,22
 1025 251 1025 251 989 228.5 c 128,-1,23
 953 206 953 206 905.5 176.5 c 128,-1,24
 858 147 858 147 806 115.5 c 128,-1,25
 754 84 754 84 708 57.5 c 128,-1,26
 662 31 662 31 628.5 14 c 128,-1,27
 595 -3 595 -3 586 -3 c 0,28,29
 576 -3 576 -3 543.5 12.5 c 128,-1,30
 511 28 511 28 466 52 c 128,-1,31
 421 76 421 76 370.5 105 c 128,-1,32
 320 134 320 134 274 160.5 c 128,-1,33
 228 187 228 187 192.5 207.5 c 128,-1,34
 157 228 157 228 143 236 c 256,35,36
 129 244 129 244 120.5 258.5 c 128,-1,37
 112 273 112 273 112 289 c 2,38,-1
 112 917 l 2,39,40
 112 931 112 931 121.5 946.5 c 128,-1,41
 131 962 131 962 143 969 c 2,42,-1
 442 1140 l 1,0,-1
548 1057 m 1,43,-1
 316 928 l 1,44,-1
 316 430 l 2,45,46
 316 383 316 383 356 359 c 2,47,-1
 666 175 l 1,48,-1
 855 289 l 1,49,-1
 855 775 l 2,50,51
 855 793 855 793 847 810 c 128,-1,52
 839 827 839 827 825 838 c 2,53,-1
 548 1057 l 1,43,-1
EndSplineSet
EndChar

StartChar: e
Encoding: 101 101 70
Width: 999
Flags: W
LayerCount: 2
Fore
SplineSet
288 307 m 1,0,-1
 760 197 l 2,1,2
 806 186 806 186 806 137 c 0,3,4
 806 110 806 110 784 93 c 0,5,6
 774 85 774 85 758.5 70 c 128,-1,7
 743 55 743 55 725 40 c 128,-1,8
 707 25 707 25 688 13.5 c 128,-1,9
 669 2 669 2 654 2 c 0,10,11
 646 2 646 2 609.5 11 c 128,-1,12
 573 20 573 20 521.5 33.5 c 128,-1,13
 470 47 470 47 410 64 c 128,-1,14
 350 81 350 81 296 96 c 128,-1,15
 242 111 242 111 200.5 122.5 c 128,-1,16
 159 134 159 134 145 138 c 0,17,18
 100 150 100 150 100 196 c 2,19,-1
 100 909 l 2,20,21
 100 924 100 924 107.5 938.5 c 128,-1,22
 115 953 115 953 129 961 c 0,23,24
 142 968 142 968 176 989 c 128,-1,25
 210 1010 210 1010 254.5 1037 c 128,-1,26
 299 1064 299 1064 348.5 1093.5 c 128,-1,27
 398 1123 398 1123 441 1147.5 c 128,-1,28
 484 1172 484 1172 516 1188 c 128,-1,29
 548 1204 548 1204 557 1204 c 0,30,31
 569 1204 569 1204 579.5 1198.5 c 128,-1,32
 590 1193 590 1193 598 1185 c 1,33,-1
 598 1186 l 1,34,-1
 880 924 l 2,35,36
 899 905 899 905 899 877 c 2,37,-1
 899 692 l 2,38,39
 899 668 899 668 889 657.5 c 128,-1,40
 879 647 879 647 860 636 c 2,41,-1
 288 316 l 1,42,-1
 288 307 l 1,0,-1
680 682 m 1,43,-1
 680 830 l 1,44,-1
 468 1033 l 1,45,-1
 288 937 l 1,46,-1
 288 456 l 1,47,-1
 680 682 l 1,43,-1
EndSplineSet
EndChar

StartChar: f
Encoding: 102 102 71
Width: 852
Flags: W
LayerCount: 2
Fore
SplineSet
421 954 m 1,0,-1
 654 955 l 2,1,2
 682 955 682 955 698.5 936 c 128,-1,3
 715 917 715 917 715 891 c 0,4,5
 715 873 715 873 707.5 863 c 128,-1,6
 700 853 700 853 686 844 c 2,7,-1
 526 743 l 1,8,-1
 526 744 l 1,9,10
 502 731 502 731 474.5 732.5 c 128,-1,11
 447 734 447 734 421 734 c 1,12,-1
 421 -262 l 2,13,14
 421 -284 421 -284 407.5 -299.5 c 128,-1,15
 394 -315 394 -315 374.5 -326 c 128,-1,16
 355 -337 355 -337 334 -345.5 c 128,-1,17
 313 -354 313 -354 298 -362 c 1,18,-1
 299 -362 l 1,19,20
 291 -365 291 -365 283 -367 c 128,-1,21
 275 -369 275 -369 267 -369 c 0,22,23
 243 -369 243 -369 225.5 -350.5 c 128,-1,24
 208 -332 208 -332 208 -308 c 2,25,-1
 208 1058 l 1,26,27
 202 1067 202 1067 187.5 1086.5 c 128,-1,28
 173 1106 173 1106 155.5 1130.5 c 128,-1,29
 138 1155 138 1155 119.5 1182.5 c 128,-1,30
 101 1210 101 1210 85.5 1235 c 128,-1,31
 70 1260 70 1260 60 1279.5 c 128,-1,32
 50 1299 50 1299 50 1309 c 0,33,34
 50 1325 50 1325 60.5 1336.5 c 128,-1,35
 71 1348 71 1348 84 1356 c 1,36,-1
 84 1355 l 1,37,38
 96 1362 96 1362 125 1380.5 c 128,-1,39
 154 1399 154 1399 191 1422 c 128,-1,40
 228 1445 228 1445 268.5 1469.5 c 128,-1,41
 309 1494 309 1494 344.5 1515 c 128,-1,42
 380 1536 380 1536 406 1549 c 128,-1,43
 432 1562 432 1562 440 1562 c 0,44,45
 450 1562 450 1562 475.5 1550 c 128,-1,46
 501 1538 501 1538 534.5 1519.5 c 128,-1,47
 568 1501 568 1501 605.5 1479 c 128,-1,48
 643 1457 643 1457 677 1436 c 128,-1,49
 711 1415 711 1415 738 1398.5 c 128,-1,50
 765 1382 765 1382 777 1375 c 0,51,52
 794 1365 794 1365 800.5 1351.5 c 128,-1,53
 807 1338 807 1338 807 1320 c 0,54,55
 807 1305 807 1305 799 1292.5 c 128,-1,56
 791 1280 791 1280 779 1272 c 1,57,-1
 780 1272 l 1,58,-1
 690 1214 l 1,59,-1
 690 1215 l 1,60,61
 682 1210 682 1210 673.5 1207 c 128,-1,62
 665 1204 665 1204 656 1204 c 0,63,64
 646 1204 646 1204 622.5 1215 c 128,-1,65
 599 1226 599 1226 569 1243 c 128,-1,66
 539 1260 539 1260 505 1280 c 128,-1,67
 471 1300 471 1300 440 1319.5 c 128,-1,68
 409 1339 409 1339 384.5 1354.5 c 128,-1,69
 360 1370 360 1370 349 1377 c 1,70,-1
 285 1329 l 1,71,-1
 415 1114 l 2,72,73
 419 1106 419 1106 420.5 1083.5 c 128,-1,74
 422 1061 422 1061 422 1035.5 c 128,-1,75
 422 1010 422 1010 421.5 987 c 128,-1,76
 421 964 421 964 421 954 c 1,0,-1
EndSplineSet
EndChar

StartChar: g
Encoding: 103 103 72
Width: 1197
Flags: W
LayerCount: 2
Fore
SplineSet
574 1203 m 256,0,1
 582 1203 582 1203 589.5 1200 c 128,-1,2
 597 1197 597 1197 605 1193 c 1,3,-1
 604 1193 l 1,4,-1
 1027 955 l 2,5,6
 1041 947 1041 947 1049.5 933.5 c 128,-1,7
 1058 920 1058 920 1058 904 c 2,8,-1
 1058 -13 l 1,9,10
 1068 -27 1068 -27 1082 -45 c 128,-1,11
 1096 -63 1096 -63 1096 -82 c 0,12,13
 1096 -99 1096 -99 1088.5 -114 c 128,-1,14
 1081 -129 1081 -129 1067 -137 c 0,15,16
 1055 -144 1055 -144 1028 -160.5 c 128,-1,17
 1001 -177 1001 -177 964.5 -199.5 c 128,-1,18
 928 -222 928 -222 885.5 -248 c 128,-1,19
 843 -274 843 -274 799 -300 c 128,-1,20
 755 -326 755 -326 713.5 -350 c 128,-1,21
 672 -374 672 -374 638.5 -393 c 128,-1,22
 605 -412 605 -412 582.5 -423 c 128,-1,23
 560 -434 560 -434 554 -434 c 0,24,25
 547 -434 547 -434 517.5 -426 c 128,-1,26
 488 -418 488 -418 446.5 -405.5 c 128,-1,27
 405 -393 405 -393 357 -378 c 128,-1,28
 309 -363 309 -363 265.5 -349 c 128,-1,29
 222 -335 222 -335 189 -324.5 c 128,-1,30
 156 -314 156 -314 144 -310 c 1,31,-1
 144 -311 l 1,32,33
 123 -304 123 -304 111.5 -286.5 c 128,-1,34
 100 -269 100 -269 100 -247 c 0,35,36
 100 -232 100 -232 106.5 -222 c 128,-1,37
 113 -212 113 -212 125 -204 c 0,38,39
 135 -197 135 -197 152.5 -182.5 c 128,-1,40
 170 -168 170 -168 190 -153.5 c 128,-1,41
 210 -139 210 -139 229.5 -128.5 c 128,-1,42
 249 -118 249 -118 263 -118 c 0,43,44
 271 -118 271 -118 300.5 -125.5 c 128,-1,45
 330 -133 330 -133 371 -145 c 128,-1,46
 412 -157 412 -157 459.5 -171.5 c 128,-1,47
 507 -186 507 -186 550 -199 c 128,-1,48
 593 -212 593 -212 626.5 -222.5 c 128,-1,49
 660 -233 660 -233 673 -237 c 1,50,-1
 883 -119 l 1,51,52
 875 -103 875 -103 866 -88.5 c 128,-1,53
 857 -74 857 -74 849 -58 c 1,54,-1
 849 175 l 1,55,56
 838 168 838 168 816 153 c 128,-1,57
 794 138 794 138 766 119.5 c 128,-1,58
 738 101 738 101 707.5 81.5 c 128,-1,59
 677 62 677 62 650 46 c 128,-1,60
 623 30 623 30 601 19.5 c 128,-1,61
 579 9 579 9 569 9 c 0,62,63
 560 9 560 9 528.5 24 c 128,-1,64
 497 39 497 39 453 62 c 128,-1,65
 409 85 409 85 359.5 112.5 c 128,-1,66
 310 140 310 140 265 165.5 c 128,-1,67
 220 191 220 191 185 211 c 128,-1,68
 150 231 150 231 137 238 c 0,69,70
 121 247 121 247 112.5 259.5 c 128,-1,71
 104 272 104 272 104 291 c 2,72,-1
 104 913 l 2,73,74
 104 930 104 930 113 944 c 128,-1,75
 122 958 122 958 136 966 c 0,76,77
 149 973 149 973 184 993.5 c 128,-1,78
 219 1014 219 1014 265 1040.5 c 128,-1,79
 311 1067 311 1067 362 1095.5 c 128,-1,80
 413 1124 413 1124 457.5 1148 c 128,-1,81
 502 1172 502 1172 534 1187.5 c 128,-1,82
 566 1203 566 1203 574 1203 c 256,0,1
849 318 m 1,83,-1
 849 759 l 2,84,85
 849 781 849 781 838.5 799.5 c 128,-1,86
 828 818 828 818 809 829 c 2,87,-1
 489 1016 l 1,88,-1
 304 916 l 1,89,-1
 304 433 l 2,90,91
 304 384 304 384 346 362 c 2,92,-1
 651 197 l 1,93,-1
 849 318 l 1,83,-1
EndSplineSet
EndChar

StartChar: h
Encoding: 104 104 73
Width: 1220
Flags: W
LayerCount: 2
Fore
SplineSet
1087 220 m 1,0,1
 1096 214 1096 214 1110.5 205.5 c 128,-1,2
 1125 197 1125 197 1138 187 c 128,-1,3
 1151 177 1151 177 1160.5 165 c 128,-1,4
 1170 153 1170 153 1170 139 c 0,5,6
 1170 126 1170 126 1159 101.5 c 128,-1,7
 1148 77 1148 77 1132 53 c 128,-1,8
 1116 29 1116 29 1097.5 11 c 128,-1,9
 1079 -7 1079 -7 1063 -7 c 0,10,11
 1053 -7 1053 -7 1043 -3 c 128,-1,12
 1033 1 1033 1 1025 6 c 1,13,-1
 1025 5 l 1,14,-1
 901 82 l 2,15,16
 887 90 887 90 880 104 c 128,-1,17
 873 118 873 118 873 134 c 2,18,-1
 873 756 l 2,19,20
 873 777 873 777 863.5 795 c 128,-1,21
 854 813 854 813 836 824 c 2,22,-1
 503 1032 l 1,23,-1
 313 926 l 1,24,-1
 313 220 l 1,25,26
 322 214 322 214 336.5 205.5 c 128,-1,27
 351 197 351 197 364.5 187 c 128,-1,28
 378 177 378 177 387.5 165 c 128,-1,29
 397 153 397 153 397 139 c 0,30,31
 397 126 397 126 386 101.5 c 128,-1,32
 375 77 375 77 359 53 c 128,-1,33
 343 29 343 29 324.5 11 c 128,-1,34
 306 -7 306 -7 290 -7 c 0,35,36
 279 -7 279 -7 269.5 -3 c 128,-1,37
 260 1 260 1 251 6 c 1,38,-1
 251 5 l 1,39,-1
 128 82 l 1,40,41
 100 101 100 101 100 134 c 2,42,-1
 100 1472 l 2,43,44
 100 1507 100 1507 130 1524 c 0,45,46
 139 1530 139 1530 155 1540.5 c 128,-1,47
 171 1551 171 1551 189 1561.5 c 128,-1,48
 207 1572 207 1572 224 1579.5 c 128,-1,49
 241 1587 241 1587 252 1587 c 0,50,51
 260 1587 260 1587 268 1584.5 c 128,-1,52
 276 1582 276 1582 284 1579 c 1,53,-1
 283 1579 l 1,54,55
 297 1570 297 1570 305 1556.5 c 128,-1,56
 313 1543 313 1543 313 1526 c 2,57,-1
 313 1062 l 1,58,59
 323 1067 323 1067 346 1080.5 c 128,-1,60
 369 1094 369 1094 398 1111 c 128,-1,61
 427 1128 427 1128 459.5 1146.5 c 128,-1,62
 492 1165 492 1165 520.5 1180 c 128,-1,63
 549 1195 549 1195 570.5 1205 c 128,-1,64
 592 1215 592 1215 600 1215 c 0,65,66
 609 1215 609 1215 616.5 1212.5 c 128,-1,67
 624 1210 624 1210 632 1205 c 0,68,69
 739 1138 739 1138 845.5 1071.5 c 128,-1,70
 952 1005 952 1005 1058 936 c 0,71,72
 1087 917 1087 917 1087 885 c 2,73,-1
 1087 220 l 1,0,1
EndSplineSet
EndChar

StartChar: i
Encoding: 105 105 74
Width: 552
Flags: W
LayerCount: 2
Fore
SplineSet
51 1094 m 256,0,1
 51 1115 51 1115 63.5 1131.5 c 128,-1,2
 76 1148 76 1148 94 1161 c 128,-1,3
 112 1174 112 1174 131 1185 c 128,-1,4
 150 1196 150 1196 164 1205 c 0,5,6
 180 1216 180 1216 198 1216 c 0,7,8
 206 1216 206 1216 213 1213.5 c 128,-1,9
 220 1211 220 1211 228 1208 c 1,10,-1
 227 1208 l 1,11,-1
 390 1119 l 2,12,13
 406 1111 406 1111 412 1098.5 c 128,-1,14
 418 1086 418 1086 418 1068 c 2,15,-1
 418 226 l 1,16,17
 427 220 427 220 441 212 c 128,-1,18
 455 204 455 204 468.5 194 c 128,-1,19
 482 184 482 184 492 172 c 128,-1,20
 502 160 502 160 502 146 c 0,21,22
 502 135 502 135 497.5 125.5 c 128,-1,23
 493 116 493 116 488 108 c 1,24,-1
 489 108 l 1,25,26
 483 98 483 98 473.5 80 c 128,-1,27
 464 62 464 62 452 44 c 128,-1,28
 440 26 440 26 425 12.5 c 128,-1,29
 410 -1 410 -1 394 -1 c 256,30,31
 378 -1 378 -1 355.5 10 c 128,-1,32
 333 21 333 21 309.5 36 c 128,-1,33
 286 51 286 51 265.5 65.5 c 128,-1,34
 245 80 245 80 233 88 c 0,35,36
 205 107 205 107 205 140 c 2,37,-1
 205 934 l 2,38,39
 205 960 205 960 193.5 976.5 c 128,-1,40
 182 993 182 993 165 1003.5 c 128,-1,41
 148 1014 148 1014 128 1021.5 c 128,-1,42
 108 1029 108 1029 91 1038.5 c 128,-1,43
 74 1048 74 1048 62.5 1060.5 c 128,-1,44
 51 1073 51 1073 51 1094 c 256,0,1
303 1312 m 1,45,-1
 303 1313 l 1,46,47
 286 1303 286 1303 271 1303 c 0,48,49
 255 1303 255 1303 232 1314.5 c 128,-1,50
 209 1326 209 1326 185 1341 c 128,-1,51
 161 1356 161 1356 139.5 1371 c 128,-1,52
 118 1386 118 1386 105 1394 c 0,53,54
 89 1404 89 1404 83 1416.5 c 128,-1,55
 77 1429 77 1429 77 1447 c 0,56,57
 77 1480 77 1480 104 1497 c 0,58,59
 114 1503 114 1503 129.5 1515 c 128,-1,60
 145 1527 145 1527 162.5 1538 c 128,-1,61
 180 1549 180 1549 197.5 1557.5 c 128,-1,62
 215 1566 215 1566 229 1566 c 0,63,64
 238 1566 238 1566 246 1562.5 c 128,-1,65
 254 1559 254 1559 262 1555 c 1,66,-1
 262 1556 l 1,67,-1
 395 1473 l 2,68,69
 422 1456 422 1456 422 1422 c 0,70,71
 422 1400 422 1400 409 1383.5 c 128,-1,72
 396 1367 396 1367 377.5 1354.5 c 128,-1,73
 359 1342 359 1342 338.5 1332 c 128,-1,74
 318 1322 318 1322 303 1312 c 1,45,-1
EndSplineSet
EndChar

StartChar: j
Encoding: 106 106 75
Width: 542
Flags: W
LayerCount: 2
Fore
SplineSet
75 1100 m 0,0,1
 75 1119 75 1119 88.5 1135 c 128,-1,2
 102 1151 102 1151 120.5 1164 c 128,-1,3
 139 1177 139 1177 158 1187 c 128,-1,4
 177 1197 177 1197 189 1205 c 0,5,6
 197 1210 197 1210 204.5 1213.5 c 128,-1,7
 212 1217 212 1217 221 1217 c 0,8,9
 233 1217 233 1217 261 1203.5 c 128,-1,10
 289 1190 289 1190 319.5 1173 c 128,-1,11
 350 1156 350 1156 377 1140 c 128,-1,12
 404 1124 404 1124 414 1119 c 0,13,14
 430 1111 430 1111 436 1098.5 c 128,-1,15
 442 1086 442 1086 442 1068 c 2,16,-1
 442 74 l 2,17,18
 442 63 442 63 439.5 56 c 128,-1,19
 437 49 437 49 431 41 c 0,20,21
 420 25 420 25 395.5 -12.5 c 128,-1,22
 371 -50 371 -50 343 -90.5 c 128,-1,23
 315 -131 315 -131 289 -164.5 c 128,-1,24
 263 -198 263 -198 249 -205 c 1,25,-1
 250 -205 l 1,26,27
 235 -213 235 -213 208 -228 c 128,-1,28
 181 -243 181 -243 151 -259 c 128,-1,29
 121 -275 121 -275 93 -286.5 c 128,-1,30
 65 -298 65 -298 49 -298 c 0,31,32
 26 -298 26 -298 7.5 -279.5 c 128,-1,33
 -11 -261 -11 -261 -11 -238 c 0,34,35
 -11 -219 -11 -219 0 -203 c 2,36,-1
 229 151 l 1,37,-1
 229 934 l 2,38,39
 229 961 229 961 217.5 977 c 128,-1,40
 206 993 206 993 189 1003 c 128,-1,41
 172 1013 172 1013 152 1020.5 c 128,-1,42
 132 1028 132 1028 115 1037.5 c 128,-1,43
 98 1047 98 1047 86.5 1061 c 128,-1,44
 75 1075 75 1075 75 1100 c 0,0,1
275 1303 m 0,45,46
 260 1303 260 1303 237 1314.5 c 128,-1,47
 214 1326 214 1326 190 1341 c 128,-1,48
 166 1356 166 1356 144.5 1371 c 128,-1,49
 123 1386 123 1386 110 1394 c 0,50,51
 94 1404 94 1404 87.5 1416.5 c 128,-1,52
 81 1429 81 1429 81 1447 c 0,53,54
 81 1478 81 1478 109 1497 c 0,55,56
 120 1504 120 1504 135.5 1515.5 c 128,-1,57
 151 1527 151 1527 168 1538.5 c 128,-1,58
 185 1550 185 1550 202 1558 c 128,-1,59
 219 1566 219 1566 234 1566 c 0,60,61
 242 1566 242 1566 250 1562.5 c 128,-1,62
 258 1559 258 1559 266 1555 c 1,63,-1
 266 1556 l 1,64,-1
 399 1473 l 2,65,66
 427 1455 427 1455 427 1422 c 0,67,68
 427 1388 427 1388 399 1370 c 0,69,70
 388 1363 388 1363 373 1352 c 128,-1,71
 358 1341 358 1341 341 1330 c 128,-1,72
 324 1319 324 1319 306.5 1311 c 128,-1,73
 289 1303 289 1303 275 1303 c 0,45,46
EndSplineSet
EndChar

StartChar: l
Encoding: 108 108 77
Width: 534
Flags: W
LayerCount: 2
Fore
SplineSet
137 1472 m 2,0,1
 137 1507 137 1507 167 1524 c 0,2,3
 176 1530 176 1530 192 1540.5 c 128,-1,4
 208 1551 208 1551 225.5 1561.5 c 128,-1,5
 243 1572 243 1572 260 1579.5 c 128,-1,6
 277 1587 277 1587 289 1587 c 0,7,8
 297 1587 297 1587 305 1584.5 c 128,-1,9
 313 1582 313 1582 321 1579 c 1,10,-1
 320 1579 l 1,11,12
 334 1570 334 1570 342 1556.5 c 128,-1,13
 350 1543 350 1543 350 1526 c 2,14,-1
 350 221 l 1,15,16
 359 215 359 215 372 208 c 128,-1,17
 385 201 385 201 396.5 192 c 128,-1,18
 408 183 408 183 416 172 c 128,-1,19
 424 161 424 161 424 148 c 0,20,21
 424 137 424 137 413.5 112.5 c 128,-1,22
 403 88 403 88 387 63.5 c 128,-1,23
 371 39 371 39 352 20.5 c 128,-1,24
 333 2 333 2 317 2 c 0,25,26
 306 2 306 2 296.5 6 c 128,-1,27
 287 10 287 10 278 15 c 1,28,-1
 278 14 l 1,29,-1
 165 83 l 2,30,31
 151 91 151 91 144 105 c 128,-1,32
 137 119 137 119 137 135 c 2,33,-1
 137 1472 l 2,0,1
EndSplineSet
EndChar

StartChar: m
Encoding: 109 109 78
Width: 1724
Flags: W
LayerCount: 2
Fore
SplineSet
259 3 m 0,0,1
 232 3 232 3 215.5 21 c 128,-1,2
 199 39 199 39 199 65 c 2,3,-1
 199 983 l 1,4,-1
 85 1041 l 2,5,6
 68 1050 68 1050 59.5 1062.5 c 128,-1,7
 51 1075 51 1075 51 1095 c 0,8,9
 51 1111 51 1111 59 1125 c 128,-1,10
 67 1139 67 1139 80 1147 c 0,11,12
 90 1153 90 1153 107 1165.5 c 128,-1,13
 124 1178 124 1178 143.5 1190.5 c 128,-1,14
 163 1203 163 1203 181.5 1212.5 c 128,-1,15
 200 1222 200 1222 213 1222 c 0,16,17
 221 1222 221 1222 229 1219 c 128,-1,18
 237 1216 237 1216 245 1213 c 1,19,-1
 244 1213 l 1,20,-1
 384 1137 l 2,21,22
 396 1130 396 1130 403 1115.5 c 128,-1,23
 410 1101 410 1101 413 1088 c 1,24,25
 421 1093 421 1093 440.5 1104 c 128,-1,26
 460 1115 460 1115 484 1129 c 128,-1,27
 508 1143 508 1143 535 1158.5 c 128,-1,28
 562 1174 562 1174 586.5 1186.5 c 128,-1,29
 611 1199 611 1199 629.5 1207 c 128,-1,30
 648 1215 648 1215 656 1215 c 0,31,32
 666 1215 666 1215 687.5 1205 c 128,-1,33
 709 1195 709 1195 736 1179 c 128,-1,34
 763 1163 763 1163 792.5 1144 c 128,-1,35
 822 1125 822 1125 849 1107 c 128,-1,36
 876 1089 876 1089 897.5 1074.5 c 128,-1,37
 919 1060 919 1060 930 1054 c 1,38,39
 941 1060 941 1060 965 1074.5 c 128,-1,40
 989 1089 989 1089 1019.5 1106.5 c 128,-1,41
 1050 1124 1050 1124 1083.5 1143.5 c 128,-1,42
 1117 1163 1117 1163 1147 1178.5 c 128,-1,43
 1177 1194 1177 1194 1200 1204.5 c 128,-1,44
 1223 1215 1223 1215 1232 1215 c 256,45,46
 1241 1215 1241 1215 1248 1212.5 c 128,-1,47
 1255 1210 1255 1210 1263 1205 c 2,48,-1
 1562 1016 l 2,49,50
 1589 999 1589 999 1589 966 c 2,51,-1
 1589 225 l 1,52,53
 1598 219 1598 219 1612.5 211 c 128,-1,54
 1627 203 1627 203 1640.5 193 c 128,-1,55
 1654 183 1654 183 1664 171 c 128,-1,56
 1674 159 1674 159 1674 144 c 0,57,58
 1674 134 1674 134 1670 124.5 c 128,-1,59
 1666 115 1666 115 1661 107 c 1,60,-1
 1662 107 l 1,61,62
 1656 97 1656 97 1646.5 78.5 c 128,-1,63
 1637 60 1637 60 1625 42 c 128,-1,64
 1613 24 1613 24 1598 11 c 128,-1,65
 1583 -2 1583 -2 1566 -2 c 0,66,67
 1553 -2 1553 -2 1529.5 10 c 128,-1,68
 1506 22 1506 22 1481.5 37 c 128,-1,69
 1457 52 1457 52 1435.5 66.5 c 128,-1,70
 1414 81 1414 81 1405 87 c 0,71,72
 1391 95 1391 95 1384 108.5 c 128,-1,73
 1377 122 1377 122 1377 139 c 2,74,-1
 1377 837 l 2,75,76
 1377 882 1377 882 1339 906 c 2,77,-1
 1136 1033 l 1,78,-1
 1007 961 l 1,79,-1
 1007 225 l 1,80,81
 1016 219 1016 219 1030.5 211 c 128,-1,82
 1045 203 1045 203 1058.5 193 c 128,-1,83
 1072 183 1072 183 1081.5 171 c 128,-1,84
 1091 159 1091 159 1091 144 c 0,85,86
 1091 132 1091 132 1080 108 c 128,-1,87
 1069 84 1069 84 1053 59.5 c 128,-1,88
 1037 35 1037 35 1018.5 16.5 c 128,-1,89
 1000 -2 1000 -2 984 -2 c 0,90,91
 973 -2 973 -2 963.5 2 c 128,-1,92
 954 6 954 6 945 11 c 1,93,-1
 945 10 l 1,94,-1
 822 87 l 2,95,96
 793 106 793 106 793 139 c 2,97,-1
 793 842 l 2,98,99
 793 887 793 887 756 911 c 2,100,-1
 560 1032 l 1,101,-1
 411 949 l 1,102,-1
 411 119 l 2,103,104
 411 84 411 84 382 67 c 0,105,106
 372 61 372 61 356.5 50.5 c 128,-1,107
 341 40 341 40 323.5 29.5 c 128,-1,108
 306 19 306 19 288.5 11 c 128,-1,109
 271 3 271 3 259 3 c 0,0,1
EndSplineSet
EndChar

StartChar: n
Encoding: 110 110 79
Width: 1304
Flags: W
LayerCount: 2
Fore
SplineSet
259 3 m 0,0,1
 232 3 232 3 215.5 21 c 128,-1,2
 199 39 199 39 199 65 c 2,3,-1
 199 983 l 1,4,-1
 85 1041 l 2,5,6
 51 1058 51 1058 51 1097 c 0,7,8
 51 1112 51 1112 59 1125.5 c 128,-1,9
 67 1139 67 1139 80 1147 c 0,10,11
 90 1153 90 1153 107.5 1165.5 c 128,-1,12
 125 1178 125 1178 144.5 1190.5 c 128,-1,13
 164 1203 164 1203 182.5 1212.5 c 128,-1,14
 201 1222 201 1222 213 1222 c 0,15,16
 221 1222 221 1222 228.5 1219.5 c 128,-1,17
 236 1217 236 1217 244 1213 c 1,18,-1
 243 1213 l 1,19,-1
 384 1137 l 2,20,21
 401 1128 401 1128 406 1107 c 128,-1,22
 411 1086 411 1086 411 1069 c 1,23,-1
 658 1206 l 1,24,-1
 657 1206 l 1,25,26
 665 1210 665 1210 673 1212.5 c 128,-1,27
 681 1215 681 1215 689 1215 c 0,28,29
 698 1215 698 1215 705 1212.5 c 128,-1,30
 712 1210 712 1210 720 1205 c 0,31,32
 826 1136 826 1136 933 1070.5 c 128,-1,33
 1040 1005 1040 1005 1146 936 c 0,34,35
 1159 927 1159 927 1166.5 914 c 128,-1,36
 1174 901 1174 901 1174 885 c 2,37,-1
 1174 218 l 1,38,39
 1183 212 1183 212 1197.5 203.5 c 128,-1,40
 1212 195 1212 195 1225.5 185 c 128,-1,41
 1239 175 1239 175 1248.5 163 c 128,-1,42
 1258 151 1258 151 1258 137 c 0,43,44
 1258 124 1258 124 1247 99.5 c 128,-1,45
 1236 75 1236 75 1220 51 c 128,-1,46
 1204 27 1204 27 1185.5 9 c 128,-1,47
 1167 -9 1167 -9 1151 -9 c 0,48,49
 1140 -9 1140 -9 1130.5 -5 c 128,-1,50
 1121 -1 1121 -1 1112 4 c 1,51,-1
 1112 3 l 1,52,-1
 989 80 l 2,53,54
 961 98 961 98 961 132 c 2,55,-1
 961 756 l 2,56,57
 961 801 961 801 923 825 c 2,58,-1
 592 1032 l 1,59,-1
 411 932 l 1,60,-1
 411 119 l 2,61,62
 411 84 411 84 382 67 c 0,63,64
 372 61 372 61 356 50 c 128,-1,65
 340 39 340 39 322.5 28.5 c 128,-1,66
 305 18 305 18 288 10.5 c 128,-1,67
 271 3 271 3 259 3 c 0,0,1
EndSplineSet
EndChar

StartChar: o
Encoding: 111 111 80
Width: 1139
Flags: W
LayerCount: 2
Fore
SplineSet
1010 954 m 1,0,-1
 1009 954 l 1,1,2
 1023 945 1023 945 1031 932.5 c 128,-1,3
 1039 920 1039 920 1039 903 c 2,4,-1
 1039 295 l 2,5,6
 1039 260 1039 260 1007 242 c 2,7,-1
 588 10 l 1,8,-1
 589 10 l 1,9,10
 581 7 581 7 573.5 4 c 128,-1,11
 566 1 566 1 558 1 c 0,12,13
 549 1 549 1 542 3.5 c 128,-1,14
 535 6 535 6 527 11 c 2,15,-1
 128 262 l 2,16,17
 100 280 100 280 100 314 c 2,18,-1
 100 921 l 2,19,20
 100 956 100 956 131 974 c 0,21,22
 145 981 145 981 181 1002 c 128,-1,23
 217 1023 217 1023 263.5 1050 c 128,-1,24
 310 1077 310 1077 362 1106 c 128,-1,25
 414 1135 414 1135 459 1159 c 128,-1,26
 504 1183 504 1183 537 1199 c 128,-1,27
 570 1215 570 1215 580 1215 c 256,28,29
 590 1215 590 1215 597 1212.5 c 128,-1,30
 604 1210 604 1210 612 1205 c 2,31,-1
 1010 954 l 1,0,-1
826 279 m 1,32,-1
 826 774 l 2,33,34
 826 795 826 795 815.5 813 c 128,-1,35
 805 831 805 831 788 842 c 2,36,-1
 484 1032 l 1,37,-1
 313 937 l 1,38,-1
 313 442 l 2,39,40
 313 397 313 397 352 373 c 2,41,-1
 655 184 l 1,42,-1
 826 279 l 1,32,-1
EndSplineSet
EndChar

StartChar: p
Encoding: 112 112 81
Width: 1237
Flags: W
LayerCount: 2
Fore
SplineSet
1109 954 m 1,0,-1
 1108 954 l 1,1,2
 1121 945 1121 945 1129 932 c 128,-1,3
 1137 919 1137 919 1137 903 c 2,4,-1
 1137 292 l 2,5,6
 1137 257 1137 257 1106 239 c 2,7,-1
 686 7 l 1,8,-1
 687 7 l 1,9,10
 679 3 679 3 671.5 0.5 c 128,-1,11
 664 -2 664 -2 656 -2 c 0,12,13
 646 -2 646 -2 626.5 7 c 128,-1,14
 607 16 607 16 583 30 c 128,-1,15
 559 44 559 44 533 61 c 128,-1,16
 507 78 507 78 483 94 c 128,-1,17
 459 110 459 110 440 123 c 128,-1,18
 421 136 421 136 411 142 c 1,19,-1
 411 -251 l 2,20,21
 411 -286 411 -286 381 -303 c 0,22,23
 372 -309 372 -309 356.5 -319.5 c 128,-1,24
 341 -330 341 -330 323 -340.5 c 128,-1,25
 305 -351 305 -351 287.5 -359 c 128,-1,26
 270 -367 270 -367 258 -367 c 0,27,28
 233 -367 233 -367 215.5 -348 c 128,-1,29
 198 -329 198 -329 198 -305 c 2,30,-1
 198 275 l 1,31,-1
 94 341 l 2,32,33
 80 350 80 350 73 361.5 c 128,-1,34
 66 373 66 373 66 390 c 0,35,36
 66 414 66 414 80.5 430.5 c 128,-1,37
 95 447 95 447 115.5 459 c 128,-1,38
 136 471 136 471 158.5 480 c 128,-1,39
 181 489 181 489 198 498 c 1,40,-1
 198 983 l 1,41,-1
 84 1041 l 2,42,43
 51 1057 51 1057 51 1095 c 0,44,45
 51 1117 51 1117 66.5 1134.5 c 128,-1,46
 82 1152 82 1152 103 1166.5 c 128,-1,47
 124 1181 124 1181 146 1192 c 128,-1,48
 168 1203 168 1203 182 1212 c 0,49,50
 190 1217 190 1217 196.5 1219.5 c 128,-1,51
 203 1222 203 1222 212 1222 c 0,52,53
 220 1222 220 1222 228 1219.5 c 128,-1,54
 236 1217 236 1217 244 1213 c 1,55,-1
 243 1213 l 1,56,-1
 383 1137 l 2,57,58
 400 1128 400 1128 405 1109 c 128,-1,59
 410 1090 410 1090 411 1073 c 1,60,61
 420 1078 420 1078 441.5 1090.5 c 128,-1,62
 463 1103 463 1103 489.5 1119 c 128,-1,63
 516 1135 516 1135 545.5 1152 c 128,-1,64
 575 1169 575 1169 602 1183 c 128,-1,65
 629 1197 629 1197 649.5 1206 c 128,-1,66
 670 1215 670 1215 679 1215 c 256,67,68
 688 1215 688 1215 694.5 1212.5 c 128,-1,69
 701 1210 701 1210 709 1205 c 2,70,-1
 1109 954 l 1,0,-1
924 275 m 1,71,-1
 924 774 l 2,72,73
 924 795 924 795 913.5 813 c 128,-1,74
 903 831 903 831 886 842 c 2,75,-1
 582 1032 l 1,76,-1
 411 937 l 1,77,-1
 411 439 l 2,78,79
 411 394 411 394 449 370 c 2,80,-1
 753 181 l 1,81,-1
 924 275 l 1,71,-1
EndSplineSet
EndChar

StartChar: q
Encoding: 113 113 82
Width: 1139
Flags: W
LayerCount: 2
Fore
SplineSet
1039 903 m 2,0,-1
 1039 -252 l 2,1,2
 1039 -274 1039 -274 1025.5 -290 c 128,-1,3
 1012 -306 1012 -306 993 -318.5 c 128,-1,4
 974 -331 974 -331 953.5 -340 c 128,-1,5
 933 -349 933 -349 918 -358 c 0,6,7
 911 -362 911 -362 903 -365 c 128,-1,8
 895 -368 895 -368 887 -368 c 0,9,10
 861 -368 861 -368 844 -349.5 c 128,-1,11
 827 -331 827 -331 827 -306 c 2,12,-1
 827 137 l 1,13,-1
 588 6 l 1,14,-1
 589 6 l 1,15,16
 582 3 582 3 574.5 0 c 128,-1,17
 567 -3 567 -3 559 -3 c 0,18,19
 549 -3 549 -3 542 -0.5 c 128,-1,20
 535 2 535 2 527 7 c 2,21,-1
 129 258 l 2,22,23
 114 268 114 268 107 280 c 128,-1,24
 100 292 100 292 100 310 c 2,25,-1
 100 921 l 2,26,27
 100 956 100 956 132 974 c 0,28,29
 146 982 146 982 182 1002.5 c 128,-1,30
 218 1023 218 1023 264.5 1050 c 128,-1,31
 311 1077 311 1077 362.5 1106 c 128,-1,32
 414 1135 414 1135 459.5 1159.5 c 128,-1,33
 505 1184 505 1184 538 1199.5 c 128,-1,34
 571 1215 571 1215 581 1215 c 0,35,36
 590 1215 590 1215 597 1212.5 c 128,-1,37
 604 1210 604 1210 612 1205 c 2,38,-1
 1011 954 l 2,39,40
 1039 937 1039 937 1039 903 c 2,0,-1
827 274 m 1,41,-1
 827 774 l 2,42,43
 827 795 827 795 816.5 813 c 128,-1,44
 806 831 806 831 788 842 c 2,45,-1
 484 1032 l 1,46,-1
 314 937 l 1,47,-1
 314 438 l 2,48,49
 314 392 314 392 352 369 c 1,50,-1
 352 370 l 1,51,-1
 655 180 l 1,52,-1
 827 274 l 1,41,-1
EndSplineSet
EndChar

StartChar: r
Encoding: 114 114 83
Width: 1062
Flags: W
LayerCount: 2
Fore
SplineSet
51 1095 m 0,0,1
 51 1129 51 1129 80 1147 c 0,2,3
 90 1153 90 1153 107 1165.5 c 128,-1,4
 124 1178 124 1178 143.5 1190.5 c 128,-1,5
 163 1203 163 1203 181.5 1212.5 c 128,-1,6
 200 1222 200 1222 213 1222 c 0,7,8
 221 1222 221 1222 228.5 1219.5 c 128,-1,9
 236 1217 236 1217 244 1213 c 1,10,-1
 243 1213 l 1,11,-1
 384 1137 l 2,12,13
 401 1128 401 1128 406 1108 c 128,-1,14
 411 1088 411 1088 411 1071 c 1,15,16
 426 1080 426 1080 462.5 1103 c 128,-1,17
 499 1126 499 1126 540.5 1150.5 c 128,-1,18
 582 1175 582 1175 619 1194 c 128,-1,19
 656 1213 656 1213 671 1213 c 0,20,21
 683 1213 683 1213 693.5 1207 c 128,-1,22
 704 1201 704 1201 712 1193 c 2,23,-1
 994 912 l 2,24,25
 1002 904 1002 904 1007 892 c 128,-1,26
 1012 880 1012 880 1012 869 c 0,27,28
 1012 849 1012 849 1000 833.5 c 128,-1,29
 988 818 988 818 970.5 806.5 c 128,-1,30
 953 795 953 795 934 785.5 c 128,-1,31
 915 776 915 776 902 768 c 0,32,33
 894 763 894 763 885 760 c 128,-1,34
 876 757 876 757 867 757 c 0,35,36
 853 757 853 757 845 762.5 c 128,-1,37
 837 768 837 768 828 777 c 2,38,-1
 576 1028 l 1,39,-1
 411 932 l 1,40,-1
 411 289 l 1,41,-1
 924 178 l 2,42,43
 943 174 943 174 949 157.5 c 128,-1,44
 955 141 955 141 955 124 c 0,45,46
 955 91 955 91 927 73 c 0,47,48
 914 65 914 65 898 52.5 c 128,-1,49
 882 40 882 40 864.5 29 c 128,-1,50
 847 18 847 18 829.5 10 c 128,-1,51
 812 2 812 2 796 2 c 0,52,53
 787 2 787 2 778.5 3.5 c 128,-1,54
 770 5 770 5 761 7 c 2,55,-1
 223 137 l 2,56,57
 207 141 207 141 203 157 c 128,-1,58
 199 173 199 173 199 187 c 2,59,-1
 199 983 l 1,60,-1
 85 1041 l 1,61,62
 51 1057 51 1057 51 1095 c 0,0,1
EndSplineSet
EndChar

StartChar: s
Encoding: 115 115 84
Width: 1193
Flags: W
LayerCount: 2
Fore
SplineSet
602 1211 m 0,0,1
 608 1211 608 1211 614 1210 c 128,-1,2
 620 1209 620 1209 626 1207 c 1,3,-1
 626 1208 l 1,4,-1
 1053 1047 l 2,5,6
 1076 1039 1076 1039 1084 1023.5 c 128,-1,7
 1092 1008 1092 1008 1092 985 c 0,8,9
 1092 964 1092 964 1081.5 952.5 c 128,-1,10
 1071 941 1071 941 1053 933 c 0,11,12
 1042 928 1042 928 1021.5 919 c 128,-1,13
 1001 910 1001 910 979 901 c 128,-1,14
 957 892 957 892 936.5 885 c 128,-1,15
 916 878 916 878 905 878 c 0,16,17
 897 878 897 878 865.5 888.5 c 128,-1,18
 834 899 834 899 791 914.5 c 128,-1,19
 748 930 748 930 698 949.5 c 128,-1,20
 648 969 648 969 603 986.5 c 128,-1,21
 558 1004 558 1004 523 1018 c 128,-1,22
 488 1032 488 1032 474 1037 c 1,23,-1
 343 987 l 1,24,-1
 343 741 l 1,25,-1
 551 663 l 1,26,27
 562 667 562 667 586 676.5 c 128,-1,28
 610 686 610 686 640.5 697.5 c 128,-1,29
 671 709 671 709 704.5 722 c 128,-1,30
 738 735 738 735 767.5 745.5 c 128,-1,31
 797 756 797 756 819.5 762.5 c 128,-1,32
 842 769 842 769 849 769 c 0,33,34
 855 769 855 769 861 768 c 128,-1,35
 867 767 867 767 873 765 c 1,36,-1
 873 766 l 1,37,38
 916 751 916 751 958 735 c 128,-1,39
 1000 719 1000 719 1042 703 c 1,40,-1
 1041 703 l 1,41,42
 1058 695 1058 695 1071 682 c 128,-1,43
 1084 669 1084 669 1084 649 c 2,44,-1
 1084 208 l 2,45,46
 1084 191 1084 191 1071.5 176 c 128,-1,47
 1059 161 1059 161 1044 155 c 0,48,49
 1030 150 1030 150 995 136.5 c 128,-1,50
 960 123 960 123 914.5 105.5 c 128,-1,51
 869 88 869 88 819 69 c 128,-1,52
 769 50 769 50 726 34.5 c 128,-1,53
 683 19 683 19 652 9 c 128,-1,54
 621 -1 621 -1 614 -1 c 256,55,56
 607 -1 607 -1 573 10.5 c 128,-1,57
 539 22 539 22 490.5 39 c 128,-1,58
 442 56 442 56 386 77 c 128,-1,59
 330 98 330 98 279.5 117 c 128,-1,60
 229 136 229 136 190.5 150.5 c 128,-1,61
 152 165 152 165 139 170 c 0,62,63
 122 176 122 176 111 191.5 c 128,-1,64
 100 207 100 207 100 226 c 0,65,66
 100 244 100 244 111 260.5 c 128,-1,67
 122 277 122 277 139 284 c 2,68,-1
 274 336 l 1,69,-1
 273 336 l 1,70,71
 282 340 282 340 293 340 c 0,72,73
 302 340 302 340 335.5 329.5 c 128,-1,74
 369 319 369 319 414 302.5 c 128,-1,75
 459 286 459 286 510.5 266 c 128,-1,76
 562 246 562 246 609 227.5 c 128,-1,77
 656 209 656 209 692.5 194.5 c 128,-1,78
 729 180 729 180 744 175 c 1,79,-1
 868 220 l 1,80,-1
 868 541 l 1,81,-1
 720 595 l 1,82,83
 708 591 708 591 684 581.5 c 128,-1,84
 660 572 660 572 629.5 560 c 128,-1,85
 599 548 599 548 565.5 535 c 128,-1,86
 532 522 532 522 502.5 511.5 c 128,-1,87
 473 501 473 501 451 494.5 c 128,-1,88
 429 488 429 488 420 488 c 0,89,90
 412 488 412 488 393 493.5 c 128,-1,91
 374 499 374 499 349.5 507.5 c 128,-1,92
 325 516 325 516 297.5 526.5 c 128,-1,93
 270 537 270 537 244.5 547 c 128,-1,94
 219 557 219 557 198.5 565 c 128,-1,95
 178 573 178 573 168 577 c 1,96,-1
 169 577 l 1,97,98
 151 585 151 585 140 599.5 c 128,-1,99
 129 614 129 614 129 634 c 2,100,-1
 129 996 l 2,101,102
 129 1038 129 1038 169 1053 c 0,103,104
 182 1058 182 1058 217.5 1071.5 c 128,-1,105
 253 1085 253 1085 298.5 1102.5 c 128,-1,106
 344 1120 344 1120 394 1139.5 c 128,-1,107
 444 1159 444 1159 488 1174.5 c 128,-1,108
 532 1190 532 1190 563.5 1200.5 c 128,-1,109
 595 1211 595 1211 602 1211 c 0,0,1
EndSplineSet
EndChar

StartChar: t
Encoding: 116 116 85
Width: 723
Flags: W
LayerCount: 2
Fore
SplineSet
396 1456 m 0,0,1
 405 1456 405 1456 412.5 1453.5 c 128,-1,2
 420 1451 420 1451 428 1446 c 1,3,-1
 427 1446 l 1,4,5
 457 1429 457 1429 457 1395 c 2,6,-1
 457 1204 l 1,7,-1
 641 1204 l 2,8,9
 685 1204 685 1204 699 1160 c 1,10,-1
 699 1161 l 1,11,12
 702 1150 702 1150 702 1139 c 0,13,14
 702 1108 702 1108 674 1091 c 2,15,-1
 528 999 l 1,16,-1
 528 1000 l 1,17,18
 509 990 509 990 494 990 c 128,-1,19
 479 990 479 990 457 990 c 1,20,-1
 457 220 l 1,21,22
 466 214 466 214 480.5 206 c 128,-1,23
 495 198 495 198 508 188 c 128,-1,24
 521 178 521 178 530.5 165.5 c 128,-1,25
 540 153 540 153 540 139 c 0,26,27
 540 127 540 127 529.5 102.5 c 128,-1,28
 519 78 519 78 503 53.5 c 128,-1,29
 487 29 487 29 468.5 11 c 128,-1,30
 450 -7 450 -7 434 -7 c 0,31,32
 423 -7 423 -7 413.5 -3 c 128,-1,33
 404 1 404 1 395 6 c 1,34,-1
 395 5 l 1,35,-1
 272 82 l 2,36,37
 258 90 258 90 251.5 104 c 128,-1,38
 245 118 245 118 245 134 c 2,39,-1
 245 990 l 1,40,-1
 88 990 l 2,41,42
 59 990 59 990 43 1008 c 128,-1,43
 27 1026 27 1026 27 1054 c 0,44,45
 27 1070 27 1070 35 1082.5 c 128,-1,46
 43 1095 43 1095 56 1103 c 2,47,-1
 201 1194 l 1,48,-1
 201 1193 l 1,49,50
 211 1199 211 1199 222.5 1201.5 c 128,-1,51
 234 1204 234 1204 245 1204 c 1,52,-1
 245 1340 l 2,53,54
 245 1356 245 1356 252 1370 c 128,-1,55
 259 1384 259 1384 273 1392 c 0,56,57
 280 1396 280 1396 296.5 1406.5 c 128,-1,58
 313 1417 313 1417 331.5 1428 c 128,-1,59
 350 1439 350 1439 368 1447.5 c 128,-1,60
 386 1456 386 1456 396 1456 c 0,0,1
EndSplineSet
EndChar

StartChar: u
Encoding: 117 117 86
Width: 1289
Flags: W
LayerCount: 2
Fore
SplineSet
687 9 m 1,0,-1
 688 9 l 1,1,2
 680 6 680 6 672.5 4 c 128,-1,3
 665 2 665 2 657 2 c 256,4,5
 649 2 649 2 641 4.5 c 128,-1,6
 633 7 633 7 625 11 c 1,7,-1
 625 10 l 1,8,-1
 226 260 l 1,9,-1
 227 260 l 1,10,11
 199 279 199 279 199 312 c 2,12,-1
 199 965 l 1,13,-1
 85 1023 l 2,14,15
 68 1031 68 1031 59.5 1043.5 c 128,-1,16
 51 1056 51 1056 51 1076 c 0,17,18
 51 1109 51 1109 80 1128 c 0,19,20
 89 1134 89 1134 106.5 1146.5 c 128,-1,21
 124 1159 124 1159 144 1171.5 c 128,-1,22
 164 1184 164 1184 183 1194 c 128,-1,23
 202 1204 202 1204 214 1204 c 0,24,25
 222 1204 222 1204 229 1201 c 128,-1,26
 236 1198 236 1198 244 1195 c 1,27,-1
 243 1195 l 1,28,-1
 384 1119 l 2,29,30
 396 1112 396 1112 403 1099.5 c 128,-1,31
 410 1087 410 1087 410 1073 c 2,32,-1
 410 454 l 2,33,34
 410 431 410 431 419 408.5 c 128,-1,35
 428 386 428 386 449 373 c 2,36,-1
 754 183 l 1,37,-1
 942 288 l 1,38,-1
 942 1082 l 2,39,40
 942 1115 942 1115 972 1132 c 0,41,42
 981 1137 981 1137 996.5 1148 c 128,-1,43
 1012 1159 1012 1159 1030 1169.5 c 128,-1,44
 1048 1180 1048 1180 1065.5 1188 c 128,-1,45
 1083 1196 1083 1196 1094 1196 c 0,46,47
 1102 1196 1102 1196 1110 1193.5 c 128,-1,48
 1118 1191 1118 1191 1126 1187 c 1,49,-1
 1125 1187 l 1,50,51
 1155 1170 1155 1170 1155 1135 c 2,52,-1
 1155 231 l 1,53,54
 1164 225 1164 225 1178 217 c 128,-1,55
 1192 209 1192 209 1205.5 199 c 128,-1,56
 1219 189 1219 189 1229 176.5 c 128,-1,57
 1239 164 1239 164 1239 150 c 0,58,59
 1239 138 1239 138 1228 114 c 128,-1,60
 1217 90 1217 90 1201 65.5 c 128,-1,61
 1185 41 1185 41 1166.5 22.5 c 128,-1,62
 1148 4 1148 4 1132 4 c 0,63,64
 1121 4 1121 4 1111 8 c 128,-1,65
 1101 12 1101 12 1093 17 c 2,66,-1
 970 94 l 2,67,68
 956 102 956 102 950 117 c 128,-1,69
 944 132 944 132 942 147 c 1,70,-1
 687 9 l 1,0,-1
EndSplineSet
EndChar

StartChar: v
Encoding: 118 118 87
Width: 1281
Flags: W
LayerCount: 2
Fore
SplineSet
1109 954 m 1,0,-1
 1108 954 l 1,1,2
 1121 945 1121 945 1129 932 c 128,-1,3
 1137 919 1137 919 1137 903 c 2,4,-1
 1137 296 l 2,5,6
 1137 261 1137 261 1106 243 c 2,7,-1
 686 11 l 1,8,-1
 687 11 l 1,9,10
 679 7 679 7 671.5 4.5 c 128,-1,11
 664 2 664 2 656 2 c 0,12,13
 646 2 646 2 639 4.5 c 128,-1,14
 632 7 632 7 624 12 c 2,15,-1
 226 263 l 2,16,17
 198 280 198 280 198 315 c 2,18,-1
 198 983 l 1,19,-1
 84 1041 l 2,20,21
 51 1057 51 1057 51 1095 c 0,22,23
 51 1117 51 1117 66.5 1134.5 c 128,-1,24
 82 1152 82 1152 103 1166.5 c 128,-1,25
 124 1181 124 1181 146 1192 c 128,-1,26
 168 1203 168 1203 182 1212 c 0,27,28
 190 1217 190 1217 196.5 1219.5 c 128,-1,29
 203 1222 203 1222 212 1222 c 0,30,31
 220 1222 220 1222 228 1219.5 c 128,-1,32
 236 1217 236 1217 244 1213 c 1,33,-1
 243 1213 l 1,34,-1
 383 1137 l 2,35,36
 400 1128 400 1128 405.5 1109.5 c 128,-1,37
 411 1091 411 1091 412 1074 c 1,38,39
 421 1079 421 1079 442 1091.5 c 128,-1,40
 463 1104 463 1104 490 1120 c 128,-1,41
 517 1136 517 1136 546.5 1152.5 c 128,-1,42
 576 1169 576 1169 602.5 1183 c 128,-1,43
 629 1197 629 1197 649.5 1206 c 128,-1,44
 670 1215 670 1215 679 1215 c 256,45,46
 688 1215 688 1215 694.5 1212.5 c 128,-1,47
 701 1210 701 1210 709 1205 c 2,48,-1
 1109 954 l 1,0,-1
924 280 m 1,49,-1
 924 774 l 2,50,51
 924 795 924 795 913.5 813 c 128,-1,52
 903 831 903 831 886 842 c 2,53,-1
 582 1032 l 1,54,-1
 411 937 l 1,55,-1
 411 443 l 2,56,57
 411 397 411 397 449 374 c 1,58,-1
 449 375 l 1,59,-1
 753 185 l 1,60,-1
 924 280 l 1,49,-1
EndSplineSet
EndChar

StartChar: w
Encoding: 119 119 88
Width: 1709
Flags: W
LayerCount: 2
Fore
SplineSet
51 1097 m 0,0,1
 51 1111 51 1111 58.5 1125 c 128,-1,2
 66 1139 66 1139 79 1147 c 0,3,4
 89 1153 89 1153 106.5 1165.5 c 128,-1,5
 124 1178 124 1178 143.5 1190.5 c 128,-1,6
 163 1203 163 1203 181.5 1212.5 c 128,-1,7
 200 1222 200 1222 213 1222 c 0,8,9
 221 1222 221 1222 228.5 1219.5 c 128,-1,10
 236 1217 236 1217 244 1213 c 1,11,-1
 243 1213 l 1,12,-1
 383 1137 l 2,13,14
 400 1128 400 1128 405 1109 c 128,-1,15
 410 1090 410 1090 411 1073 c 1,16,17
 421 1078 421 1078 442.5 1090.5 c 128,-1,18
 464 1103 464 1103 491 1118.5 c 128,-1,19
 518 1134 518 1134 547.5 1150.5 c 128,-1,20
 577 1167 577 1167 603 1180.5 c 128,-1,21
 629 1194 629 1194 648.5 1202.5 c 128,-1,22
 668 1211 668 1211 675 1211 c 0,23,24
 684 1211 684 1211 693 1208 c 128,-1,25
 702 1205 702 1205 710 1200 c 1,26,-1
 710 1201 l 1,27,-1
 953 1050 l 1,28,29
 964 1056 964 1056 988.5 1070.5 c 128,-1,30
 1013 1085 1013 1085 1044.5 1103 c 128,-1,31
 1076 1121 1076 1121 1110.5 1140 c 128,-1,32
 1145 1159 1145 1159 1175.5 1175 c 128,-1,33
 1206 1191 1206 1191 1229.5 1201.5 c 128,-1,34
 1253 1212 1253 1212 1262 1212 c 0,35,36
 1272 1212 1272 1212 1294.5 1201 c 128,-1,37
 1317 1190 1317 1190 1345.5 1173 c 128,-1,38
 1374 1156 1374 1156 1406.5 1135.5 c 128,-1,39
 1439 1115 1439 1115 1468 1096 c 128,-1,40
 1497 1077 1497 1077 1520 1061.5 c 128,-1,41
 1543 1046 1543 1046 1554 1039 c 1,42,-1
 1553 1039 l 1,43,44
 1567 1030 1567 1030 1575 1017 c 128,-1,45
 1583 1004 1583 1004 1583 987 c 2,46,-1
 1583 293 l 2,47,48
 1583 274 1583 274 1575.5 262 c 128,-1,49
 1568 250 1568 250 1552 241 c 0,50,51
 1449 181 1449 181 1344 125 c 128,-1,52
 1239 69 1239 69 1134 12 c 0,53,54
 1120 4 1120 4 1105 4 c 0,55,56
 1094 4 1094 4 1072.5 14 c 128,-1,57
 1051 24 1051 24 1024 40 c 128,-1,58
 997 56 997 56 967.5 75 c 128,-1,59
 938 94 938 94 911 112 c 128,-1,60
 884 130 884 130 862.5 145 c 128,-1,61
 841 160 841 160 830 167 c 1,62,63
 818 160 818 160 793.5 145.5 c 128,-1,64
 769 131 769 131 738 113 c 128,-1,65
 707 95 707 95 672.5 75.5 c 128,-1,66
 638 56 638 56 607.5 40.5 c 128,-1,67
 577 25 577 25 553.5 14.5 c 128,-1,68
 530 4 530 4 520 4 c 0,69,70
 503 4 503 4 487 14 c 2,71,-1
 227 178 l 2,72,73
 198 196 198 196 198 230 c 2,74,-1
 198 983 l 1,75,-1
 84 1041 l 2,76,77
 51 1058 51 1058 51 1097 c 0,0,1
997 937 m 1,78,-1
 997 359 l 2,79,80
 997 313 997 313 1035 290 c 1,81,-1
 1035 291 l 1,82,-1
 1201 187 l 1,83,-1
 1370 280 l 1,84,-1
 1370 858 l 2,85,86
 1370 902 1370 902 1332 926 c 2,87,-1
 1167 1030 l 1,88,-1
 997 937 l 1,78,-1
785 858 m 2,89,90
 785 901 785 901 746 926 c 2,91,-1
 580 1031 l 1,92,-1
 411 936 l 1,93,-1
 411 359 l 2,94,95
 411 314 411 314 449 290 c 2,96,-1
 615 187 l 1,97,-1
 785 280 l 1,98,-1
 785 858 l 2,89,90
EndSplineSet
EndChar

StartChar: x
Encoding: 120 120 89
Width: 1324
Flags: W
LayerCount: 2
Fore
SplineSet
686 983 m 1,0,1
 699 990 699 990 730 1009 c 128,-1,2
 761 1028 761 1028 800.5 1051.5 c 128,-1,3
 840 1075 840 1075 883.5 1100.5 c 128,-1,4
 927 1126 927 1126 965.5 1147.5 c 128,-1,5
 1004 1169 1004 1169 1032.5 1182.5 c 128,-1,6
 1061 1196 1061 1196 1071 1196 c 0,7,8
 1079 1196 1079 1196 1086 1193.5 c 128,-1,9
 1093 1191 1093 1191 1101 1188 c 1,10,-1
 1100 1188 l 1,11,12
 1116 1179 1116 1179 1137 1169 c 128,-1,13
 1158 1159 1158 1159 1177 1146.5 c 128,-1,14
 1196 1134 1196 1134 1209.5 1118.5 c 128,-1,15
 1223 1103 1223 1103 1223 1082 c 0,16,17
 1223 1062 1223 1062 1208 1045 c 128,-1,18
 1193 1028 1193 1028 1173 1014.5 c 128,-1,19
 1153 1001 1153 1001 1132 990.5 c 128,-1,20
 1111 980 1111 980 1098 972 c 1,21,-1
 1098 973 l 1,22,23
 1090 969 1090 969 1082 965.5 c 128,-1,24
 1074 962 1074 962 1065 962 c 256,25,26
 1056 962 1056 962 1042.5 968 c 128,-1,27
 1029 974 1029 974 1014.5 981.5 c 128,-1,28
 1000 989 1000 989 987 997 c 128,-1,29
 974 1005 974 1005 967 1008 c 1,30,-1
 730 871 l 1,31,-1
 730 394 l 2,32,33
 730 385 730 385 732 375 c 128,-1,34
 734 365 734 365 738.5 355.5 c 128,-1,35
 743 346 743 346 750 338 c 128,-1,36
 757 330 757 330 766 327 c 2,37,-1
 1193 171 l 1,38,-1
 1192 171 l 1,39,40
 1223 156 1223 156 1223 119 c 0,41,42
 1223 96 1223 96 1208.5 79.5 c 128,-1,43
 1194 63 1194 63 1173.5 50.5 c 128,-1,44
 1153 38 1153 38 1131 28.5 c 128,-1,45
 1109 19 1109 19 1093 10 c 0,46,47
 1086 6 1086 6 1078.5 3.5 c 128,-1,48
 1071 1 1071 1 1063 1 c 0,49,50
 1053 1 1053 1 1016.5 14 c 128,-1,51
 980 27 980 27 929.5 47.5 c 128,-1,52
 879 68 879 68 821.5 92.5 c 128,-1,53
 764 117 764 117 712 139.5 c 128,-1,54
 660 162 660 162 619.5 179 c 128,-1,55
 579 196 579 196 563 203 c 1,56,57
 551 197 551 197 521 180 c 128,-1,58
 491 163 491 163 452 141 c 128,-1,59
 413 119 413 119 369.5 95 c 128,-1,60
 326 71 326 71 289 51 c 128,-1,61
 252 31 252 31 225.5 18 c 128,-1,62
 199 5 199 5 194 5 c 0,63,64
 183 5 183 5 167.5 12 c 128,-1,65
 152 19 152 19 136 28 c 128,-1,66
 120 37 120 37 105.5 46.5 c 128,-1,67
 91 56 91 56 82 61 c 0,68,69
 68 69 68 69 59 81.5 c 128,-1,70
 50 94 50 94 50 111 c 0,71,72
 50 146 50 146 79 165 c 0,73,74
 89 171 89 171 105.5 183 c 128,-1,75
 122 195 122 195 140 207 c 128,-1,76
 158 219 158 219 176 228 c 128,-1,77
 194 237 194 237 207 237 c 0,78,79
 216 237 216 237 229 231.5 c 128,-1,80
 242 226 242 226 255.5 219 c 128,-1,81
 269 212 269 212 280.5 205 c 128,-1,82
 292 198 292 198 299 194 c 1,83,-1
 518 315 l 1,84,-1
 518 792 l 2,85,86
 518 813 518 813 506.5 832.5 c 128,-1,87
 495 852 495 852 475 862 c 2,88,-1
 100 1047 l 1,89,-1
 101 1047 l 1,90,91
 69 1065 69 1065 69 1100 c 256,92,93
 69 1135 69 1135 101 1153 c 0,94,95
 110 1158 110 1158 127 1168 c 128,-1,96
 144 1178 144 1178 162.5 1188.5 c 128,-1,97
 181 1199 181 1199 199 1206.5 c 128,-1,98
 217 1214 217 1214 227 1214 c 0,99,100
 236 1214 236 1214 270 1199 c 128,-1,101
 304 1184 304 1184 350.5 1160.5 c 128,-1,102
 397 1137 397 1137 450 1109 c 128,-1,103
 503 1081 503 1081 551 1055.5 c 128,-1,104
 599 1030 599 1030 636 1010 c 128,-1,105
 673 990 673 990 686 983 c 1,0,1
EndSplineSet
EndChar

StartChar: y
Encoding: 121 121 90
Width: 1294
Flags: W
LayerCount: 2
Fore
SplineSet
259 0 m 0,0,1
 232 0 232 0 215.5 18 c 128,-1,2
 199 36 199 36 199 62 c 2,3,-1
 199 985 l 1,4,-1
 85 1042 l 2,5,6
 70 1050 70 1050 60.5 1064.5 c 128,-1,7
 51 1079 51 1079 51 1096 c 0,8,9
 51 1118 51 1118 66.5 1135.5 c 128,-1,10
 82 1153 82 1153 103 1167.5 c 128,-1,11
 124 1182 124 1182 146 1193.5 c 128,-1,12
 168 1205 168 1205 182 1214 c 1,13,-1
 182 1213 l 1,14,15
 190 1217 190 1217 198 1220 c 128,-1,16
 206 1223 206 1223 215 1223 c 0,17,18
 222 1223 222 1223 229.5 1220.5 c 128,-1,19
 237 1218 237 1218 243 1215 c 2,20,-1
 384 1139 l 2,21,22
 396 1132 396 1132 402 1122.5 c 128,-1,23
 408 1113 408 1113 410 1101.5 c 128,-1,24
 412 1090 412 1090 411.5 1078 c 128,-1,25
 411 1066 411 1066 411 1054 c 1,26,27
 421 1060 421 1060 445 1074 c 128,-1,28
 469 1088 469 1088 498.5 1105.5 c 128,-1,29
 528 1123 528 1123 561 1142 c 128,-1,30
 594 1161 594 1161 623.5 1176.5 c 128,-1,31
 653 1192 653 1192 675.5 1202 c 128,-1,32
 698 1212 698 1212 707 1212 c 256,33,34
 716 1212 716 1212 724 1209 c 128,-1,35
 732 1206 732 1206 740 1201 c 2,36,-1
 1165 930 l 2,37,38
 1194 912 1194 912 1194 878 c 2,39,-1
 1194 -150 l 2,40,41
 1194 -170 1194 -170 1182.5 -183 c 128,-1,42
 1171 -196 1171 -196 1154 -204 c 0,43,44
 1138 -212 1138 -212 1098 -232 c 128,-1,45
 1058 -252 1058 -252 1006.5 -277 c 128,-1,46
 955 -302 955 -302 898.5 -329.5 c 128,-1,47
 842 -357 842 -357 792 -380 c 128,-1,48
 742 -403 742 -403 706 -417.5 c 128,-1,49
 670 -432 670 -432 659 -432 c 0,50,51
 655 -432 655 -432 635 -425.5 c 128,-1,52
 615 -419 615 -419 587 -409 c 128,-1,53
 559 -399 559 -399 526.5 -387 c 128,-1,54
 494 -375 494 -375 464.5 -364 c 128,-1,55
 435 -353 435 -353 413 -345 c 128,-1,56
 391 -337 391 -337 383 -334 c 0,57,58
 363 -326 363 -326 353 -310 c 128,-1,59
 343 -294 343 -294 343 -274 c 0,60,61
 343 -257 343 -257 352 -245 c 128,-1,62
 361 -233 361 -233 375 -225 c 0,63,64
 384 -220 384 -220 403 -208 c 128,-1,65
 422 -196 422 -196 443.5 -184 c 128,-1,66
 465 -172 465 -172 485 -162.5 c 128,-1,67
 505 -153 505 -153 517 -153 c 0,68,69
 530 -153 530 -153 567 -164.5 c 128,-1,70
 604 -176 604 -176 646.5 -191 c 128,-1,71
 689 -206 689 -206 727.5 -220.5 c 128,-1,72
 766 -235 766 -235 783 -241 c 1,73,-1
 978 -138 l 1,74,-1
 978 750 l 2,75,76
 978 794 978 794 940 818 c 2,77,-1
 612 1031 l 1,78,-1
 411 917 l 1,79,-1
 411 116 l 2,80,81
 411 97 411 97 404.5 85.5 c 128,-1,82
 398 74 398 74 382 64 c 0,83,84
 373 59 373 59 357.5 48 c 128,-1,85
 342 37 342 37 324 26.5 c 128,-1,86
 306 16 306 16 288.5 8 c 128,-1,87
 271 0 271 0 259 0 c 0,0,1
EndSplineSet
EndChar

StartChar: z
Encoding: 122 122 91
Width: 1010
Flags: W
LayerCount: 2
Fore
SplineSet
592 986 m 1,0,-1
 128 986 l 2,1,2
 99 986 99 986 82.5 1003.5 c 128,-1,3
 66 1021 66 1021 66 1050 c 0,4,5
 66 1064 66 1064 73.5 1076 c 128,-1,6
 81 1088 81 1088 92 1096 c 0,7,8
 102 1103 102 1103 119.5 1118 c 128,-1,9
 137 1133 137 1133 157 1148 c 128,-1,10
 177 1163 177 1163 197.5 1174 c 128,-1,11
 218 1185 218 1185 233 1185 c 2,12,-1
 849 1185 l 2,13,14
 876 1185 876 1185 893 1166 c 128,-1,15
 910 1147 910 1147 910 1121 c 0,16,17
 910 1099 910 1099 893 1082 c 2,18,-1
 527 704 l 1,19,-1
 872 501 l 2,20,21
 899 484 899 484 899 450 c 2,22,-1
 899 -126 l 2,23,24
 899 -144 899 -144 887.5 -158 c 128,-1,25
 876 -172 876 -172 860 -180 c 0,26,27
 845 -187 845 -187 805.5 -206.5 c 128,-1,28
 766 -226 766 -226 714 -251 c 128,-1,29
 662 -276 662 -276 605 -303.5 c 128,-1,30
 548 -331 548 -331 498.5 -353.5 c 128,-1,31
 449 -376 449 -376 412.5 -391 c 128,-1,32
 376 -406 376 -406 367 -406 c 0,33,34
 361 -406 361 -406 341 -399.5 c 128,-1,35
 321 -393 321 -393 293.5 -383.5 c 128,-1,36
 266 -374 266 -374 234.5 -362 c 128,-1,37
 203 -350 203 -350 174.5 -339 c 128,-1,38
 146 -328 146 -328 123.5 -319.5 c 128,-1,39
 101 -311 101 -311 92 -308 c 0,40,41
 50 -292 50 -292 50 -247 c 0,42,43
 50 -229 50 -229 59.5 -217.5 c 128,-1,44
 69 -206 69 -206 83 -198 c 0,45,46
 93 -192 93 -192 112 -180.5 c 128,-1,47
 131 -169 131 -169 152 -157 c 128,-1,48
 173 -145 173 -145 193 -136 c 128,-1,49
 213 -127 213 -127 225 -127 c 0,50,51
 241 -127 241 -127 278 -138 c 128,-1,52
 315 -149 315 -149 356 -164 c 128,-1,53
 397 -179 397 -179 435 -193.5 c 128,-1,54
 473 -208 473 -208 492 -214 c 1,55,-1
 687 -112 l 1,56,-1
 687 321 l 2,57,58
 687 342 687 342 677 360 c 128,-1,59
 667 378 667 378 648 389 c 2,60,-1
 297 594 l 2,61,62
 283 602 283 602 275 615.5 c 128,-1,63
 267 629 267 629 267 645 c 0,64,65
 267 671 267 671 285 689 c 2,66,-1
 592 986 l 1,0,-1
EndSplineSet
EndChar

StartChar: braceleft
Encoding: 123 123 92
Width: 858
Flags: W
LayerCount: 2
Fore
SplineSet
294 937 m 1,0,-1
 294 1308 l 2,1,2
 294 1324 294 1324 301 1338 c 128,-1,3
 308 1352 308 1352 322 1360 c 2,4,-1
 639 1558 l 1,5,-1
 639 1557 l 1,6,7
 647 1562 647 1562 656 1565.5 c 128,-1,8
 665 1569 665 1569 675 1569 c 0,9,10
 686 1569 686 1569 695.5 1563.5 c 128,-1,11
 705 1558 705 1558 711.5 1549 c 128,-1,12
 718 1540 718 1540 722 1529 c 128,-1,13
 726 1518 726 1518 726 1508 c 0,14,15
 726 1494 726 1494 720 1480.5 c 128,-1,16
 714 1467 714 1467 701 1459 c 2,17,-1
 499 1334 l 1,18,-1
 497 962 l 2,19,20
 497 945 497 945 491.5 934.5 c 128,-1,21
 486 924 486 924 472 913 c 2,22,-1
 357 820 l 1,23,24
 369 813 369 813 392.5 802 c 128,-1,25
 416 791 416 791 440 776 c 128,-1,26
 464 761 464 761 481.5 743.5 c 128,-1,27
 499 726 499 726 499 705 c 2,28,-1
 499 333 l 2,29,30
 499 285 499 285 541 261 c 2,31,-1
 698 170 l 2,32,33
 729 152 729 152 729 116 c 0,34,35
 729 84 729 84 702 67 c 1,36,-1
 703 67 l 1,37,38
 694 61 694 61 680 50 c 128,-1,39
 666 39 666 39 650 28.5 c 128,-1,40
 634 18 634 18 618 10 c 128,-1,41
 602 2 602 2 589 2 c 0,42,43
 579 2 579 2 558.5 11 c 128,-1,44
 538 20 538 20 512 34 c 128,-1,45
 486 48 486 48 457.5 65 c 128,-1,46
 429 82 429 82 403 98 c 128,-1,47
 377 114 377 114 356 127.5 c 128,-1,48
 335 141 335 141 324 147 c 0,49,50
 294 164 294 164 294 199 c 2,51,-1
 294 615 l 1,52,-1
 132 711 l 2,53,54
 116 721 116 721 109 732.5 c 128,-1,55
 102 744 102 744 102 763 c 0,56,57
 102 795 102 795 130 815 c 2,58,-1
 294 937 l 1,0,-1
EndSplineSet
EndChar

StartChar: bar
Encoding: 124 124 93
Width: 412
Flags: W
LayerCount: 2
Fore
SplineSet
100 1598 m 2,0,1
 100 1632 100 1632 130 1649 c 0,2,3
 140 1655 140 1655 155.5 1665.5 c 128,-1,4
 171 1676 171 1676 188 1686.5 c 128,-1,5
 205 1697 205 1697 222 1704.5 c 128,-1,6
 239 1712 239 1712 252 1712 c 0,7,8
 260 1712 260 1712 267.5 1709.5 c 128,-1,9
 275 1707 275 1707 283 1704 c 1,10,-1
 282 1704 l 1,11,12
 312 1687 312 1687 312 1652 c 2,13,-1
 312 1 l 2,14,15
 312 -30 312 -30 303 -48 c 128,-1,16
 294 -66 294 -66 278 -79 c 128,-1,17
 262 -92 262 -92 239.5 -102.5 c 128,-1,18
 217 -113 217 -113 191 -129 c 0,19,20
 179 -137 179 -137 160 -137 c 0,21,22
 152 -137 152 -137 144.5 -134.5 c 128,-1,23
 137 -132 137 -132 129 -129 c 1,24,-1
 130 -129 l 1,25,26
 100 -110 100 -110 100 -76 c 2,27,-1
 100 1598 l 2,0,1
EndSplineSet
EndChar

StartChar: braceright
Encoding: 125 125 94
Width: 816
Flags: W
LayerCount: 2
Fore
SplineSet
538 634 m 1,0,-1
 538 263 l 2,1,2
 538 247 538 247 531 233 c 128,-1,3
 524 219 524 219 510 211 c 2,4,-1
 193 13 l 1,5,-1
 193 14 l 1,6,7
 185 9 185 9 176 5.5 c 128,-1,8
 167 2 167 2 157 2 c 0,9,10
 146 2 146 2 136.5 7.5 c 128,-1,11
 127 13 127 13 120 22 c 128,-1,12
 113 31 113 31 109.5 42 c 128,-1,13
 106 53 106 53 106 63 c 0,14,15
 106 77 106 77 112 90.5 c 128,-1,16
 118 104 118 104 131 112 c 2,17,-1
 333 237 l 1,18,-1
 335 609 l 2,19,20
 335 626 335 626 340.5 636.5 c 128,-1,21
 346 647 346 647 360 658 c 2,22,-1
 475 751 l 1,23,24
 463 758 463 758 439.5 769 c 128,-1,25
 416 780 416 780 392 795 c 128,-1,26
 368 810 368 810 350.5 827.5 c 128,-1,27
 333 845 333 845 333 866 c 2,28,-1
 333 1238 l 2,29,30
 333 1286 333 1286 291 1310 c 2,31,-1
 134 1401 l 2,32,33
 103 1419 103 1419 103 1455 c 0,34,35
 103 1487 103 1487 130 1504 c 1,36,-1
 129 1504 l 1,37,38
 138 1510 138 1510 152 1521 c 128,-1,39
 166 1532 166 1532 182 1542.5 c 128,-1,40
 198 1553 198 1553 214 1561 c 128,-1,41
 230 1569 230 1569 243 1569 c 0,42,43
 253 1569 253 1569 273.5 1560 c 128,-1,44
 294 1551 294 1551 320 1537 c 128,-1,45
 346 1523 346 1523 374.5 1506 c 128,-1,46
 403 1489 403 1489 429 1473 c 128,-1,47
 455 1457 455 1457 476 1443.5 c 128,-1,48
 497 1430 497 1430 508 1424 c 0,49,50
 538 1407 538 1407 538 1372 c 2,51,-1
 538 956 l 1,52,-1
 700 860 l 2,53,54
 716 850 716 850 723 838.5 c 128,-1,55
 730 827 730 827 730 808 c 0,56,57
 730 776 730 776 702 756 c 2,58,-1
 538 634 l 1,0,-1
EndSplineSet
EndChar

StartChar: asciitilde
Encoding: 126 126 95
Width: 976
Flags: W
LayerCount: 2
Fore
SplineSet
100 810 m 0,0,1
 100 833 100 833 112.5 845 c 128,-1,2
 125 857 125 857 142 867 c 2,3,-1
 368 1000 l 1,4,-1
 367 1000 l 1,5,6
 375 1003 375 1003 382 1006 c 128,-1,7
 389 1009 389 1009 397 1009 c 0,8,9
 406 1009 406 1009 413.5 1006 c 128,-1,10
 421 1003 421 1003 429 998 c 1,11,-1
 428 999 l 1,12,-1
 654 832 l 1,13,14
 666 840 666 840 686 855 c 128,-1,15
 706 870 706 870 728.5 884.5 c 128,-1,16
 751 899 751 899 773.5 910 c 128,-1,17
 796 921 796 921 813 921 c 0,18,19
 838 921 838 921 857 904 c 128,-1,20
 876 887 876 887 876 861 c 0,21,22
 876 838 876 838 864 826.5 c 128,-1,23
 852 815 852 815 834 804 c 2,24,-1
 588 660 l 1,25,-1
 589 660 l 1,26,27
 581 657 581 657 574 654.5 c 128,-1,28
 567 652 567 652 559 652 c 0,29,30
 544 652 544 652 527 662 c 1,31,-1
 528 661 l 1,32,-1
 301 827 l 1,33,34
 291 821 291 821 274 808 c 128,-1,35
 257 795 257 795 237.5 782 c 128,-1,36
 218 769 218 769 198 759 c 128,-1,37
 178 749 178 749 163 749 c 0,38,39
 138 749 138 749 119 766.5 c 128,-1,40
 100 784 100 784 100 810 c 0,0,1
EndSplineSet
EndChar

StartChar: exclamdown
Encoding: 161 161 97
Width: 501
Flags: W
LayerCount: 2
Fore
SplineSet
100 1034 m 256,0,1
 100 1055 100 1055 113 1071.5 c 128,-1,2
 126 1088 126 1088 144 1101 c 128,-1,3
 162 1114 162 1114 182 1124.5 c 128,-1,4
 202 1135 202 1135 216 1145 c 0,5,6
 233 1157 233 1157 250 1157 c 0,7,8
 263 1157 263 1157 281 1147.5 c 128,-1,9
 299 1138 299 1138 316.5 1125.5 c 128,-1,10
 334 1113 334 1113 349.5 1100.5 c 128,-1,11
 365 1088 365 1088 374 1082 c 0,12,13
 386 1074 386 1074 393.5 1062 c 128,-1,14
 401 1050 401 1050 401 1034 c 0,15,16
 401 1014 401 1014 387.5 997 c 128,-1,17
 374 980 374 980 355 966 c 128,-1,18
 336 952 336 952 316 941 c 128,-1,19
 296 930 296 930 284 921 c 0,20,21
 267 909 267 909 250 909 c 256,22,23
 233 909 233 909 216 921 c 0,24,25
 202 930 202 930 182.5 941 c 128,-1,26
 163 952 163 952 144.5 965.5 c 128,-1,27
 126 979 126 979 113 996 c 128,-1,28
 100 1013 100 1013 100 1034 c 256,0,1
216 -380 m 0,29,30
 191 -380 191 -380 173 -361.5 c 128,-1,31
 155 -343 155 -343 155 -319 c 2,32,-1
 155 613 l 2,33,34
 155 631 155 631 162 642.5 c 128,-1,35
 169 654 169 654 184 663 c 0,36,37
 191 667 191 667 206 677.5 c 128,-1,38
 221 688 221 688 238.5 699 c 128,-1,39
 256 710 256 710 273 718.5 c 128,-1,40
 290 727 290 727 300 727 c 0,41,42
 326 727 326 727 343.5 708.5 c 128,-1,43
 361 690 361 690 361 665 c 2,44,-1
 361 -267 l 2,45,46
 361 -288 361 -288 348.5 -303.5 c 128,-1,47
 336 -319 336 -319 318.5 -331 c 128,-1,48
 301 -343 301 -343 281.5 -352 c 128,-1,49
 262 -361 262 -361 248 -370 c 0,50,51
 242 -374 242 -374 233 -377 c 128,-1,52
 224 -380 224 -380 216 -380 c 0,29,30
EndSplineSet
EndChar

StartChar: cent
Encoding: 162 162 98
Width: 968
Flags: W
LayerCount: 2
Fore
SplineSet
467 55 m 1,0,-1
 149 143 l 2,1,2
 126 150 126 150 115 163.5 c 128,-1,3
 104 177 104 177 104 202 c 2,4,-1
 104 911 l 2,5,6
 104 928 104 928 113 941.5 c 128,-1,7
 122 955 122 955 136 963 c 2,8,-1
 467 1148 l 1,9,10
 467 1167 467 1167 464.5 1196 c 128,-1,11
 462 1225 462 1225 465.5 1252 c 128,-1,12
 469 1279 469 1279 482.5 1298.5 c 128,-1,13
 496 1318 496 1318 528 1318 c 0,14,15
 558 1318 558 1318 572 1303.5 c 128,-1,16
 586 1289 586 1289 590.5 1267.5 c 128,-1,17
 595 1246 595 1246 594 1221.5 c 128,-1,18
 593 1197 593 1197 593 1177 c 1,19,-1
 849 935 l 2,20,21
 857 927 857 927 862.5 913 c 128,-1,22
 868 899 868 899 868 888 c 0,23,24
 868 872 868 872 852 852.5 c 128,-1,25
 836 833 836 833 814 815.5 c 128,-1,26
 792 798 792 798 769.5 786.5 c 128,-1,27
 747 775 747 775 734 775 c 0,28,29
 719 775 719 775 697.5 792 c 128,-1,30
 676 809 676 809 655.5 830.5 c 128,-1,31
 635 852 635 852 617.5 873 c 128,-1,32
 600 894 600 894 593 902 c 1,33,-1
 593 236 l 1,34,-1
 757 191 l 2,35,36
 774 186 774 186 784.5 174.5 c 128,-1,37
 795 163 795 163 800 146 c 1,38,-1
 800 147 l 1,39,40
 801 142 801 142 801.5 138 c 128,-1,41
 802 134 802 134 802 129 c 0,42,43
 802 105 802 105 782 88 c 0,44,45
 773 80 773 80 758.5 66 c 128,-1,46
 744 52 744 52 727.5 38 c 128,-1,47
 711 24 711 24 694 13.5 c 128,-1,48
 677 3 677 3 662 3 c 0,49,50
 645 3 645 3 627.5 9 c 128,-1,51
 610 15 610 15 593 20 c 1,52,-1
 593 -151 l 2,53,54
 593 -180 593 -180 577.5 -194 c 128,-1,55
 562 -208 562 -208 533 -208 c 0,56,57
 508 -208 508 -208 487.5 -190.5 c 128,-1,58
 467 -173 467 -173 467 -147 c 2,59,-1
 467 55 l 1,0,-1
295 318 m 1,60,-1
 467 271 l 1,61,-1
 467 1031 l 1,62,-1
 295 936 l 1,63,-1
 295 318 l 1,60,-1
EndSplineSet
EndChar

StartChar: sterling
Encoding: 163 163 99
Width: 1181
Flags: W
LayerCount: 2
Fore
SplineSet
562 550 m 1,0,1
 564 534 564 534 567.5 517.5 c 128,-1,2
 571 501 571 501 571 485 c 0,3,4
 571 470 571 470 563.5 457 c 128,-1,5
 556 444 556 444 543 436 c 2,6,-1
 431 364 l 1,7,-1
 1028 185 l 1,8,-1
 1028 186 l 1,9,10
 1048 178 1048 178 1059.5 161.5 c 128,-1,11
 1071 145 1071 145 1071 124 c 0,12,13
 1071 109 1071 109 1065.5 100 c 128,-1,14
 1060 91 1060 91 1049 82 c 0,15,16
 1039 73 1039 73 1025 59 c 128,-1,17
 1011 45 1011 45 994.5 31 c 128,-1,18
 978 17 978 17 961 7 c 128,-1,19
 944 -3 944 -3 928 -3 c 0,20,21
 921 -3 921 -3 888 5.5 c 128,-1,22
 855 14 855 14 804.5 28.5 c 128,-1,23
 754 43 754 43 691.5 62 c 128,-1,24
 629 81 629 81 562.5 101 c 128,-1,25
 496 121 496 121 431.5 141 c 128,-1,26
 367 161 367 161 312.5 177.5 c 128,-1,27
 258 194 258 194 219 206 c 128,-1,28
 180 218 180 218 165 223 c 0,29,30
 122 236 122 236 122 285 c 0,31,32
 122 300 122 300 130 312 c 128,-1,33
 138 324 138 324 150 332 c 1,34,-1
 149 332 l 1,35,-1
 360 469 l 1,36,-1
 348 550 l 1,37,-1
 161 550 l 2,38,39
 134 550 134 550 117.5 568 c 128,-1,40
 101 586 101 586 101 612 c 0,41,42
 101 644 101 644 130 662 c 1,43,-1
 130 661 l 1,44,-1
 267 745 l 2,45,46
 280 753 280 753 292.5 753.5 c 128,-1,47
 305 754 305 754 319 754 c 1,48,-1
 248 1237 l 1,49,-1
 247 1248 l 1,50,51
 247 1264 247 1264 254.5 1276.5 c 128,-1,52
 262 1289 262 1289 275 1297 c 1,53,-1
 274 1297 l 1,54,-1
 731 1592 l 2,55,56
 745 1602 745 1602 763 1602 c 0,57,58
 773 1602 773 1602 796 1591.5 c 128,-1,59
 819 1581 819 1581 847.5 1565 c 128,-1,60
 876 1549 876 1549 907.5 1529 c 128,-1,61
 939 1509 939 1509 967.5 1491 c 128,-1,62
 996 1473 996 1473 1019 1458 c 128,-1,63
 1042 1443 1042 1443 1052 1437 c 0,64,65
 1080 1420 1080 1420 1080 1385 c 0,66,67
 1080 1355 1080 1355 1055 1337 c 0,68,69
 1047 1331 1047 1331 1032.5 1319.5 c 128,-1,70
 1018 1308 1018 1308 1001.5 1296.5 c 128,-1,71
 985 1285 985 1285 968.5 1276 c 128,-1,72
 952 1267 952 1267 940 1267 c 0,73,74
 929 1267 929 1267 909 1276 c 128,-1,75
 889 1285 889 1285 863.5 1299.5 c 128,-1,76
 838 1314 838 1314 810.5 1331 c 128,-1,77
 783 1348 783 1348 758 1364.5 c 128,-1,78
 733 1381 733 1381 713.5 1394 c 128,-1,79
 694 1407 694 1407 684 1413 c 1,80,-1
 458 1265 l 1,81,-1
 532 754 l 1,82,-1
 815 754 l 2,83,84
 842 754 842 754 858.5 735 c 128,-1,85
 875 716 875 716 875 690 c 0,86,87
 875 659 875 659 847 642 c 1,88,-1
 847 643 l 1,89,90
 804 616 804 616 778.5 599 c 128,-1,91
 753 582 753 582 736.5 571.5 c 128,-1,92
 720 561 720 561 707.5 556.5 c 128,-1,93
 695 552 695 552 678 550.5 c 128,-1,94
 661 549 661 549 634 549.5 c 128,-1,95
 607 550 607 550 562 550 c 1,0,1
EndSplineSet
EndChar

StartChar: currency
Encoding: 164 164 100
Width: 1197
Flags: W
LayerCount: 2
Fore
SplineSet
100 1083 m 1,0,-1
 230 1223 l 1,1,-1
 369 1088 l 1,2,3
 423 1117 423 1117 480.5 1135 c 128,-1,4
 538 1153 538 1153 599 1153 c 0,5,6
 659 1153 659 1153 717 1134.5 c 128,-1,7
 775 1116 775 1116 827 1086 c 1,8,-1
 964 1221 l 1,9,-1
 1095 1089 l 1,10,-1
 960 955 l 1,11,12
 991 902 991 902 1009.5 844 c 128,-1,13
 1028 786 1028 786 1028 725 c 0,14,15
 1028 663 1028 663 1009.5 604.5 c 128,-1,16
 991 546 991 546 962 492 c 1,17,-1
 1097 361 l 1,18,-1
 965 227 l 1,19,-1
 827 363 l 1,20,21
 774 334 774 334 717.5 315.5 c 128,-1,22
 661 297 661 297 600 297 c 256,23,24
 539 297 539 297 481 314.5 c 128,-1,25
 423 332 423 332 369 359 c 1,26,-1
 239 231 l 1,27,-1
 103 363 l 1,28,-1
 235 494 l 1,29,30
 206 548 206 548 187.5 605.5 c 128,-1,31
 169 663 169 663 169 725 c 0,32,33
 169 785 169 785 187.5 842 c 128,-1,34
 206 899 206 899 235 951 c 1,35,-1
 100 1083 l 1,0,-1
359 725 m 256,36,37
 359 675 359 675 378 631 c 128,-1,38
 397 587 397 587 429.5 554.5 c 128,-1,39
 462 522 462 522 506 503 c 128,-1,40
 550 484 550 484 600 484 c 256,41,42
 650 484 650 484 693.5 503 c 128,-1,43
 737 522 737 522 769.5 555 c 128,-1,44
 802 588 802 588 820.5 631.5 c 128,-1,45
 839 675 839 675 839 725 c 256,46,47
 839 775 839 775 820.5 819 c 128,-1,48
 802 863 802 863 769.5 895.5 c 128,-1,49
 737 928 737 928 693.5 947 c 128,-1,50
 650 966 650 966 600 966 c 256,51,52
 550 966 550 966 506 947 c 128,-1,53
 462 928 462 928 429.5 895.5 c 128,-1,54
 397 863 397 863 378 819 c 128,-1,55
 359 775 359 775 359 725 c 256,36,37
EndSplineSet
EndChar

StartChar: yen
Encoding: 165 165 101
Width: 1146
Flags: W
LayerCount: 2
Fore
SplineSet
697 593 m 1,0,-1
 697 462 l 1,1,-1
 986 462 l 2,2,3
 1013 462 1013 462 1029 443 c 128,-1,4
 1045 424 1045 424 1045 398 c 0,5,6
 1045 382 1045 382 1037.5 369.5 c 128,-1,7
 1030 357 1030 357 1017 349 c 1,8,-1
 1017 350 l 1,9,10
 970 321 970 321 943.5 303 c 128,-1,11
 917 285 917 285 899 274.5 c 128,-1,12
 881 264 881 264 867.5 260 c 128,-1,13
 854 256 854 256 834 255.5 c 128,-1,14
 814 255 814 255 782 256 c 128,-1,15
 750 257 750 257 697 257 c 1,16,-1
 697 220 l 1,17,18
 706 214 706 214 720 206 c 128,-1,19
 734 198 734 198 747.5 188 c 128,-1,20
 761 178 761 178 770.5 166 c 128,-1,21
 780 154 780 154 780 140 c 0,22,23
 780 127 780 127 769.5 102.5 c 128,-1,24
 759 78 759 78 743 54 c 128,-1,25
 727 30 727 30 708.5 12 c 128,-1,26
 690 -6 690 -6 674 -6 c 0,27,28
 663 -6 663 -6 653.5 -2 c 128,-1,29
 644 2 644 2 635 7 c 1,30,-1
 635 6 l 1,31,32
 592 33 592 33 564 49 c 128,-1,33
 536 65 536 65 519.5 76.5 c 128,-1,34
 503 88 503 88 495 99.5 c 128,-1,35
 487 111 487 111 484.5 130 c 128,-1,36
 482 149 482 149 483 179 c 128,-1,37
 484 209 484 209 484 257 c 1,38,-1
 161 257 l 2,39,40
 134 257 134 257 117.5 276 c 128,-1,41
 101 295 101 295 101 321 c 0,42,43
 101 337 101 337 109 349.5 c 128,-1,44
 117 362 117 362 130 370 c 1,45,-1
 130 369 l 1,46,47
 180 399 180 399 208.5 418 c 128,-1,48
 237 437 237 437 256 447 c 128,-1,49
 275 457 275 457 290 461 c 128,-1,50
 305 465 305 465 327.5 465 c 128,-1,51
 350 465 350 465 386.5 463.5 c 128,-1,52
 423 462 423 462 484 462 c 1,53,-1
 484 593 l 1,54,-1
 161 593 l 2,55,56
 134 593 134 593 117.5 612 c 128,-1,57
 101 631 101 631 101 657 c 0,58,59
 101 688 101 688 130 706 c 1,60,-1
 130 705 l 1,61,62
 170 729 170 729 194 745.5 c 128,-1,63
 218 762 218 762 234 772.5 c 128,-1,64
 250 783 250 783 262 788 c 128,-1,65
 274 793 274 793 289.5 795.5 c 128,-1,66
 305 798 305 798 329 798 c 128,-1,67
 353 798 353 798 393 798 c 1,68,-1
 127 966 l 2,69,70
 100 983 100 983 100 1018 c 2,71,-1
 100 1466 l 2,72,73
 100 1501 100 1501 130 1518 c 0,74,75
 140 1524 140 1524 155.5 1534.5 c 128,-1,76
 171 1545 171 1545 188 1555.5 c 128,-1,77
 205 1566 205 1566 222 1573.5 c 128,-1,78
 239 1581 239 1581 252 1581 c 0,79,80
 260 1581 260 1581 267.5 1578.5 c 128,-1,81
 275 1576 275 1576 283 1573 c 1,82,-1
 282 1573 l 1,83,84
 298 1563 298 1563 304.5 1550.5 c 128,-1,85
 311 1538 311 1538 311 1520 c 2,86,-1
 311 1146 l 2,87,88
 311 1123 311 1123 320.5 1105 c 128,-1,89
 330 1087 330 1087 350 1076 c 1,90,-1
 350 1077 l 1,91,-1
 653 888 l 1,92,-1
 823 982 l 1,93,-1
 823 1466 l 2,94,95
 823 1501 823 1501 853 1518 c 0,96,97
 863 1524 863 1524 878.5 1534.5 c 128,-1,98
 894 1545 894 1545 911 1555.5 c 128,-1,99
 928 1566 928 1566 945 1573.5 c 128,-1,100
 962 1581 962 1581 975 1581 c 0,101,102
 983 1581 983 1581 990.5 1578.5 c 128,-1,103
 998 1576 998 1576 1006 1573 c 1,104,-1
 1005 1573 l 1,105,106
 1019 1564 1019 1564 1027 1550.5 c 128,-1,107
 1035 1537 1035 1537 1035 1520 c 2,108,-1
 1035 998 l 2,109,110
 1035 964 1035 964 1004 946 c 2,111,-1
 745 800 l 1,112,-1
 986 798 l 2,113,114
 1013 798 1013 798 1029 779 c 128,-1,115
 1045 760 1045 760 1045 734 c 0,116,117
 1045 702 1045 702 1017 686 c 1,118,-1
 1017 687 l 1,119,120
 970 658 970 658 943.5 640 c 128,-1,121
 917 622 917 622 899 611.5 c 128,-1,122
 881 601 881 601 867.5 596.5 c 128,-1,123
 854 592 854 592 834 591.5 c 128,-1,124
 814 591 814 591 782 592 c 128,-1,125
 750 593 750 593 697 593 c 1,0,-1
EndSplineSet
EndChar

StartChar: brokenbar
Encoding: 166 166 102
Width: 413
Flags: W
LayerCount: 2
Fore
SplineSet
100 1597 m 2,0,1
 100 1631 100 1631 130 1648 c 0,2,3
 139 1654 139 1654 155 1664.5 c 128,-1,4
 171 1675 171 1675 188 1685.5 c 128,-1,5
 205 1696 205 1696 222.5 1703.5 c 128,-1,6
 240 1711 240 1711 252 1711 c 0,7,8
 260 1711 260 1711 267.5 1708.5 c 128,-1,9
 275 1706 275 1706 283 1703 c 1,10,-1
 282 1703 l 1,11,12
 313 1684 313 1684 313 1650 c 2,13,-1
 313 1095 l 2,14,15
 313 1064 313 1064 303.5 1045.5 c 128,-1,16
 294 1027 294 1027 277.5 1014.5 c 128,-1,17
 261 1002 261 1002 238.5 991 c 128,-1,18
 216 980 216 980 191 965 c 0,19,20
 177 957 177 957 161 957 c 0,21,22
 153 957 153 957 145 959.5 c 128,-1,23
 137 962 137 962 129 965 c 1,24,-1
 130 965 l 1,25,26
 116 973 116 973 108 987 c 128,-1,27
 100 1001 100 1001 100 1018 c 2,28,-1
 100 1597 l 2,0,1
100 510 m 2,29,30
 100 545 100 545 130 562 c 0,31,32
 139 568 139 568 155 578.5 c 128,-1,33
 171 589 171 589 188 599.5 c 128,-1,34
 205 610 205 610 222.5 617.5 c 128,-1,35
 240 625 240 625 252 625 c 0,36,37
 260 625 260 625 267.5 622.5 c 128,-1,38
 275 620 275 620 283 617 c 1,39,-1
 282 617 l 1,40,41
 313 598 313 598 313 564 c 2,42,-1
 313 8 l 2,43,44
 313 -23 313 -23 303.5 -41.5 c 128,-1,45
 294 -60 294 -60 277.5 -72.5 c 128,-1,46
 261 -85 261 -85 238.5 -96 c 128,-1,47
 216 -107 216 -107 191 -122 c 0,48,49
 177 -130 177 -130 161 -130 c 0,50,51
 153 -130 153 -130 145 -127.5 c 128,-1,52
 137 -125 137 -125 129 -122 c 1,53,-1
 130 -122 l 1,54,55
 100 -103 100 -103 100 -69 c 2,56,-1
 100 510 l 2,29,30
EndSplineSet
EndChar

StartChar: section
Encoding: 167 167 103
Width: 1160
Flags: W
LayerCount: 2
Fore
SplineSet
571 1584 m 0,0,1
 584 1584 584 1584 595 1580 c 1,2,-1
 595 1581 l 1,3,-1
 1020 1421 l 2,4,5
 1043 1413 1043 1413 1051 1397.5 c 128,-1,6
 1059 1382 1059 1382 1059 1359 c 0,7,8
 1059 1339 1059 1339 1048.5 1327 c 128,-1,9
 1038 1315 1038 1315 1020 1308 c 0,10,11
 1008 1303 1008 1303 988 1294 c 128,-1,12
 968 1285 968 1285 946 1276 c 128,-1,13
 924 1267 924 1267 904 1260 c 128,-1,14
 884 1253 884 1253 872 1253 c 0,15,16
 865 1253 865 1253 834 1263.5 c 128,-1,17
 803 1274 803 1274 759.5 1290 c 128,-1,18
 716 1306 716 1306 666 1325 c 128,-1,19
 616 1344 616 1344 570.5 1361.5 c 128,-1,20
 525 1379 525 1379 490.5 1392.5 c 128,-1,21
 456 1406 456 1406 443 1411 c 1,22,-1
 324 1367 l 1,23,-1
 324 1112 l 1,24,-1
 520 1038 l 1,25,26
 530 1042 530 1042 554.5 1051.5 c 128,-1,27
 579 1061 579 1061 609.5 1073 c 128,-1,28
 640 1085 640 1085 673.5 1097.5 c 128,-1,29
 707 1110 707 1110 736.5 1120.5 c 128,-1,30
 766 1131 766 1131 788 1138 c 128,-1,31
 810 1145 810 1145 817 1145 c 0,32,33
 825 1145 825 1145 851.5 1136.5 c 128,-1,34
 878 1128 878 1128 909.5 1116.5 c 128,-1,35
 941 1105 941 1105 969 1094 c 128,-1,36
 997 1083 997 1083 1008 1079 c 0,37,38
 1026 1071 1026 1071 1037.5 1057 c 128,-1,39
 1049 1043 1049 1043 1049 1023 c 2,40,-1
 1049 742 l 2,41,42
 1049 721 1049 721 1036.5 707.5 c 128,-1,43
 1024 694 1024 694 1006.5 685.5 c 128,-1,44
 989 677 989 677 969.5 672 c 128,-1,45
 950 667 950 667 935 662 c 1,46,47
 951 656 951 656 971 650.5 c 128,-1,48
 991 645 991 645 1008 636 c 128,-1,49
 1025 627 1025 627 1037 613 c 128,-1,50
 1049 599 1049 599 1049 577 c 2,51,-1
 1049 208 l 2,52,53
 1049 166 1049 166 1009 151 c 0,54,55
 995 146 995 146 960.5 132.5 c 128,-1,56
 926 119 926 119 881.5 102 c 128,-1,57
 837 85 837 85 788 67 c 128,-1,58
 739 49 739 49 697 33.5 c 128,-1,59
 655 18 655 18 625 8 c 128,-1,60
 595 -2 595 -2 589 -2 c 256,61,62
 583 -2 583 -2 577 -1 c 128,-1,63
 571 0 571 0 565 2 c 1,64,-1
 565 1 l 1,65,-1
 139 161 l 2,66,67
 116 169 116 169 108.5 184.5 c 128,-1,68
 101 200 101 200 101 223 c 0,69,70
 101 261 101 261 138 275 c 0,71,72
 148 279 148 279 169 288 c 128,-1,73
 190 297 190 297 212.5 306 c 128,-1,74
 235 315 235 315 255.5 322 c 128,-1,75
 276 329 276 329 286 329 c 0,76,77
 293 329 293 329 324 318.5 c 128,-1,78
 355 308 355 308 398.5 292 c 128,-1,79
 442 276 442 276 492 257 c 128,-1,80
 542 238 542 238 587.5 220.5 c 128,-1,81
 633 203 633 203 668 189.5 c 128,-1,82
 703 176 703 176 716 171 c 1,83,-1
 836 217 l 1,84,-1
 836 470 l 1,85,-1
 640 544 l 1,86,87
 629 540 629 540 605 530.5 c 128,-1,88
 581 521 581 521 550.5 509.5 c 128,-1,89
 520 498 520 498 486.5 485 c 128,-1,90
 453 472 453 472 423.5 461.5 c 128,-1,91
 394 451 394 451 372.5 444.5 c 128,-1,92
 351 438 351 438 343 438 c 0,93,94
 333 438 333 438 306.5 446.5 c 128,-1,95
 280 455 280 455 249 466 c 128,-1,96
 218 477 218 477 190.5 488 c 128,-1,97
 163 499 163 499 151 504 c 0,98,99
 134 511 134 511 117 527 c 128,-1,100
 100 543 100 543 100 563 c 2,101,-1
 100 837 l 2,102,103
 100 859 100 859 114 872.5 c 128,-1,104
 128 886 128 886 147.5 895 c 128,-1,105
 167 904 167 904 188 910 c 128,-1,106
 209 916 209 916 224 921 c 1,107,-1
 138 953 l 1,108,-1
 139 953 l 1,109,110
 100 969 100 969 100 1010 c 2,111,-1
 100 1370 l 2,112,113
 100 1413 100 1413 139 1427 c 0,114,115
 153 1432 153 1432 188 1446 c 128,-1,116
 223 1460 223 1460 268 1477 c 128,-1,117
 313 1494 313 1494 363 1513 c 128,-1,118
 413 1532 413 1532 456.5 1548 c 128,-1,119
 500 1564 500 1564 531.5 1574 c 128,-1,120
 563 1584 563 1584 571 1584 c 0,0,1
324 666 m 1,121,-1
 471 612 l 1,122,-1
 836 754 l 1,123,-1
 836 917 l 1,124,-1
 688 970 l 1,125,-1
 324 829 l 1,126,-1
 324 666 l 1,121,-1
EndSplineSet
EndChar
